<?xml version="1.0" encoding="UTF-8"?> <!-- Generator: Adobe Illustrator 24.0.2, SVG Export Plug-In . SVG Version: 6.00 Build 0) --> <svg xmlns="http://www.w3.org/2000/svg" xmlns:xlink="http://www.w3.org/1999/xlink" id="Layer_1" x="0px" y="0px" viewBox="0 0 100 100" style="enable-background:new 0 0 100 100;" xml:space="preserve"> <style type="text/css"> .st0{fill:#F7F6F5;} </style> <path class="st0" d="M43.8,58.3c1.1,0.8,2.3,1.7,3.4,2.5c-1.2,1.2-2.4,2.3-3.6,3.5c-0.1,0.1-0.2,0.2-0.3,0.3l0.1-0.8 C43.6,62.1,43.7,60.2,43.8,58.3z M53.2,41.8c-5.8,3.6-11.5,7.3-17.3,10.9c-0.1,0.1-0.2,0.1-0.4,0.2c0.8,2.4,1.5,4.8,2.3,7.2 c0.5,1.7,1.1,3.4,1.6,5.1c0.2,0.7,0.6,1.1,1.3,1c0.2-2.9,0.4-5.8,0.6-8.7c0-0.3,0.1-0.7,0.1-1c-0.3-0.2-0.2-0.5-0.1-0.7 c0.2-0.2,0.4-0.4,0.6-0.6c0.1-0.1,0.1-0.1,0.2-0.2c0.1-0.1,0.2-0.2,0.3-0.3c0.5-0.4,1-0.9,1.4-1.3c0.3-0.3,0.5-0.5,0.8-0.8 c0.7-0.7,1.5-1.4,2.2-2.1c1.9-1.7,3.9-3.4,5.8-5.2c2.4-2.2,4.9-4.4,7.3-6.7c0.2-0.2,0.3-0.6,0.4-0.8c-0.4,0.1-0.9,0-1.3,0.2 C57.2,39.3,55.2,40.6,53.2,41.8z M91.9,50c0,23.1-18.8,41.9-41.9,41.9C26.9,91.9,8.1,73.1,8.1,50C8.1,26.9,26.9,8.1,50,8.1 C73.1,8.1,91.9,26.9,91.9,50z M68.7,33.3c0-0.2,0-0.3-0.1-0.5c-0.4-1.8-1.3-2.3-3.1-1.7c-0.3,0.1-0.5,0.1-0.8,0.2 c-1,0.4-1.9,0.8-2.9,1.2c-1.6,0.6-3.3,1.2-4.9,1.8c-1,0.4-2,0.9-3,1.3c-2.5,1-5.1,2-7.6,3c-5.2,2-10.5,4-15.7,6.1 C29.3,45,28.2,45.5,27,46c-1,0.4-2.1,0.8-3,1.4c-0.4,0.3-0.9,0.9-0.8,1.3c0,0.4,0.7,0.8,1.1,1.2c0.1,0.1,0.2,0.1,0.3,0.1 c2.8,0.9,5.6,1.7,8.3,2.6c0,0.3,0,0.6,0.1,0.9l1,3.2l1.3,4.3c0.2,0.5,0.3,1,0.5,1.5c0.4,1.2,0.8,2.4,1.1,3.6 c0.8,2.6,2.9,2.8,3.5,2.8c0.1,0,0.2,0,0.3,0c0.1,0,0.2,0,0.3,0c1.6,0,2.6-0.9,3.3-1.4c0.1-0.1,0.2-0.2,0.3-0.3 c0.1-0.1,0.2-0.2,0.3-0.3c0.1-0.1,0.2-0.2,0.2-0.3c0.1-0.1,0.3-0.3,0.4-0.4c0.9-0.9,1.9-1.8,2.8-2.8l1.1-1.1 c0.2,0.1,0.3,0.2,0.5,0.3c2.5,1.9,5,3.8,7.6,5.6c1.9,1.4,3.2,1,4.1-1.1c0.4-1.8,0.8-3.6,1.2-5.4c0.4-1.8,0.7-3.6,1.1-5.4 c0.2-1,0.4-2,0.7-3c0.6-2.8,1.2-5.5,1.8-8.3c0.2-0.9,0.4-1.8,0.6-2.7c0-0.2,0.1-0.4,0.1-0.6C67.5,39,68.1,36.2,68.7,33.3z"></path> </svg> 