<svg width="1045" height="231" viewBox="0 0 1045 231" fill="none" xmlns="http://www.w3.org/2000/svg">
<g clip-path="url(#clip0_158_8)">
<rect x="0.5" y="0.5" width="1044" height="230" stroke="black"/>
<line y1="114.5" x2="1045" y2="114.5" stroke="black"/>
<line x1="472.5" y1="-2.18557e-08" x2="472.5" y2="231" stroke="black"/>
<path d="M69.321 34.7273V58H66.5028V37.2273H54.7756V58H51.9574V34.7273H69.321ZM79.7784 58.4091C78.6723 58.4091 77.6686 58.2008 76.767 57.7841C75.8655 57.3598 75.1496 56.75 74.6193 55.9545C74.089 55.1515 73.8239 54.1818 73.8239 53.0455C73.8239 52.0455 74.0208 51.2348 74.4148 50.6136C74.8087 49.9848 75.3352 49.4924 75.9943 49.1364C76.6534 48.7803 77.3807 48.5152 78.1761 48.3409C78.9792 48.1591 79.786 48.0152 80.5966 47.9091C81.6572 47.7727 82.517 47.6705 83.1761 47.6023C83.8428 47.5265 84.3277 47.4015 84.6307 47.2273C84.9413 47.053 85.0966 46.75 85.0966 46.3182V46.2273C85.0966 45.1061 84.7898 44.2348 84.1761 43.6136C83.5701 42.9924 82.6496 42.6818 81.4148 42.6818C80.1345 42.6818 79.1307 42.9621 78.4034 43.5227C77.6761 44.0833 77.1648 44.6818 76.8693 45.3182L74.3239 44.4091C74.7784 43.3485 75.3845 42.5227 76.142 41.9318C76.9072 41.3333 77.7405 40.9167 78.642 40.6818C79.5511 40.4394 80.4451 40.3182 81.3239 40.3182C81.8845 40.3182 82.5284 40.3864 83.2557 40.5227C83.9905 40.6515 84.6989 40.9205 85.3807 41.3295C86.0701 41.7386 86.642 42.3561 87.0966 43.1818C87.5511 44.0076 87.7784 45.1136 87.7784 46.5V58H85.0966V55.6364H84.9602C84.7784 56.0152 84.4754 56.4205 84.0511 56.8523C83.6269 57.2841 83.0625 57.6515 82.358 57.9545C81.6534 58.2576 80.7936 58.4091 79.7784 58.4091ZM80.1875 56C81.2481 56 82.142 55.7917 82.8693 55.375C83.6042 54.9583 84.1572 54.4205 84.5284 53.7614C84.9072 53.1023 85.0966 52.4091 85.0966 51.6818V49.2273C84.983 49.3636 84.733 49.4886 84.3466 49.6023C83.9678 49.7083 83.5284 49.803 83.0284 49.8864C82.536 49.9621 82.0549 50.0303 81.5852 50.0909C81.1231 50.1439 80.7481 50.1894 80.4602 50.2273C79.7633 50.3182 79.1117 50.4659 78.5057 50.6705C77.9072 50.8674 77.4223 51.1667 77.0511 51.5682C76.6875 51.9621 76.5057 52.5 76.5057 53.1818C76.5057 54.1136 76.8504 54.8182 77.5398 55.2955C78.2367 55.7652 79.1193 56 80.1875 56ZM92.6733 64.5455V40.5455H95.2642V43.3182H95.5824C95.7794 43.0152 96.0521 42.6288 96.4006 42.1591C96.7566 41.6818 97.2642 41.2576 97.9233 40.8864C98.59 40.5076 99.4915 40.3182 100.628 40.3182C102.098 40.3182 103.393 40.6856 104.514 41.4205C105.635 42.1553 106.51 43.197 107.139 44.5455C107.768 45.8939 108.082 47.4848 108.082 49.3182C108.082 51.1667 107.768 52.7689 107.139 54.125C106.51 55.4735 105.639 56.5189 104.526 57.2614C103.412 57.9962 102.128 58.3636 100.673 58.3636C99.5521 58.3636 98.6544 58.178 97.9801 57.8068C97.3059 57.428 96.7869 57 96.4233 56.5227C96.0597 56.0379 95.7794 55.6364 95.5824 55.3182H95.3551V64.5455H92.6733ZM95.3097 49.2727C95.3097 50.5909 95.5028 51.7538 95.8892 52.7614C96.2756 53.7614 96.84 54.5455 97.5824 55.1136C98.3248 55.6742 99.2339 55.9545 100.31 55.9545C101.431 55.9545 102.366 55.6591 103.116 55.0682C103.874 54.4697 104.442 53.6667 104.821 52.6591C105.207 51.6439 105.401 50.5152 105.401 49.2727C105.401 48.0455 105.211 46.9394 104.832 45.9545C104.461 44.9621 103.897 44.178 103.139 43.6023C102.389 43.0189 101.446 42.7273 100.31 42.7273C99.2188 42.7273 98.3021 43.0038 97.5597 43.5568C96.8172 44.1023 96.2566 44.8674 95.8778 45.8523C95.4991 46.8295 95.3097 47.9697 95.3097 49.2727ZM125.901 40.5455V55.5H128.355V63.6364H125.673V58H112.173V40.5455H114.855V55.5H123.219V40.5455H125.901ZM135.168 54.0455L143.577 40.5455H146.668V58H143.986V44.5L135.622 58H132.486V40.5455H135.168V54.0455ZM156.716 58.4091C155.61 58.4091 154.606 58.2008 153.705 57.7841C152.803 57.3598 152.087 56.75 151.557 55.9545C151.027 55.1515 150.761 54.1818 150.761 53.0455C150.761 52.0455 150.958 51.2348 151.352 50.6136C151.746 49.9848 152.273 49.4924 152.932 49.1364C153.591 48.7803 154.318 48.5152 155.114 48.3409C155.917 48.1591 156.723 48.0152 157.534 47.9091C158.595 47.7727 159.455 47.6705 160.114 47.6023C160.78 47.5265 161.265 47.4015 161.568 47.2273C161.879 47.053 162.034 46.75 162.034 46.3182V46.2273C162.034 45.1061 161.727 44.2348 161.114 43.6136C160.508 42.9924 159.587 42.6818 158.352 42.6818C157.072 42.6818 156.068 42.9621 155.341 43.5227C154.614 44.0833 154.102 44.6818 153.807 45.3182L151.261 44.4091C151.716 43.3485 152.322 42.5227 153.08 41.9318C153.845 41.3333 154.678 40.9167 155.58 40.6818C156.489 40.4394 157.383 40.3182 158.261 40.3182C158.822 40.3182 159.466 40.3864 160.193 40.5227C160.928 40.6515 161.636 40.9205 162.318 41.3295C163.008 41.7386 163.58 42.3561 164.034 43.1818C164.489 44.0076 164.716 45.1136 164.716 46.5V58H162.034V55.6364H161.898C161.716 56.0152 161.413 56.4205 160.989 56.8523C160.564 57.2841 160 57.6515 159.295 57.9545C158.591 58.2576 157.731 58.4091 156.716 58.4091ZM157.125 56C158.186 56 159.08 55.7917 159.807 55.375C160.542 54.9583 161.095 54.4205 161.466 53.7614C161.845 53.1023 162.034 52.4091 162.034 51.6818V49.2273C161.92 49.3636 161.67 49.4886 161.284 49.6023C160.905 49.7083 160.466 49.803 159.966 49.8864C159.473 49.9621 158.992 50.0303 158.523 50.0909C158.061 50.1439 157.686 50.1894 157.398 50.2273C156.701 50.3182 156.049 50.4659 155.443 50.6705C154.845 50.8674 154.36 51.1667 153.989 51.5682C153.625 51.9621 153.443 52.5 153.443 53.1818C153.443 54.1136 153.788 54.8182 154.477 55.2955C155.174 55.7652 156.057 56 157.125 56ZM168.065 58V55.5H168.702C169.224 55.5 169.66 55.3977 170.009 55.1932C170.357 54.9811 170.637 54.6136 170.849 54.0909C171.069 53.5606 171.236 52.8258 171.349 51.8864C171.471 50.9394 171.558 49.7348 171.611 48.2727L171.929 40.5455H183.565V58H180.884V43.0455H174.474L174.202 49.2727C174.141 50.7045 174.012 51.9659 173.815 53.0568C173.626 54.1402 173.334 55.0492 172.94 55.7841C172.554 56.5189 172.039 57.072 171.395 57.4432C170.751 57.8144 169.944 58 168.974 58H168.065ZM190.804 46.8636H195.804C197.849 46.8636 199.414 47.3826 200.497 48.4205C201.58 49.4583 202.122 50.7727 202.122 52.3636C202.122 53.4091 201.88 54.3598 201.395 55.2159C200.91 56.0644 200.198 56.7424 199.259 57.25C198.319 57.75 197.168 58 195.804 58H188.486V40.5455H191.168V55.5H195.804C196.865 55.5 197.736 55.2197 198.418 54.6591C199.099 54.0985 199.44 53.3788 199.44 52.5C199.44 51.5758 199.099 50.822 198.418 50.2386C197.736 49.6553 196.865 49.3636 195.804 49.3636H190.804V46.8636ZM217.886 48.0455V50.5455H208.25V48.0455H217.886ZM208.886 40.5455V58H206.205V40.5455H208.886ZM219.932 40.5455V58H217.25V40.5455H219.932ZM231.92 58.3636C230.345 58.3636 228.962 57.9886 227.773 57.2386C226.591 56.4886 225.667 55.4394 225 54.0909C224.341 52.7424 224.011 51.1667 224.011 49.3636C224.011 47.5455 224.341 45.9583 225 44.6023C225.667 43.2462 226.591 42.1932 227.773 41.4432C228.962 40.6932 230.345 40.3182 231.92 40.3182C233.496 40.3182 234.875 40.6932 236.057 41.4432C237.246 42.1932 238.17 43.2462 238.83 44.6023C239.496 45.9583 239.83 47.5455 239.83 49.3636C239.83 51.1667 239.496 52.7424 238.83 54.0909C238.17 55.4394 237.246 56.4886 236.057 57.2386C234.875 57.9886 233.496 58.3636 231.92 58.3636ZM231.92 55.9545C233.117 55.9545 234.102 55.6477 234.875 55.0341C235.648 54.4205 236.22 53.6136 236.591 52.6136C236.962 51.6136 237.148 50.5303 237.148 49.3636C237.148 48.197 236.962 47.1098 236.591 46.1023C236.22 45.0947 235.648 44.2803 234.875 43.6591C234.102 43.0379 233.117 42.7273 231.92 42.7273C230.723 42.7273 229.739 43.0379 228.966 43.6591C228.193 44.2803 227.621 45.0947 227.25 46.1023C226.879 47.1098 226.693 48.197 226.693 49.3636C226.693 50.5303 226.879 51.6136 227.25 52.6136C227.621 53.6136 228.193 54.4205 228.966 55.0341C229.739 55.6477 230.723 55.9545 231.92 55.9545ZM251.241 58.3636C249.56 58.3636 248.109 57.9924 246.889 57.25C245.677 56.5 244.741 55.4545 244.082 54.1136C243.431 52.7652 243.105 51.197 243.105 49.4091C243.105 47.6212 243.431 46.0455 244.082 44.6818C244.741 43.3106 245.658 42.2424 246.832 41.4773C248.014 40.7045 249.393 40.3182 250.969 40.3182C251.878 40.3182 252.776 40.4697 253.662 40.7727C254.548 41.0758 255.355 41.5682 256.082 42.25C256.81 42.9242 257.389 43.8182 257.821 44.9318C258.253 46.0455 258.469 47.4167 258.469 49.0455V50.1818H245.014V47.8636H255.741C255.741 46.8788 255.545 46 255.151 45.2273C254.764 44.4545 254.211 43.8447 253.491 43.3977C252.779 42.9508 251.938 42.7273 250.969 42.7273C249.901 42.7273 248.976 42.9924 248.196 43.5227C247.423 44.0455 246.829 44.7273 246.412 45.5682C245.995 46.4091 245.787 47.3106 245.787 48.2727V49.8182C245.787 51.1364 246.014 52.2538 246.469 53.1705C246.931 54.0795 247.571 54.7727 248.389 55.25C249.207 55.7197 250.158 55.9545 251.241 55.9545C251.946 55.9545 252.582 55.8561 253.151 55.6591C253.726 55.4545 254.223 55.1515 254.639 54.75C255.056 54.3409 255.378 53.8333 255.605 53.2273L258.196 53.9545C257.923 54.8333 257.465 55.6061 256.821 56.2727C256.177 56.9318 255.382 57.447 254.435 57.8182C253.488 58.1818 252.423 58.3636 251.241 58.3636ZM269.685 63V55.5H271.139C271.495 55.1288 271.802 54.7273 272.06 54.2955C272.317 53.8636 272.541 53.3523 272.73 52.7614C272.927 52.1629 273.094 51.4356 273.23 50.5795C273.366 49.7159 273.488 48.6742 273.594 47.4545L274.185 40.5455H285.276V55.5H287.957V63H285.276V58H272.366V63H269.685ZM274.185 55.5H282.594V43.0455H276.685L276.23 47.4545C276.041 49.2803 275.806 50.875 275.526 52.2386C275.245 53.6023 274.798 54.6894 274.185 55.5ZM296.653 58.4091C295.547 58.4091 294.544 58.2008 293.642 57.7841C292.741 57.3598 292.025 56.75 291.494 55.9545C290.964 55.1515 290.699 54.1818 290.699 53.0455C290.699 52.0455 290.896 51.2348 291.29 50.6136C291.684 49.9848 292.21 49.4924 292.869 49.1364C293.528 48.7803 294.256 48.5152 295.051 48.3409C295.854 48.1591 296.661 48.0152 297.472 47.9091C298.532 47.7727 299.392 47.6705 300.051 47.6023C300.718 47.5265 301.203 47.4015 301.506 47.2273C301.816 47.053 301.972 46.75 301.972 46.3182V46.2273C301.972 45.1061 301.665 44.2348 301.051 43.6136C300.445 42.9924 299.525 42.6818 298.29 42.6818C297.009 42.6818 296.006 42.9621 295.278 43.5227C294.551 44.0833 294.04 44.6818 293.744 45.3182L291.199 44.4091C291.653 43.3485 292.259 42.5227 293.017 41.9318C293.782 41.3333 294.616 40.9167 295.517 40.6818C296.426 40.4394 297.32 40.3182 298.199 40.3182C298.759 40.3182 299.403 40.3864 300.131 40.5227C300.866 40.6515 301.574 40.9205 302.256 41.3295C302.945 41.7386 303.517 42.3561 303.972 43.1818C304.426 44.0076 304.653 45.1136 304.653 46.5V58H301.972V55.6364H301.835C301.653 56.0152 301.35 56.4205 300.926 56.8523C300.502 57.2841 299.938 57.6515 299.233 57.9545C298.528 58.2576 297.669 58.4091 296.653 58.4091ZM297.062 56C298.123 56 299.017 55.7917 299.744 55.375C300.479 54.9583 301.032 54.4205 301.403 53.7614C301.782 53.1023 301.972 52.4091 301.972 51.6818V49.2273C301.858 49.3636 301.608 49.4886 301.222 49.6023C300.843 49.7083 300.403 49.803 299.903 49.8864C299.411 49.9621 298.93 50.0303 298.46 50.0909C297.998 50.1439 297.623 50.1894 297.335 50.2273C296.638 50.3182 295.987 50.4659 295.381 50.6705C294.782 50.8674 294.297 51.1667 293.926 51.5682C293.563 51.9621 293.381 52.5 293.381 53.1818C293.381 54.1136 293.725 54.8182 294.415 55.2955C295.112 55.7652 295.994 56 297.062 56ZM309.548 58V40.5455H316.685C318.563 40.5455 320.056 40.9697 321.162 41.8182C322.268 42.6667 322.821 43.7879 322.821 45.1818C322.821 46.2424 322.507 47.0644 321.878 47.6477C321.249 48.2235 320.442 48.6136 319.457 48.8182C320.101 48.9091 320.726 49.1364 321.332 49.5C321.946 49.8636 322.454 50.3636 322.855 51C323.257 51.6288 323.457 52.4015 323.457 53.3182C323.457 54.2121 323.23 55.0114 322.776 55.7159C322.321 56.4205 321.67 56.9773 320.821 57.3864C319.973 57.7955 318.957 58 317.776 58H309.548ZM312.094 55.5455H317.776C318.7 55.5455 319.423 55.3258 319.946 54.8864C320.469 54.447 320.73 53.8485 320.73 53.0909C320.73 52.1894 320.469 51.4811 319.946 50.9659C319.423 50.4432 318.7 50.1818 317.776 50.1818H312.094V55.5455ZM312.094 47.8636H316.685C317.404 47.8636 318.022 47.7652 318.537 47.5682C319.052 47.3636 319.446 47.0758 319.719 46.7045C319.999 46.3258 320.139 45.8788 320.139 45.3636C320.139 44.6288 319.832 44.053 319.219 43.6364C318.605 43.2121 317.76 43 316.685 43H312.094V47.8636ZM325.972 58V55.5H326.608C327.131 55.5 327.566 55.3977 327.915 55.1932C328.263 54.9811 328.544 54.6136 328.756 54.0909C328.975 53.5606 329.142 52.8258 329.256 51.8864C329.377 50.9394 329.464 49.7348 329.517 48.2727L329.835 40.5455H341.472V58H338.79V43.0455H332.381L332.108 49.2727C332.047 50.7045 331.919 51.9659 331.722 53.0568C331.532 54.1402 331.241 55.0492 330.847 55.7841C330.46 56.5189 329.945 57.072 329.301 57.4432C328.657 57.8144 327.85 58 326.881 58H325.972ZM353.71 58.3636C352.028 58.3636 350.578 57.9924 349.358 57.25C348.146 56.5 347.21 55.4545 346.551 54.1136C345.9 52.7652 345.574 51.197 345.574 49.4091C345.574 47.6212 345.9 46.0455 346.551 44.6818C347.21 43.3106 348.127 42.2424 349.301 41.4773C350.483 40.7045 351.862 40.3182 353.438 40.3182C354.347 40.3182 355.244 40.4697 356.131 40.7727C357.017 41.0758 357.824 41.5682 358.551 42.25C359.278 42.9242 359.858 43.8182 360.29 44.9318C360.722 46.0455 360.938 47.4167 360.938 49.0455V50.1818H347.483V47.8636H358.21C358.21 46.8788 358.013 46 357.619 45.2273C357.233 44.4545 356.68 43.8447 355.96 43.3977C355.248 42.9508 354.407 42.7273 353.438 42.7273C352.369 42.7273 351.445 42.9924 350.665 43.5227C349.892 44.0455 349.297 44.7273 348.881 45.5682C348.464 46.4091 348.256 47.3106 348.256 48.2727V49.8182C348.256 51.1364 348.483 52.2538 348.938 53.1705C349.4 54.0795 350.04 54.7727 350.858 55.25C351.676 55.7197 352.627 55.9545 353.71 55.9545C354.415 55.9545 355.051 55.8561 355.619 55.6591C356.195 55.4545 356.691 55.1515 357.108 54.75C357.525 54.3409 357.847 53.8333 358.074 53.2273L360.665 53.9545C360.392 54.8333 359.934 55.6061 359.29 56.2727C358.646 56.9318 357.85 57.447 356.903 57.8182C355.956 58.1818 354.892 58.3636 353.71 58.3636ZM376.699 48.0455V50.5455H367.062V48.0455H376.699ZM367.699 40.5455V58H365.017V40.5455H367.699ZM378.744 40.5455V58H376.062V40.5455H378.744ZM386.324 54.0455L394.733 40.5455H397.824V58H395.142V44.5L386.778 58H383.642V40.5455H386.324V54.0455ZM410.054 58.3636C408.372 58.3636 406.921 57.9924 405.702 57.25C404.49 56.5 403.554 55.4545 402.895 54.1136C402.243 52.7652 401.918 51.197 401.918 49.4091C401.918 47.6212 402.243 46.0455 402.895 44.6818C403.554 43.3106 404.471 42.2424 405.645 41.4773C406.827 40.7045 408.205 40.3182 409.781 40.3182C410.69 40.3182 411.588 40.4697 412.474 40.7727C413.361 41.0758 414.168 41.5682 414.895 42.25C415.622 42.9242 416.202 43.8182 416.634 44.9318C417.065 46.0455 417.281 47.4167 417.281 49.0455V50.1818H403.827V47.8636H414.554C414.554 46.8788 414.357 46 413.963 45.2273C413.577 44.4545 413.024 43.8447 412.304 43.3977C411.592 42.9508 410.751 42.7273 409.781 42.7273C408.713 42.7273 407.789 42.9924 407.009 43.5227C406.236 44.0455 405.641 44.7273 405.224 45.5682C404.808 46.4091 404.599 47.3106 404.599 48.2727V49.8182C404.599 51.1364 404.827 52.2538 405.281 53.1705C405.743 54.0795 406.384 54.7727 407.202 55.25C408.02 55.7197 408.971 55.9545 410.054 55.9545C410.759 55.9545 411.395 55.8561 411.963 55.6591C412.539 55.4545 413.035 55.1515 413.452 54.75C413.868 54.3409 414.19 53.8333 414.418 53.2273L417.009 53.9545C416.736 54.8333 416.277 55.6061 415.634 56.2727C414.99 56.9318 414.194 57.447 413.247 57.8182C412.3 58.1818 411.236 58.3636 410.054 58.3636ZM135.783 97V79.5455H149.51V97H146.828V82.0455H138.464V97H135.783ZM161.726 97.3636C160.044 97.3636 158.593 96.9924 157.374 96.25C156.161 95.5 155.226 94.4545 154.567 93.1136C153.915 91.7652 153.589 90.197 153.589 88.4091C153.589 86.6212 153.915 85.0455 154.567 83.6818C155.226 82.3106 156.143 81.2424 157.317 80.4773C158.499 79.7045 159.877 79.3182 161.453 79.3182C162.362 79.3182 163.26 79.4697 164.146 79.7727C165.033 80.0758 165.839 80.5682 166.567 81.25C167.294 81.9242 167.874 82.8182 168.305 83.9318C168.737 85.0455 168.953 86.4167 168.953 88.0455V89.1818H155.499V86.8636H166.226C166.226 85.8788 166.029 85 165.635 84.2273C165.249 83.4545 164.696 82.8447 163.976 82.3977C163.264 81.9508 162.423 81.7273 161.453 81.7273C160.385 81.7273 159.461 81.9924 158.68 82.5227C157.908 83.0455 157.313 83.7273 156.896 84.5682C156.48 85.4091 156.271 86.3106 156.271 87.2727V88.8182C156.271 90.1364 156.499 91.2538 156.953 92.1705C157.415 93.0795 158.055 93.7727 158.874 94.25C159.692 94.7197 160.643 94.9545 161.726 94.9545C162.43 94.9545 163.067 94.8561 163.635 94.6591C164.211 94.4545 164.707 94.1515 165.124 93.75C165.54 93.3409 165.862 92.8333 166.089 92.2273L168.68 92.9545C168.408 93.8333 167.949 94.6061 167.305 95.2727C166.661 95.9318 165.866 96.447 164.919 96.8182C163.972 97.1818 162.908 97.3636 161.726 97.3636ZM173.033 103.545V79.5455H175.624V82.3182H175.942C176.139 82.0152 176.411 81.6288 176.76 81.1591C177.116 80.6818 177.624 80.2576 178.283 79.8864C178.949 79.5076 179.851 79.3182 180.987 79.3182C182.457 79.3182 183.752 79.6856 184.874 80.4205C185.995 81.1553 186.87 82.197 187.499 83.5455C188.127 84.8939 188.442 86.4848 188.442 88.3182C188.442 90.1667 188.127 91.7689 187.499 93.125C186.87 94.4735 185.999 95.5189 184.885 96.2614C183.771 96.9962 182.487 97.3636 181.033 97.3636C179.911 97.3636 179.014 97.178 178.339 96.8068C177.665 96.428 177.146 96 176.783 95.5227C176.419 95.0379 176.139 94.6364 175.942 94.3182H175.714V103.545H173.033ZM175.669 88.2727C175.669 89.5909 175.862 90.7538 176.249 91.7614C176.635 92.7614 177.199 93.5455 177.942 94.1136C178.684 94.6742 179.593 94.9545 180.669 94.9545C181.79 94.9545 182.726 94.6591 183.476 94.0682C184.233 93.4697 184.802 92.6667 185.18 91.6591C185.567 90.6439 185.76 89.5152 185.76 88.2727C185.76 87.0455 185.571 85.9394 185.192 84.9545C184.821 83.9621 184.256 83.178 183.499 82.6023C182.749 82.0189 181.805 81.7273 180.669 81.7273C179.578 81.7273 178.661 82.0038 177.919 82.5568C177.177 83.1023 176.616 83.8674 176.237 84.8523C175.858 85.8295 175.669 86.9697 175.669 88.2727ZM192.533 97V79.5455H199.669C201.548 79.5455 203.04 79.9697 204.146 80.8182C205.252 81.6667 205.805 82.7879 205.805 84.1818C205.805 85.2424 205.491 86.0644 204.862 86.6477C204.233 87.2235 203.427 87.6136 202.442 87.8182C203.086 87.9091 203.711 88.1364 204.317 88.5C204.93 88.8636 205.438 89.3636 205.839 90C206.241 90.6288 206.442 91.4015 206.442 92.3182C206.442 93.2121 206.214 94.0114 205.76 94.7159C205.305 95.4205 204.654 95.9773 203.805 96.3864C202.957 96.7955 201.942 97 200.76 97H192.533ZM195.078 94.5455H200.76C201.684 94.5455 202.408 94.3258 202.93 93.8864C203.453 93.447 203.714 92.8485 203.714 92.0909C203.714 91.1894 203.453 90.4811 202.93 89.9659C202.408 89.4432 201.684 89.1818 200.76 89.1818H195.078V94.5455ZM195.078 86.8636H199.669C200.389 86.8636 201.006 86.7652 201.521 86.5682C202.036 86.3636 202.43 86.0758 202.703 85.7045C202.983 85.3258 203.124 84.8788 203.124 84.3636C203.124 83.6288 202.817 83.053 202.203 82.6364C201.589 82.2121 200.745 82 199.669 82H195.078V86.8636ZM217.592 97.3636C216.017 97.3636 214.634 96.9886 213.445 96.2386C212.263 95.4886 211.339 94.4394 210.672 93.0909C210.013 91.7424 209.683 90.1667 209.683 88.3636C209.683 86.5455 210.013 84.9583 210.672 83.6023C211.339 82.2462 212.263 81.1932 213.445 80.4432C214.634 79.6932 216.017 79.3182 217.592 79.3182C219.168 79.3182 220.547 79.6932 221.729 80.4432C222.918 81.1932 223.842 82.2462 224.501 83.6023C225.168 84.9583 225.501 86.5455 225.501 88.3636C225.501 90.1667 225.168 91.7424 224.501 93.0909C223.842 94.4394 222.918 95.4886 221.729 96.2386C220.547 96.9886 219.168 97.3636 217.592 97.3636ZM217.592 94.9545C218.789 94.9545 219.774 94.6477 220.547 94.0341C221.32 93.4205 221.892 92.6136 222.263 91.6136C222.634 90.6136 222.82 89.5303 222.82 88.3636C222.82 87.197 222.634 86.1098 222.263 85.1023C221.892 84.0947 221.32 83.2803 220.547 82.6591C219.774 82.0379 218.789 81.7273 217.592 81.7273C216.395 81.7273 215.411 82.0379 214.638 82.6591C213.865 83.2803 213.293 84.0947 212.922 85.1023C212.551 86.1098 212.365 87.197 212.365 88.3636C212.365 89.5303 212.551 90.6136 212.922 91.6136C213.293 92.6136 213.865 93.4205 214.638 94.0341C215.411 94.6477 216.395 94.9545 217.592 94.9545ZM240.368 79.5455V82.0455H232.277V97H229.595V79.5455H240.368ZM250.467 97.3636C248.892 97.3636 247.509 96.9886 246.32 96.2386C245.138 95.4886 244.214 94.4394 243.547 93.0909C242.888 91.7424 242.558 90.1667 242.558 88.3636C242.558 86.5455 242.888 84.9583 243.547 83.6023C244.214 82.2462 245.138 81.1932 246.32 80.4432C247.509 79.6932 248.892 79.3182 250.467 79.3182C252.043 79.3182 253.422 79.6932 254.604 80.4432C255.793 81.1932 256.717 82.2462 257.376 83.6023C258.043 84.9583 258.376 86.5455 258.376 88.3636C258.376 90.1667 258.043 91.7424 257.376 93.0909C256.717 94.4394 255.793 95.4886 254.604 96.2386C253.422 96.9886 252.043 97.3636 250.467 97.3636ZM250.467 94.9545C251.664 94.9545 252.649 94.6477 253.422 94.0341C254.195 93.4205 254.767 92.6136 255.138 91.6136C255.509 90.6136 255.695 89.5303 255.695 88.3636C255.695 87.197 255.509 86.1098 255.138 85.1023C254.767 84.0947 254.195 83.2803 253.422 82.6591C252.649 82.0379 251.664 81.7273 250.467 81.7273C249.27 81.7273 248.286 82.0379 247.513 82.6591C246.74 83.2803 246.168 84.0947 245.797 85.1023C245.426 86.1098 245.24 87.197 245.24 88.3636C245.24 89.5303 245.426 90.6136 245.797 91.6136C246.168 92.6136 246.74 93.4205 247.513 94.0341C248.286 94.6477 249.27 94.9545 250.467 94.9545ZM282.243 79.5455V82.0455H274.152V97H271.47V79.5455H282.243ZM290.388 97.4091C289.282 97.4091 288.278 97.2008 287.376 96.7841C286.475 96.3598 285.759 95.75 285.229 94.9545C284.698 94.1515 284.433 93.1818 284.433 92.0455C284.433 91.0455 284.63 90.2348 285.024 89.6136C285.418 88.9848 285.945 88.4924 286.604 88.1364C287.263 87.7803 287.99 87.5152 288.786 87.3409C289.589 87.1591 290.395 87.0152 291.206 86.9091C292.267 86.7727 293.126 86.6705 293.786 86.6023C294.452 86.5265 294.937 86.4015 295.24 86.2273C295.551 86.053 295.706 85.75 295.706 85.3182V85.2273C295.706 84.1061 295.399 83.2348 294.786 82.6136C294.179 81.9924 293.259 81.6818 292.024 81.6818C290.744 81.6818 289.74 81.9621 289.013 82.5227C288.286 83.0833 287.774 83.6818 287.479 84.3182L284.933 83.4091C285.388 82.3485 285.994 81.5227 286.751 80.9318C287.517 80.3333 288.35 79.9167 289.251 79.6818C290.161 79.4394 291.054 79.3182 291.933 79.3182C292.494 79.3182 293.138 79.3864 293.865 79.5227C294.6 79.6515 295.308 79.9205 295.99 80.3295C296.679 80.7386 297.251 81.3561 297.706 82.1818C298.161 83.0076 298.388 84.1136 298.388 85.5V97H295.706V94.6364H295.57C295.388 95.0152 295.085 95.4205 294.661 95.8523C294.236 96.2841 293.672 96.6515 292.967 96.9545C292.263 97.2576 291.403 97.4091 290.388 97.4091ZM290.797 95C291.857 95 292.751 94.7917 293.479 94.375C294.214 93.9583 294.767 93.4205 295.138 92.7614C295.517 92.1023 295.706 91.4091 295.706 90.6818V88.2273C295.592 88.3636 295.342 88.4886 294.956 88.6023C294.577 88.7083 294.138 88.803 293.638 88.8864C293.145 88.9621 292.664 89.0303 292.195 89.0909C291.732 89.1439 291.357 89.1894 291.07 89.2273C290.373 89.3182 289.721 89.4659 289.115 89.6705C288.517 89.8674 288.032 90.1667 287.661 90.5682C287.297 90.9621 287.115 91.5 287.115 92.1818C287.115 93.1136 287.46 93.8182 288.149 94.2955C288.846 94.7652 289.729 95 290.797 95ZM302.192 92.5455H305.055C305.116 93.3333 305.472 93.9318 306.124 94.3409C306.783 94.75 307.639 94.9545 308.692 94.9545C309.768 94.9545 310.688 94.7348 311.453 94.2955C312.218 93.8485 312.601 93.1288 312.601 92.1364C312.601 91.553 312.457 91.0455 312.169 90.6136C311.881 90.1742 311.476 89.8333 310.953 89.5909C310.43 89.3485 309.813 89.2273 309.101 89.2273H306.101V86.8182H309.101C310.169 86.8182 310.957 86.5758 311.464 86.0909C311.98 85.6061 312.237 85 312.237 84.2727C312.237 83.4924 311.961 82.8674 311.408 82.3977C310.855 81.9205 310.071 81.6818 309.055 81.6818C308.033 81.6818 307.18 81.9129 306.499 82.375C305.817 82.8295 305.457 83.4167 305.419 84.1364H302.601C302.631 83.197 302.919 82.3674 303.464 81.6477C304.01 80.9205 304.752 80.3523 305.692 79.9432C306.631 79.5265 307.707 79.3182 308.919 79.3182C310.146 79.3182 311.211 79.5341 312.112 79.9659C313.021 80.3902 313.722 80.9697 314.214 81.7045C314.714 82.4318 314.964 83.2576 314.964 84.1818C314.964 85.1667 314.688 85.9621 314.135 86.5682C313.582 87.1742 312.889 87.6061 312.055 87.8636V88.0455C312.714 88.0909 313.286 88.303 313.771 88.6818C314.264 89.053 314.646 89.5417 314.919 90.1477C315.192 90.7462 315.328 91.4091 315.328 92.1364C315.328 93.197 315.044 94.1212 314.476 94.9091C313.908 95.6894 313.127 96.2955 312.135 96.7273C311.143 97.1515 310.01 97.3636 308.737 97.3636C307.502 97.3636 306.396 97.1629 305.419 96.7614C304.442 96.3523 303.665 95.7879 303.089 95.0682C302.521 94.3409 302.222 93.5 302.192 92.5455ZM324.232 97.4091C323.125 97.4091 322.122 97.2008 321.22 96.7841C320.319 96.3598 319.603 95.75 319.072 94.9545C318.542 94.1515 318.277 93.1818 318.277 92.0455C318.277 91.0455 318.474 90.2348 318.868 89.6136C319.262 88.9848 319.788 88.4924 320.447 88.1364C321.107 87.7803 321.834 87.5152 322.629 87.3409C323.432 87.1591 324.239 87.0152 325.05 86.9091C326.11 86.7727 326.97 86.6705 327.629 86.6023C328.296 86.5265 328.781 86.4015 329.084 86.2273C329.394 86.053 329.55 85.75 329.55 85.3182V85.2273C329.55 84.1061 329.243 83.2348 328.629 82.6136C328.023 81.9924 327.103 81.6818 325.868 81.6818C324.588 81.6818 323.584 81.9621 322.857 82.5227C322.129 83.0833 321.618 83.6818 321.322 84.3182L318.777 83.4091C319.232 82.3485 319.838 81.5227 320.595 80.9318C321.36 80.3333 322.194 79.9167 323.095 79.6818C324.004 79.4394 324.898 79.3182 325.777 79.3182C326.338 79.3182 326.982 79.3864 327.709 79.5227C328.444 79.6515 329.152 79.9205 329.834 80.3295C330.523 80.7386 331.095 81.3561 331.55 82.1818C332.004 83.0076 332.232 84.1136 332.232 85.5V97H329.55V94.6364H329.413C329.232 95.0152 328.929 95.4205 328.504 95.8523C328.08 96.2841 327.516 96.6515 326.811 96.9545C326.107 97.2576 325.247 97.4091 324.232 97.4091ZM324.641 95C325.701 95 326.595 94.7917 327.322 94.375C328.057 93.9583 328.61 93.4205 328.982 92.7614C329.36 92.1023 329.55 91.4091 329.55 90.6818V88.2273C329.436 88.3636 329.186 88.4886 328.8 88.6023C328.421 88.7083 327.982 88.803 327.482 88.8864C326.989 88.9621 326.508 89.0303 326.038 89.0909C325.576 89.1439 325.201 89.1894 324.913 89.2273C324.216 89.3182 323.565 89.4659 322.959 89.6705C322.36 89.8674 321.875 90.1667 321.504 90.5682C321.141 90.9621 320.959 91.5 320.959 92.1818C320.959 93.1136 321.304 93.8182 321.993 94.2955C322.69 94.7652 323.572 95 324.641 95Z" fill="black"/>
<path d="M621.655 42H618.837C618.67 41.1894 618.378 40.4773 617.962 39.8636C617.553 39.25 617.053 38.7348 616.462 38.3182C615.878 37.8939 615.231 37.5758 614.518 37.3636C613.806 37.1515 613.064 37.0455 612.291 37.0455C610.882 37.0455 609.606 37.4015 608.462 38.1136C607.325 38.8258 606.42 39.875 605.746 41.2614C605.079 42.6477 604.746 44.3485 604.746 46.3636C604.746 48.3788 605.079 50.0795 605.746 51.4659C606.42 52.8523 607.325 53.9015 608.462 54.6136C609.606 55.3258 610.882 55.6818 612.291 55.6818C613.064 55.6818 613.806 55.5758 614.518 55.3636C615.231 55.1515 615.878 54.8371 616.462 54.4205C617.053 53.9962 617.553 53.4773 617.962 52.8636C618.378 52.2424 618.67 51.5303 618.837 50.7273H621.655C621.443 51.9167 621.056 52.9811 620.496 53.9205C619.935 54.8598 619.238 55.6591 618.405 56.3182C617.571 56.9697 616.636 57.4659 615.598 57.8068C614.568 58.1477 613.465 58.3182 612.291 58.3182C610.306 58.3182 608.541 57.8333 606.996 56.8636C605.45 55.8939 604.234 54.5152 603.348 52.7273C602.462 50.9394 602.018 48.8182 602.018 46.3636C602.018 43.9091 602.462 41.7879 603.348 40C604.234 38.2121 605.45 36.8333 606.996 35.8636C608.541 34.8939 610.306 34.4091 612.291 34.4091C613.465 34.4091 614.568 34.5795 615.598 34.9205C616.636 35.2614 617.571 35.7614 618.405 36.4205C619.238 37.072 619.935 37.8674 620.496 38.8068C621.056 39.7386 621.443 40.803 621.655 42ZM627.572 64.5455C627.118 64.5455 626.713 64.5076 626.357 64.4318C626 64.3636 625.754 64.2955 625.618 64.2273L626.3 61.8636C626.951 62.0303 627.527 62.0909 628.027 62.0455C628.527 62 628.97 61.7765 629.357 61.375C629.75 60.9811 630.11 60.3409 630.436 59.4545L630.936 58.0909L624.482 40.5455H627.391L632.209 54.4545H632.391L637.209 40.5455H640.118L632.709 60.5455C632.375 61.447 631.963 62.1932 631.47 62.7841C630.978 63.3826 630.406 63.8258 629.754 64.1136C629.11 64.4015 628.383 64.5455 627.572 64.5455ZM653.203 54.3636L659.294 40.5455H661.839L654.294 58H652.112L644.703 40.5455H647.203L653.203 54.3636ZM646.339 40.5455V58H643.658V40.5455H646.339ZM660.067 58V40.5455H662.749V58H660.067ZM677.203 54.3636L683.294 40.5455H685.839L678.294 58H676.112L668.703 40.5455H671.203L677.203 54.3636ZM670.339 40.5455V58H667.658V40.5455H670.339ZM684.067 58V40.5455H686.749V58H684.067ZM696.794 58.4091C695.688 58.4091 694.684 58.2008 693.783 57.7841C692.881 57.3598 692.165 56.75 691.635 55.9545C691.105 55.1515 690.839 54.1818 690.839 53.0455C690.839 52.0455 691.036 51.2348 691.43 50.6136C691.824 49.9848 692.351 49.4924 693.01 49.1364C693.669 48.7803 694.396 48.5152 695.192 48.3409C695.995 48.1591 696.802 48.0152 697.612 47.9091C698.673 47.7727 699.533 47.6705 700.192 47.6023C700.858 47.5265 701.343 47.4015 701.646 47.2273C701.957 47.053 702.112 46.75 702.112 46.3182V46.2273C702.112 45.1061 701.805 44.2348 701.192 43.6136C700.586 42.9924 699.665 42.6818 698.43 42.6818C697.15 42.6818 696.146 42.9621 695.419 43.5227C694.692 44.0833 694.18 44.6818 693.885 45.3182L691.339 44.4091C691.794 43.3485 692.4 42.5227 693.158 41.9318C693.923 41.3333 694.756 40.9167 695.658 40.6818C696.567 40.4394 697.461 40.3182 698.339 40.3182C698.9 40.3182 699.544 40.3864 700.271 40.5227C701.006 40.6515 701.714 40.9205 702.396 41.3295C703.086 41.7386 703.658 42.3561 704.112 43.1818C704.567 44.0076 704.794 45.1136 704.794 46.5V58H702.112V55.6364H701.976C701.794 56.0152 701.491 56.4205 701.067 56.8523C700.643 57.2841 700.078 57.6515 699.374 57.9545C698.669 58.2576 697.809 58.4091 696.794 58.4091ZM697.203 56C698.264 56 699.158 55.7917 699.885 55.375C700.62 54.9583 701.173 54.4205 701.544 53.7614C701.923 53.1023 702.112 52.4091 702.112 51.6818V49.2273C701.999 49.3636 701.749 49.4886 701.362 49.6023C700.983 49.7083 700.544 49.803 700.044 49.8864C699.552 49.9621 699.071 50.0303 698.601 50.0909C698.139 50.1439 697.764 50.1894 697.476 50.2273C696.779 50.3182 696.127 50.4659 695.521 50.6705C694.923 50.8674 694.438 51.1667 694.067 51.5682C693.703 51.9621 693.521 52.5 693.521 53.1818C693.521 54.1136 693.866 54.8182 694.555 55.2955C695.252 55.7652 696.135 56 697.203 56ZM709.689 64.5455V40.5455H712.28V43.3182H712.598C712.795 43.0152 713.068 42.6288 713.416 42.1591C713.772 41.6818 714.28 41.2576 714.939 40.8864C715.606 40.5076 716.507 40.3182 717.643 40.3182C719.113 40.3182 720.409 40.6856 721.53 41.4205C722.651 42.1553 723.526 43.197 724.155 44.5455C724.784 45.8939 725.098 47.4848 725.098 49.3182C725.098 51.1667 724.784 52.7689 724.155 54.125C723.526 55.4735 722.655 56.5189 721.541 57.2614C720.428 57.9962 719.143 58.3636 717.689 58.3636C716.568 58.3636 715.67 58.178 714.996 57.8068C714.321 57.428 713.803 57 713.439 56.5227C713.075 56.0379 712.795 55.6364 712.598 55.3182H712.371V64.5455H709.689ZM712.325 49.2727C712.325 50.5909 712.518 51.7538 712.905 52.7614C713.291 53.7614 713.856 54.5455 714.598 55.1136C715.34 55.6742 716.25 55.9545 717.325 55.9545C718.446 55.9545 719.382 55.6591 720.132 55.0682C720.89 54.4697 721.458 53.6667 721.837 52.6591C722.223 51.6439 722.416 50.5152 722.416 49.2727C722.416 48.0455 722.227 46.9394 721.848 45.9545C721.477 44.9621 720.912 44.178 720.155 43.6023C719.405 43.0189 718.462 42.7273 717.325 42.7273C716.234 42.7273 715.318 43.0038 714.575 43.5568C713.833 44.1023 713.272 44.8674 712.893 45.8523C712.515 46.8295 712.325 47.9697 712.325 49.2727ZM740.871 48.0455V50.5455H731.234V48.0455H740.871ZM731.871 40.5455V58H729.189V40.5455H731.871ZM742.916 40.5455V58H740.234V40.5455H742.916ZM754.905 58.3636C753.329 58.3636 751.946 57.9886 750.757 57.2386C749.575 56.4886 748.651 55.4394 747.984 54.0909C747.325 52.7424 746.996 51.1667 746.996 49.3636C746.996 47.5455 747.325 45.9583 747.984 44.6023C748.651 43.2462 749.575 42.1932 750.757 41.4432C751.946 40.6932 753.329 40.3182 754.905 40.3182C756.481 40.3182 757.859 40.6932 759.041 41.4432C760.231 42.1932 761.155 43.2462 761.814 44.6023C762.481 45.9583 762.814 47.5455 762.814 49.3636C762.814 51.1667 762.481 52.7424 761.814 54.0909C761.155 55.4394 760.231 56.4886 759.041 57.2386C757.859 57.9886 756.481 58.3636 754.905 58.3636ZM754.905 55.9545C756.102 55.9545 757.087 55.6477 757.859 55.0341C758.632 54.4205 759.204 53.6136 759.575 52.6136C759.946 51.6136 760.132 50.5303 760.132 49.3636C760.132 48.197 759.946 47.1098 759.575 46.1023C759.204 45.0947 758.632 44.2803 757.859 43.6591C757.087 43.0379 756.102 42.7273 754.905 42.7273C753.708 42.7273 752.723 43.0379 751.95 43.6591C751.178 44.2803 750.606 45.0947 750.234 46.1023C749.863 47.1098 749.678 48.197 749.678 49.3636C749.678 50.5303 749.863 51.6136 750.234 52.6136C750.606 53.6136 751.178 54.4205 751.95 55.0341C752.723 55.6477 753.708 55.9545 754.905 55.9545ZM774.226 58.3636C772.544 58.3636 771.093 57.9924 769.874 57.25C768.661 56.5 767.726 55.4545 767.067 54.1136C766.415 52.7652 766.089 51.197 766.089 49.4091C766.089 47.6212 766.415 46.0455 767.067 44.6818C767.726 43.3106 768.643 42.2424 769.817 41.4773C770.999 40.7045 772.377 40.3182 773.953 40.3182C774.862 40.3182 775.76 40.4697 776.646 40.7727C777.533 41.0758 778.339 41.5682 779.067 42.25C779.794 42.9242 780.374 43.8182 780.805 44.9318C781.237 46.0455 781.453 47.4167 781.453 49.0455V50.1818H767.999V47.8636H778.726C778.726 46.8788 778.529 46 778.135 45.2273C777.749 44.4545 777.196 43.8447 776.476 43.3977C775.764 42.9508 774.923 42.7273 773.953 42.7273C772.885 42.7273 771.961 42.9924 771.18 43.5227C770.408 44.0455 769.813 44.7273 769.396 45.5682C768.98 46.4091 768.771 47.3106 768.771 48.2727V49.8182C768.771 51.1364 768.999 52.2538 769.453 53.1705C769.915 54.0795 770.555 54.7727 771.374 55.25C772.192 55.7197 773.143 55.9545 774.226 55.9545C774.93 55.9545 775.567 55.8561 776.135 55.6591C776.711 55.4545 777.207 55.1515 777.624 54.75C778.04 54.3409 778.362 53.8333 778.589 53.2273L781.18 53.9545C780.908 54.8333 780.449 55.6061 779.805 56.2727C779.161 56.9318 778.366 57.447 777.419 57.8182C776.472 58.1818 775.408 58.3636 774.226 58.3636ZM792.669 63V55.5H794.124C794.48 55.1288 794.786 54.7273 795.044 54.2955C795.302 53.8636 795.525 53.3523 795.714 52.7614C795.911 52.1629 796.078 51.4356 796.214 50.5795C796.351 49.7159 796.472 48.6742 796.578 47.4545L797.169 40.5455H808.26V55.5H810.942V63H808.26V58H795.351V63H792.669ZM797.169 55.5H805.578V43.0455H799.669L799.214 47.4545C799.025 49.2803 798.79 50.875 798.51 52.2386C798.23 53.6023 797.783 54.6894 797.169 55.5ZM819.638 58.4091C818.532 58.4091 817.528 58.2008 816.626 57.7841C815.725 57.3598 815.009 56.75 814.479 55.9545C813.948 55.1515 813.683 54.1818 813.683 53.0455C813.683 52.0455 813.88 51.2348 814.274 50.6136C814.668 49.9848 815.195 49.4924 815.854 49.1364C816.513 48.7803 817.24 48.5152 818.036 48.3409C818.839 48.1591 819.645 48.0152 820.456 47.9091C821.517 47.7727 822.376 47.6705 823.036 47.6023C823.702 47.5265 824.187 47.4015 824.49 47.2273C824.801 47.053 824.956 46.75 824.956 46.3182V46.2273C824.956 45.1061 824.649 44.2348 824.036 43.6136C823.429 42.9924 822.509 42.6818 821.274 42.6818C819.994 42.6818 818.99 42.9621 818.263 43.5227C817.536 44.0833 817.024 44.6818 816.729 45.3182L814.183 44.4091C814.638 43.3485 815.244 42.5227 816.001 41.9318C816.767 41.3333 817.6 40.9167 818.501 40.6818C819.411 40.4394 820.304 40.3182 821.183 40.3182C821.744 40.3182 822.388 40.3864 823.115 40.5227C823.85 40.6515 824.558 40.9205 825.24 41.3295C825.929 41.7386 826.501 42.3561 826.956 43.1818C827.411 44.0076 827.638 45.1136 827.638 46.5V58H824.956V55.6364H824.82C824.638 56.0152 824.335 56.4205 823.911 56.8523C823.486 57.2841 822.922 57.6515 822.217 57.9545C821.513 58.2576 820.653 58.4091 819.638 58.4091ZM820.047 56C821.107 56 822.001 55.7917 822.729 55.375C823.464 54.9583 824.017 54.4205 824.388 53.7614C824.767 53.1023 824.956 52.4091 824.956 51.6818V49.2273C824.842 49.3636 824.592 49.4886 824.206 49.6023C823.827 49.7083 823.388 49.803 822.888 49.8864C822.395 49.9621 821.914 50.0303 821.445 50.0909C820.982 50.1439 820.607 50.1894 820.32 50.2273C819.623 50.3182 818.971 50.4659 818.365 50.6705C817.767 50.8674 817.282 51.1667 816.911 51.5682C816.547 51.9621 816.365 52.5 816.365 53.1818C816.365 54.1136 816.71 54.8182 817.399 55.2955C818.096 55.7652 818.979 56 820.047 56ZM832.533 58V40.5455H839.669C841.548 40.5455 843.04 40.9697 844.146 41.8182C845.252 42.6667 845.805 43.7879 845.805 45.1818C845.805 46.2424 845.491 47.0644 844.862 47.6477C844.233 48.2235 843.427 48.6136 842.442 48.8182C843.086 48.9091 843.711 49.1364 844.317 49.5C844.93 49.8636 845.438 50.3636 845.839 51C846.241 51.6288 846.442 52.4015 846.442 53.3182C846.442 54.2121 846.214 55.0114 845.76 55.7159C845.305 56.4205 844.654 56.9773 843.805 57.3864C842.957 57.7955 841.942 58 840.76 58H832.533ZM835.078 55.5455H840.76C841.684 55.5455 842.408 55.3258 842.93 54.8864C843.453 54.447 843.714 53.8485 843.714 53.0909C843.714 52.1894 843.453 51.4811 842.93 50.9659C842.408 50.4432 841.684 50.1818 840.76 50.1818H835.078V55.5455ZM835.078 47.8636H839.669C840.389 47.8636 841.006 47.7652 841.521 47.5682C842.036 47.3636 842.43 47.0758 842.703 46.7045C842.983 46.3258 843.124 45.8788 843.124 45.3636C843.124 44.6288 842.817 44.053 842.203 43.6364C841.589 43.2121 840.745 43 839.669 43H835.078V47.8636ZM848.956 58V55.5H849.592C850.115 55.5 850.551 55.3977 850.899 55.1932C851.248 54.9811 851.528 54.6136 851.74 54.0909C851.96 53.5606 852.126 52.8258 852.24 51.8864C852.361 50.9394 852.448 49.7348 852.501 48.2727L852.82 40.5455H864.456V58H861.774V43.0455H855.365L855.092 49.2727C855.032 50.7045 854.903 51.9659 854.706 53.0568C854.517 54.1402 854.225 55.0492 853.831 55.7841C853.445 56.5189 852.929 57.072 852.286 57.4432C851.642 57.8144 850.835 58 849.865 58H848.956ZM876.695 58.3636C875.013 58.3636 873.562 57.9924 872.342 57.25C871.13 56.5 870.195 55.4545 869.536 54.1136C868.884 52.7652 868.558 51.197 868.558 49.4091C868.558 47.6212 868.884 46.0455 869.536 44.6818C870.195 43.3106 871.111 42.2424 872.286 41.4773C873.467 40.7045 874.846 40.3182 876.422 40.3182C877.331 40.3182 878.229 40.4697 879.115 40.7727C880.001 41.0758 880.808 41.5682 881.536 42.25C882.263 42.9242 882.842 43.8182 883.274 44.9318C883.706 46.0455 883.922 47.4167 883.922 49.0455V50.1818H870.467V47.8636H881.195C881.195 46.8788 880.998 46 880.604 45.2273C880.217 44.4545 879.664 43.8447 878.945 43.3977C878.232 42.9508 877.392 42.7273 876.422 42.7273C875.354 42.7273 874.429 42.9924 873.649 43.5227C872.876 44.0455 872.282 44.7273 871.865 45.5682C871.448 46.4091 871.24 47.3106 871.24 48.2727V49.8182C871.24 51.1364 871.467 52.2538 871.922 53.1705C872.384 54.0795 873.024 54.7727 873.842 55.25C874.661 55.7197 875.611 55.9545 876.695 55.9545C877.399 55.9545 878.036 55.8561 878.604 55.6591C879.179 55.4545 879.676 55.1515 880.092 54.75C880.509 54.3409 880.831 53.8333 881.058 53.2273L883.649 53.9545C883.376 54.8333 882.918 55.6061 882.274 56.2727C881.63 56.9318 880.835 57.447 879.888 57.8182C878.941 58.1818 877.876 58.3636 876.695 58.3636ZM899.683 48.0455V50.5455H890.047V48.0455H899.683ZM890.683 40.5455V58H888.001V40.5455H890.683ZM901.729 40.5455V58H899.047V40.5455H901.729ZM909.308 54.0455L917.717 40.5455H920.808V58H918.126V44.5L909.763 58H906.626V40.5455H909.308V54.0455ZM933.038 58.3636C931.357 58.3636 929.906 57.9924 928.686 57.25C927.474 56.5 926.538 55.4545 925.879 54.1136C925.228 52.7652 924.902 51.197 924.902 49.4091C924.902 47.6212 925.228 46.0455 925.879 44.6818C926.538 43.3106 927.455 42.2424 928.629 41.4773C929.811 40.7045 931.19 40.3182 932.766 40.3182C933.675 40.3182 934.572 40.4697 935.459 40.7727C936.345 41.0758 937.152 41.5682 937.879 42.25C938.607 42.9242 939.186 43.8182 939.618 44.9318C940.05 46.0455 940.266 47.4167 940.266 49.0455V50.1818H926.811V47.8636H937.538C937.538 46.8788 937.341 46 936.947 45.2273C936.561 44.4545 936.008 43.8447 935.288 43.3977C934.576 42.9508 933.735 42.7273 932.766 42.7273C931.697 42.7273 930.773 42.9924 929.993 43.5227C929.22 44.0455 928.625 44.7273 928.209 45.5682C927.792 46.4091 927.584 47.3106 927.584 48.2727V49.8182C927.584 51.1364 927.811 52.2538 928.266 53.1705C928.728 54.0795 929.368 54.7727 930.186 55.25C931.004 55.7197 931.955 55.9545 933.038 55.9545C933.743 55.9545 934.379 55.8561 934.947 55.6591C935.523 55.4545 936.019 55.1515 936.436 54.75C936.853 54.3409 937.175 53.8333 937.402 53.2273L939.993 53.9545C939.72 54.8333 939.262 55.6061 938.618 56.2727C937.974 56.9318 937.179 57.447 936.232 57.8182C935.285 58.1818 934.22 58.3636 933.038 58.3636ZM684.967 97.3636C683.331 97.3636 681.922 96.9773 680.74 96.2045C679.558 95.4318 678.649 94.3674 678.013 93.0114C677.376 91.6553 677.058 90.1061 677.058 88.3636C677.058 86.5909 677.384 85.0265 678.036 83.6705C678.695 82.3068 679.611 81.2424 680.786 80.4773C681.967 79.7045 683.346 79.3182 684.922 79.3182C686.149 79.3182 687.255 79.5455 688.24 80C689.225 80.4545 690.032 81.0909 690.661 81.9091C691.289 82.7273 691.679 83.6818 691.831 84.7727H689.149C688.945 83.9773 688.49 83.2727 687.786 82.6591C687.089 82.0379 686.149 81.7273 684.967 81.7273C683.922 81.7273 683.005 82 682.217 82.5455C681.437 83.0833 680.827 83.8447 680.388 84.8295C679.956 85.8068 679.74 86.9545 679.74 88.2727C679.74 89.6212 679.952 90.7955 680.376 91.7955C680.808 92.7955 681.414 93.572 682.195 94.125C682.982 94.678 683.907 94.9545 684.967 94.9545C685.664 94.9545 686.297 94.8333 686.865 94.5909C687.433 94.3485 687.914 94 688.308 93.5455C688.702 93.0909 688.982 92.5455 689.149 91.9091H691.831C691.679 92.9394 691.304 93.8674 690.706 94.6932C690.115 95.5114 689.331 96.1629 688.354 96.6477C687.384 97.125 686.255 97.3636 684.967 97.3636ZM705.297 93.3636L711.388 79.5455H713.933L706.388 97H704.206L696.797 79.5455H699.297L705.297 93.3636ZM698.433 79.5455V97H695.751V79.5455H698.433ZM712.161 97V79.5455H714.842V97H712.161ZM727.07 97.3636C725.388 97.3636 723.937 96.9924 722.717 96.25C721.505 95.5 720.57 94.4545 719.911 93.1136C719.259 91.7652 718.933 90.197 718.933 88.4091C718.933 86.6212 719.259 85.0455 719.911 83.6818C720.57 82.3106 721.486 81.2424 722.661 80.4773C723.842 79.7045 725.221 79.3182 726.797 79.3182C727.706 79.3182 728.604 79.4697 729.49 79.7727C730.376 80.0758 731.183 80.5682 731.911 81.25C732.638 81.9242 733.217 82.8182 733.649 83.9318C734.081 85.0455 734.297 86.4167 734.297 88.0455V89.1818H720.842V86.8636H731.57C731.57 85.8788 731.373 85 730.979 84.2273C730.592 83.4545 730.039 82.8447 729.32 82.3977C728.607 81.9508 727.767 81.7273 726.797 81.7273C725.729 81.7273 724.804 81.9924 724.024 82.5227C723.251 83.0455 722.657 83.7273 722.24 84.5682C721.823 85.4091 721.615 86.3106 721.615 87.2727V88.8182C721.615 90.1364 721.842 91.2538 722.297 92.1705C722.759 93.0795 723.399 93.7727 724.217 94.25C725.036 94.7197 725.986 94.9545 727.07 94.9545C727.774 94.9545 728.411 94.8561 728.979 94.6591C729.554 94.4545 730.051 94.1515 730.467 93.75C730.884 93.3409 731.206 92.8333 731.433 92.2273L734.024 92.9545C733.751 93.8333 733.293 94.6061 732.649 95.2727C732.005 95.9318 731.21 96.447 730.263 96.8182C729.316 97.1818 728.251 97.3636 727.07 97.3636ZM745.467 97.3636C743.831 97.3636 742.422 96.9773 741.24 96.2045C740.058 95.4318 739.149 94.3674 738.513 93.0114C737.876 91.6553 737.558 90.1061 737.558 88.3636C737.558 86.5909 737.884 85.0265 738.536 83.6705C739.195 82.3068 740.111 81.2424 741.286 80.4773C742.467 79.7045 743.846 79.3182 745.422 79.3182C746.649 79.3182 747.755 79.5455 748.74 80C749.725 80.4545 750.532 81.0909 751.161 81.9091C751.789 82.7273 752.179 83.6818 752.331 84.7727H749.649C749.445 83.9773 748.99 83.2727 748.286 82.6591C747.589 82.0379 746.649 81.7273 745.467 81.7273C744.422 81.7273 743.505 82 742.717 82.5455C741.937 83.0833 741.327 83.8447 740.888 84.8295C740.456 85.8068 740.24 86.9545 740.24 88.2727C740.24 89.6212 740.452 90.7955 740.876 91.7955C741.308 92.7955 741.914 93.572 742.695 94.125C743.482 94.678 744.407 94.9545 745.467 94.9545C746.164 94.9545 746.797 94.8333 747.365 94.5909C747.933 94.3485 748.414 94 748.808 93.5455C749.202 93.0909 749.482 92.5455 749.649 91.9091H752.331C752.179 92.9394 751.804 93.8674 751.206 94.6932C750.615 95.5114 749.831 96.1629 748.854 96.6477C747.884 97.125 746.755 97.3636 745.467 97.3636ZM758.933 93.0455L767.342 79.5455H770.433V97H767.751V83.5L759.388 97H756.251V79.5455H758.933V93.0455ZM795.118 79.5455V82.0455H787.027V97H784.345V79.5455H795.118ZM803.263 97.4091C802.157 97.4091 801.153 97.2008 800.251 96.7841C799.35 96.3598 798.634 95.75 798.104 94.9545C797.573 94.1515 797.308 93.1818 797.308 92.0455C797.308 91.0455 797.505 90.2348 797.899 89.6136C798.293 88.9848 798.82 88.4924 799.479 88.1364C800.138 87.7803 800.865 87.5152 801.661 87.3409C802.464 87.1591 803.27 87.0152 804.081 86.9091C805.142 86.7727 806.001 86.6705 806.661 86.6023C807.327 86.5265 807.812 86.4015 808.115 86.2273C808.426 86.053 808.581 85.75 808.581 85.3182V85.2273C808.581 84.1061 808.274 83.2348 807.661 82.6136C807.054 81.9924 806.134 81.6818 804.899 81.6818C803.619 81.6818 802.615 81.9621 801.888 82.5227C801.161 83.0833 800.649 83.6818 800.354 84.3182L797.808 83.4091C798.263 82.3485 798.869 81.5227 799.626 80.9318C800.392 80.3333 801.225 79.9167 802.126 79.6818C803.036 79.4394 803.929 79.3182 804.808 79.3182C805.369 79.3182 806.013 79.3864 806.74 79.5227C807.475 79.6515 808.183 79.9205 808.865 80.3295C809.554 80.7386 810.126 81.3561 810.581 82.1818C811.036 83.0076 811.263 84.1136 811.263 85.5V97H808.581V94.6364H808.445C808.263 95.0152 807.96 95.4205 807.536 95.8523C807.111 96.2841 806.547 96.6515 805.842 96.9545C805.138 97.2576 804.278 97.4091 803.263 97.4091ZM803.672 95C804.732 95 805.626 94.7917 806.354 94.375C807.089 93.9583 807.642 93.4205 808.013 92.7614C808.392 92.1023 808.581 91.4091 808.581 90.6818V88.2273C808.467 88.3636 808.217 88.4886 807.831 88.6023C807.452 88.7083 807.013 88.803 806.513 88.8864C806.02 88.9621 805.539 89.0303 805.07 89.0909C804.607 89.1439 804.232 89.1894 803.945 89.2273C803.248 89.3182 802.596 89.4659 801.99 89.6705C801.392 89.8674 800.907 90.1667 800.536 90.5682C800.172 90.9621 799.99 91.5 799.99 92.1818C799.99 93.1136 800.335 93.8182 801.024 94.2955C801.721 94.7652 802.604 95 803.672 95ZM815.067 92.5455H817.93C817.991 93.3333 818.347 93.9318 818.999 94.3409C819.658 94.75 820.514 94.9545 821.567 94.9545C822.643 94.9545 823.563 94.7348 824.328 94.2955C825.093 93.8485 825.476 93.1288 825.476 92.1364C825.476 91.553 825.332 91.0455 825.044 90.6136C824.756 90.1742 824.351 89.8333 823.828 89.5909C823.305 89.3485 822.688 89.2273 821.976 89.2273H818.976V86.8182H821.976C823.044 86.8182 823.832 86.5758 824.339 86.0909C824.855 85.6061 825.112 85 825.112 84.2727C825.112 83.4924 824.836 82.8674 824.283 82.3977C823.73 81.9205 822.946 81.6818 821.93 81.6818C820.908 81.6818 820.055 81.9129 819.374 82.375C818.692 82.8295 818.332 83.4167 818.294 84.1364H815.476C815.506 83.197 815.794 82.3674 816.339 81.6477C816.885 80.9205 817.627 80.3523 818.567 79.9432C819.506 79.5265 820.582 79.3182 821.794 79.3182C823.021 79.3182 824.086 79.5341 824.987 79.9659C825.896 80.3902 826.597 80.9697 827.089 81.7045C827.589 82.4318 827.839 83.2576 827.839 84.1818C827.839 85.1667 827.563 85.9621 827.01 86.5682C826.457 87.1742 825.764 87.6061 824.93 87.8636V88.0455C825.589 88.0909 826.161 88.303 826.646 88.6818C827.139 89.053 827.521 89.5417 827.794 90.1477C828.067 90.7462 828.203 91.4091 828.203 92.1364C828.203 93.197 827.919 94.1212 827.351 94.9091C826.783 95.6894 826.002 96.2955 825.01 96.7273C824.018 97.1515 822.885 97.3636 821.612 97.3636C820.377 97.3636 819.271 97.1629 818.294 96.7614C817.317 96.3523 816.54 95.7879 815.964 95.0682C815.396 94.3409 815.097 93.5 815.067 92.5455ZM839.061 97.3636C837.485 97.3636 836.103 96.9886 834.913 96.2386C833.732 95.4886 832.807 94.4394 832.141 93.0909C831.482 91.7424 831.152 90.1667 831.152 88.3636C831.152 86.5455 831.482 84.9583 832.141 83.6023C832.807 82.2462 833.732 81.1932 834.913 80.4432C836.103 79.6932 837.485 79.3182 839.061 79.3182C840.637 79.3182 842.016 79.6932 843.197 80.4432C844.387 81.1932 845.311 82.2462 845.97 83.6023C846.637 84.9583 846.97 86.5455 846.97 88.3636C846.97 90.1667 846.637 91.7424 845.97 93.0909C845.311 94.4394 844.387 95.4886 843.197 96.2386C842.016 96.9886 840.637 97.3636 839.061 97.3636ZM839.061 94.9545C840.258 94.9545 841.243 94.6477 842.016 94.0341C842.788 93.4205 843.36 92.6136 843.732 91.6136C844.103 90.6136 844.288 89.5303 844.288 88.3636C844.288 87.197 844.103 86.1098 843.732 85.1023C843.36 84.0947 842.788 83.2803 842.016 82.6591C841.243 82.0379 840.258 81.7273 839.061 81.7273C837.864 81.7273 836.879 82.0379 836.107 82.6591C835.334 83.2803 834.762 84.0947 834.391 85.1023C834.019 86.1098 833.834 87.197 833.834 88.3636C833.834 89.5303 834.019 90.6136 834.391 91.6136C834.762 92.6136 835.334 93.4205 836.107 94.0341C836.879 94.6477 837.864 94.9545 839.061 94.9545ZM851.064 97V79.5455H858.2C860.079 79.5455 861.571 79.9697 862.678 80.8182C863.784 81.6667 864.337 82.7879 864.337 84.1818C864.337 85.2424 864.022 86.0644 863.393 86.6477C862.765 87.2235 861.958 87.6136 860.973 87.8182C861.617 87.9091 862.242 88.1364 862.848 88.5C863.462 88.8636 863.969 89.3636 864.371 90C864.772 90.6288 864.973 91.4015 864.973 92.3182C864.973 93.2121 864.746 94.0114 864.291 94.7159C863.837 95.4205 863.185 95.9773 862.337 96.3864C861.488 96.7955 860.473 97 859.291 97H851.064ZM853.609 94.5455H859.291C860.215 94.5455 860.939 94.3258 861.462 93.8864C861.984 93.447 862.246 92.8485 862.246 92.0909C862.246 91.1894 861.984 90.4811 861.462 89.9659C860.939 89.4432 860.215 89.1818 859.291 89.1818H853.609V94.5455ZM853.609 86.8636H858.2C858.92 86.8636 859.537 86.7652 860.053 86.5682C860.568 86.3636 860.962 86.0758 861.234 85.7045C861.515 85.3258 861.655 84.8788 861.655 84.3636C861.655 83.6288 861.348 83.053 860.734 82.6364C860.121 82.2121 859.276 82 858.2 82H853.609V86.8636Z" fill="black"/>
</g>
<defs>
<clipPath id="clip0_158_8">
<rect width="1045" height="231" fill="white"/>
</clipPath>
</defs>
</svg>
