<svg width="1045" height="231" viewBox="0 0 1045 231" fill="none" xmlns="http://www.w3.org/2000/svg">
<g clip-path="url(#clip0_158_8)">
<rect x="0.5" y="0.5" width="1044" height="230" stroke="black"/>
<line y1="114.5" x2="1045" y2="114.5" stroke="black"/>
<line x1="472.5" y1="-2.18557e-08" x2="472.5" y2="231" stroke="black"/>
<path d="M120.374 45.4091V47.9091H110.783V45.4091H120.374ZM105.237 50.7273H108.146C108.396 52.3636 108.949 53.6212 109.805 54.5C110.661 55.3788 112.033 55.8182 113.919 55.8182C115.252 55.8182 116.366 55.4432 117.26 54.6932C118.161 53.9432 118.836 52.9508 119.283 51.7159C119.737 50.4811 119.964 49.1364 119.964 47.6818V45.0909C119.964 43.4848 119.711 42.072 119.203 40.8523C118.703 39.625 117.98 38.6705 117.033 37.9886C116.093 37.2992 114.964 36.9545 113.646 36.9545C112.495 36.9545 111.54 37.1591 110.783 37.5682C110.025 37.9773 109.434 38.5644 109.01 39.3295C108.586 40.0947 108.298 41.0152 108.146 42.0909H105.237C105.389 40.6061 105.794 39.2879 106.453 38.1364C107.12 36.9773 108.048 36.0682 109.237 35.4091C110.434 34.7424 111.904 34.4091 113.646 34.4091C115.54 34.4091 117.177 34.8523 118.555 35.7386C119.934 36.6174 120.999 37.8561 121.749 39.4545C122.499 41.0455 122.874 42.9091 122.874 45.0455V47.7273C122.874 49.8636 122.502 51.7273 121.76 53.3182C121.018 54.9015 119.976 56.1326 118.635 57.0114C117.294 57.8826 115.722 58.3182 113.919 58.3182C112.071 58.3182 110.533 57.9848 109.305 57.3182C108.086 56.6439 107.143 55.7348 106.476 54.5909C105.817 53.4394 105.404 52.1515 105.237 50.7273ZM125.706 58V55.5H126.342C126.865 55.5 127.301 55.3977 127.649 55.1932C127.998 54.9811 128.278 54.6136 128.49 54.0909C128.71 53.5606 128.876 52.8258 128.99 51.8864C129.111 50.9394 129.198 49.7348 129.251 48.2727L129.57 40.5455H141.206V58H138.524V43.0455H132.115L131.842 49.2727C131.782 50.7045 131.653 51.9659 131.456 53.0568C131.267 54.1402 130.975 55.0492 130.581 55.7841C130.195 56.5189 129.679 57.072 129.036 57.4432C128.392 57.8144 127.585 58 126.615 58H125.706ZM153.445 58.3636C151.763 58.3636 150.312 57.9924 149.092 57.25C147.88 56.5 146.945 55.4545 146.286 54.1136C145.634 52.7652 145.308 51.197 145.308 49.4091C145.308 47.6212 145.634 46.0455 146.286 44.6818C146.945 43.3106 147.861 42.2424 149.036 41.4773C150.217 40.7045 151.596 40.3182 153.172 40.3182C154.081 40.3182 154.979 40.4697 155.865 40.7727C156.751 41.0758 157.558 41.5682 158.286 42.25C159.013 42.9242 159.592 43.8182 160.024 44.9318C160.456 46.0455 160.672 47.4167 160.672 49.0455V50.1818H147.217V47.8636H157.945C157.945 46.8788 157.748 46 157.354 45.2273C156.967 44.4545 156.414 43.8447 155.695 43.3977C154.982 42.9508 154.142 42.7273 153.172 42.7273C152.104 42.7273 151.179 42.9924 150.399 43.5227C149.626 44.0455 149.032 44.7273 148.615 45.5682C148.198 46.4091 147.99 47.3106 147.99 48.2727V49.8182C147.99 51.1364 148.217 52.2538 148.672 53.1705C149.134 54.0795 149.774 54.7727 150.592 55.25C151.411 55.7197 152.361 55.9545 153.445 55.9545C154.149 55.9545 154.786 55.8561 155.354 55.6591C155.929 55.4545 156.426 55.1515 156.842 54.75C157.259 54.3409 157.581 53.8333 157.808 53.2273L160.399 53.9545C160.126 54.8333 159.668 55.6061 159.024 56.2727C158.38 56.9318 157.585 57.447 156.638 57.8182C155.691 58.1818 154.626 58.3636 153.445 58.3636ZM164.751 58V40.5455H167.433V48.1364H169.206L175.479 40.5455H178.933L171.888 48.9545L179.024 58H175.57L169.842 50.6364H167.433V58H164.751ZM180.939 43.0455V40.5455H195.121V43.0455H189.393V58H186.712V43.0455H180.939ZM199.033 64.5455V40.5455H201.624V43.3182H201.942C202.139 43.0152 202.411 42.6288 202.76 42.1591C203.116 41.6818 203.624 41.2576 204.283 40.8864C204.949 40.5076 205.851 40.3182 206.987 40.3182C208.457 40.3182 209.752 40.6856 210.874 41.4205C211.995 42.1553 212.87 43.197 213.499 44.5455C214.127 45.8939 214.442 47.4848 214.442 49.3182C214.442 51.1667 214.127 52.7689 213.499 54.125C212.87 55.4735 211.999 56.5189 210.885 57.2614C209.771 57.9962 208.487 58.3636 207.033 58.3636C205.911 58.3636 205.014 58.178 204.339 57.8068C203.665 57.428 203.146 57 202.783 56.5227C202.419 56.0379 202.139 55.6364 201.942 55.3182H201.714V64.5455H199.033ZM201.669 49.2727C201.669 50.5909 201.862 51.7538 202.249 52.7614C202.635 53.7614 203.199 54.5455 203.942 55.1136C204.684 55.6742 205.593 55.9545 206.669 55.9545C207.79 55.9545 208.726 55.6591 209.476 55.0682C210.233 54.4697 210.802 53.6667 211.18 52.6591C211.567 51.6439 211.76 50.5152 211.76 49.2727C211.76 48.0455 211.571 46.9394 211.192 45.9545C210.821 44.9621 210.256 44.178 209.499 43.6023C208.749 43.0189 207.805 42.7273 206.669 42.7273C205.578 42.7273 204.661 43.0038 203.919 43.5568C203.177 44.1023 202.616 44.8674 202.237 45.8523C201.858 46.8295 201.669 47.9697 201.669 49.2727ZM225.624 58.3636C224.048 58.3636 222.665 57.9886 221.476 57.2386C220.294 56.4886 219.37 55.4394 218.703 54.0909C218.044 52.7424 217.714 51.1667 217.714 49.3636C217.714 47.5455 218.044 45.9583 218.703 44.6023C219.37 43.2462 220.294 42.1932 221.476 41.4432C222.665 40.6932 224.048 40.3182 225.624 40.3182C227.199 40.3182 228.578 40.6932 229.76 41.4432C230.949 42.1932 231.874 43.2462 232.533 44.6023C233.199 45.9583 233.533 47.5455 233.533 49.3636C233.533 51.1667 233.199 52.7424 232.533 54.0909C231.874 55.4394 230.949 56.4886 229.76 57.2386C228.578 57.9886 227.199 58.3636 225.624 58.3636ZM225.624 55.9545C226.821 55.9545 227.805 55.6477 228.578 55.0341C229.351 54.4205 229.923 53.6136 230.294 52.6136C230.665 51.6136 230.851 50.5303 230.851 49.3636C230.851 48.197 230.665 47.1098 230.294 46.1023C229.923 45.0947 229.351 44.2803 228.578 43.6591C227.805 43.0379 226.821 42.7273 225.624 42.7273C224.427 42.7273 223.442 43.0379 222.669 43.6591C221.896 44.2803 221.324 45.0947 220.953 46.1023C220.582 47.1098 220.396 48.197 220.396 49.3636C220.396 50.5303 220.582 51.6136 220.953 52.6136C221.324 53.6136 221.896 54.4205 222.669 55.0341C223.442 55.6477 224.427 55.9545 225.624 55.9545ZM244.945 58.3636C243.263 58.3636 241.812 57.9924 240.592 57.25C239.38 56.5 238.445 55.4545 237.786 54.1136C237.134 52.7652 236.808 51.197 236.808 49.4091C236.808 47.6212 237.134 46.0455 237.786 44.6818C238.445 43.3106 239.361 42.2424 240.536 41.4773C241.717 40.7045 243.096 40.3182 244.672 40.3182C245.581 40.3182 246.479 40.4697 247.365 40.7727C248.251 41.0758 249.058 41.5682 249.786 42.25C250.513 42.9242 251.092 43.8182 251.524 44.9318C251.956 46.0455 252.172 47.4167 252.172 49.0455V50.1818H238.717V47.8636H249.445C249.445 46.8788 249.248 46 248.854 45.2273C248.467 44.4545 247.914 43.8447 247.195 43.3977C246.482 42.9508 245.642 42.7273 244.672 42.7273C243.604 42.7273 242.679 42.9924 241.899 43.5227C241.126 44.0455 240.532 44.7273 240.115 45.5682C239.698 46.4091 239.49 47.3106 239.49 48.2727V49.8182C239.49 51.1364 239.717 52.2538 240.172 53.1705C240.634 54.0795 241.274 54.7727 242.092 55.25C242.911 55.7197 243.861 55.9545 244.945 55.9545C245.649 55.9545 246.286 55.8561 246.854 55.6591C247.429 55.4545 247.926 55.1515 248.342 54.75C248.759 54.3409 249.081 53.8333 249.308 53.2273L251.899 53.9545C251.626 54.8333 251.168 55.6061 250.524 56.2727C249.88 56.9318 249.085 57.447 248.138 57.8182C247.191 58.1818 246.126 58.3636 244.945 58.3636ZM265.797 54.3636L271.888 40.5455H274.433L266.888 58H264.706L257.297 40.5455H259.797L265.797 54.3636ZM258.933 40.5455V58H256.251V40.5455H258.933ZM272.661 58V40.5455H275.342V58H272.661ZM280.251 58V40.5455H282.933V48.1364H284.706L290.979 40.5455H294.433L287.388 48.9545L294.524 58H291.07L285.342 50.6364H282.933V58H280.251ZM303.811 58.3636C302.235 58.3636 300.853 57.9886 299.663 57.2386C298.482 56.4886 297.557 55.4394 296.891 54.0909C296.232 52.7424 295.902 51.1667 295.902 49.3636C295.902 47.5455 296.232 45.9583 296.891 44.6023C297.557 43.2462 298.482 42.1932 299.663 41.4432C300.853 40.6932 302.235 40.3182 303.811 40.3182C305.387 40.3182 306.766 40.6932 307.947 41.4432C309.137 42.1932 310.061 43.2462 310.72 44.6023C311.387 45.9583 311.72 47.5455 311.72 49.3636C311.72 51.1667 311.387 52.7424 310.72 54.0909C310.061 55.4394 309.137 56.4886 307.947 57.2386C306.766 57.9886 305.387 58.3636 303.811 58.3636ZM303.811 55.9545C305.008 55.9545 305.993 55.6477 306.766 55.0341C307.538 54.4205 308.11 53.6136 308.482 52.6136C308.853 51.6136 309.038 50.5303 309.038 49.3636C309.038 48.197 308.853 47.1098 308.482 46.1023C308.11 45.0947 307.538 44.2803 306.766 43.6591C305.993 43.0379 305.008 42.7273 303.811 42.7273C302.614 42.7273 301.629 43.0379 300.857 43.6591C300.084 44.2803 299.512 45.0947 299.141 46.1023C298.769 47.1098 298.584 48.197 298.584 49.3636C298.584 50.5303 298.769 51.6136 299.141 52.6136C299.512 53.6136 300.084 54.4205 300.857 55.0341C301.629 55.6477 302.614 55.9545 303.811 55.9545ZM322.905 58.3636C321.268 58.3636 319.859 57.9773 318.678 57.2045C317.496 56.4318 316.587 55.3674 315.95 54.0114C315.314 52.6553 314.996 51.1061 314.996 49.3636C314.996 47.5909 315.321 46.0265 315.973 44.6705C316.632 43.3068 317.549 42.2424 318.723 41.4773C319.905 40.7045 321.284 40.3182 322.859 40.3182C324.087 40.3182 325.193 40.5455 326.178 41C327.162 41.4545 327.969 42.0909 328.598 42.9091C329.227 43.7273 329.617 44.6818 329.768 45.7727H327.087C326.882 44.9773 326.428 44.2727 325.723 43.6591C325.026 43.0379 324.087 42.7273 322.905 42.7273C321.859 42.7273 320.943 43 320.155 43.5455C319.375 44.0833 318.765 44.8447 318.325 45.8295C317.893 46.8068 317.678 47.9545 317.678 49.2727C317.678 50.6212 317.89 51.7955 318.314 52.7955C318.746 53.7955 319.352 54.572 320.132 55.125C320.92 55.678 321.844 55.9545 322.905 55.9545C323.602 55.9545 324.234 55.8333 324.803 55.5909C325.371 55.3485 325.852 55 326.246 54.5455C326.64 54.0909 326.92 53.5455 327.087 52.9091H329.768C329.617 53.9394 329.242 54.8674 328.643 55.6932C328.053 56.5114 327.268 57.1629 326.291 57.6477C325.321 58.125 324.193 58.3636 322.905 58.3636ZM332.314 43.0455V40.5455H346.496V43.0455H340.768V58H338.087V43.0455H332.314ZM352.726 46.8636H357.726C359.771 46.8636 361.336 47.3826 362.419 48.4205C363.502 49.4583 364.044 50.7727 364.044 52.3636C364.044 53.4091 363.802 54.3598 363.317 55.2159C362.832 56.0644 362.12 56.7424 361.18 57.25C360.241 57.75 359.089 58 357.726 58H350.408V40.5455H353.089V55.5H357.726C358.786 55.5 359.658 55.2197 360.339 54.6591C361.021 54.0985 361.362 53.3788 361.362 52.5C361.362 51.5758 361.021 50.822 360.339 50.2386C359.658 49.6553 358.786 49.3636 357.726 49.3636H352.726V46.8636ZM127.58 97V79.5455H130.261V87.1364H132.034L138.307 79.5455H141.761L134.716 87.9545L141.852 97H138.398L132.67 89.6364H130.261V97H127.58ZM151.139 97.3636C149.563 97.3636 148.181 96.9886 146.991 96.2386C145.81 95.4886 144.885 94.4394 144.219 93.0909C143.56 91.7424 143.23 90.1667 143.23 88.3636C143.23 86.5455 143.56 84.9583 144.219 83.6023C144.885 82.2462 145.81 81.1932 146.991 80.4432C148.181 79.6932 149.563 79.3182 151.139 79.3182C152.715 79.3182 154.094 79.6932 155.276 80.4432C156.465 81.1932 157.389 82.2462 158.048 83.6023C158.715 84.9583 159.048 86.5455 159.048 88.3636C159.048 90.1667 158.715 91.7424 158.048 93.0909C157.389 94.4394 156.465 95.4886 155.276 96.2386C154.094 96.9886 152.715 97.3636 151.139 97.3636ZM151.139 94.9545C152.336 94.9545 153.321 94.6477 154.094 94.0341C154.866 93.4205 155.438 92.6136 155.81 91.6136C156.181 90.6136 156.366 89.5303 156.366 88.3636C156.366 87.197 156.181 86.1098 155.81 85.1023C155.438 84.0947 154.866 83.2803 154.094 82.6591C153.321 82.0379 152.336 81.7273 151.139 81.7273C149.942 81.7273 148.957 82.0379 148.185 82.6591C147.412 83.2803 146.84 84.0947 146.469 85.1023C146.098 86.1098 145.912 87.197 145.912 88.3636C145.912 89.5303 146.098 90.6136 146.469 91.6136C146.84 92.6136 147.412 93.4205 148.185 94.0341C148.957 94.6477 149.942 94.9545 151.139 94.9545ZM174.824 87.0455V89.5455H165.188V87.0455H174.824ZM165.824 79.5455V97H163.142V79.5455H165.824ZM176.869 79.5455V97H174.188V79.5455H176.869ZM179.903 102V94.5H181.358C181.714 94.1288 182.021 93.7273 182.278 93.2955C182.536 92.8636 182.759 92.3523 182.949 91.7614C183.146 91.1629 183.313 90.4356 183.449 89.5795C183.585 88.7159 183.706 87.6742 183.812 86.4545L184.403 79.5455H195.494V94.5H198.176V102H195.494V97H182.585V102H179.903ZM184.403 94.5H192.812V82.0455H186.903L186.449 86.4545C186.259 88.2803 186.025 89.875 185.744 91.2386C185.464 92.6023 185.017 93.6894 184.403 94.5ZM209.054 97.3636C207.372 97.3636 205.921 96.9924 204.702 96.25C203.49 95.5 202.554 94.4545 201.895 93.1136C201.243 91.7652 200.918 90.197 200.918 88.4091C200.918 86.6212 201.243 85.0455 201.895 83.6818C202.554 82.3106 203.471 81.2424 204.645 80.4773C205.827 79.7045 207.205 79.3182 208.781 79.3182C209.69 79.3182 210.588 79.4697 211.474 79.7727C212.361 80.0758 213.168 80.5682 213.895 81.25C214.622 81.9242 215.202 82.8182 215.634 83.9318C216.065 85.0455 216.281 86.4167 216.281 88.0455V89.1818H202.827V86.8636H213.554C213.554 85.8788 213.357 85 212.963 84.2273C212.577 83.4545 212.024 82.8447 211.304 82.3977C210.592 81.9508 209.751 81.7273 208.781 81.7273C207.713 81.7273 206.789 81.9924 206.009 82.5227C205.236 83.0455 204.641 83.7273 204.224 84.5682C203.808 85.4091 203.599 86.3106 203.599 87.2727V88.8182C203.599 90.1364 203.827 91.2538 204.281 92.1705C204.743 93.0795 205.384 93.7727 206.202 94.25C207.02 94.7197 207.971 94.9545 209.054 94.9545C209.759 94.9545 210.395 94.8561 210.963 94.6591C211.539 94.4545 212.035 94.1515 212.452 93.75C212.868 93.3409 213.19 92.8333 213.418 92.2273L216.009 92.9545C215.736 93.8333 215.277 94.6061 214.634 95.2727C213.99 95.9318 213.194 96.447 212.247 96.8182C211.3 97.1818 210.236 97.3636 209.054 97.3636ZM232.043 87.0455V89.5455H222.406V87.0455H232.043ZM223.043 79.5455V97H220.361V79.5455H223.043ZM234.088 79.5455V97H231.406V79.5455H234.088ZM246.077 97.3636C244.44 97.3636 243.031 96.9773 241.849 96.2045C240.668 95.4318 239.759 94.3674 239.122 93.0114C238.486 91.6553 238.168 90.1061 238.168 88.3636C238.168 86.5909 238.493 85.0265 239.145 83.6705C239.804 82.3068 240.721 81.2424 241.895 80.4773C243.077 79.7045 244.455 79.3182 246.031 79.3182C247.259 79.3182 248.365 79.5455 249.349 80C250.334 80.4545 251.141 81.0909 251.77 81.9091C252.399 82.7273 252.789 83.6818 252.94 84.7727H250.259C250.054 83.9773 249.599 83.2727 248.895 82.6591C248.198 82.0379 247.259 81.7273 246.077 81.7273C245.031 81.7273 244.115 82 243.327 82.5455C242.546 83.0833 241.937 83.8447 241.497 84.8295C241.065 85.8068 240.849 86.9545 240.849 88.2727C240.849 89.6212 241.062 90.7955 241.486 91.7955C241.918 92.7955 242.524 93.572 243.304 94.125C244.092 94.678 245.016 94.9545 246.077 94.9545C246.774 94.9545 247.406 94.8333 247.974 94.5909C248.543 94.3485 249.024 94 249.418 93.5455C249.812 93.0909 250.092 92.5455 250.259 91.9091H252.94C252.789 92.9394 252.414 93.8674 251.815 94.6932C251.224 95.5114 250.44 96.1629 249.463 96.6477C248.493 97.125 247.365 97.3636 246.077 97.3636ZM261.997 97.4091C260.891 97.4091 259.887 97.2008 258.986 96.7841C258.084 96.3598 257.368 95.75 256.838 94.9545C256.308 94.1515 256.043 93.1818 256.043 92.0455C256.043 91.0455 256.24 90.2348 256.634 89.6136C257.027 88.9848 257.554 88.4924 258.213 88.1364C258.872 87.7803 259.599 87.5152 260.395 87.3409C261.198 87.1591 262.005 87.0152 262.815 86.9091C263.876 86.7727 264.736 86.6705 265.395 86.6023C266.062 86.5265 266.546 86.4015 266.849 86.2273C267.16 86.053 267.315 85.75 267.315 85.3182V85.2273C267.315 84.1061 267.009 83.2348 266.395 82.6136C265.789 81.9924 264.868 81.6818 263.634 81.6818C262.353 81.6818 261.349 81.9621 260.622 82.5227C259.895 83.0833 259.384 83.6818 259.088 84.3182L256.543 83.4091C256.997 82.3485 257.603 81.5227 258.361 80.9318C259.126 80.3333 259.959 79.9167 260.861 79.6818C261.77 79.4394 262.664 79.3182 263.543 79.3182C264.103 79.3182 264.747 79.3864 265.474 79.5227C266.209 79.6515 266.918 79.9205 267.599 80.3295C268.289 80.7386 268.861 81.3561 269.315 82.1818C269.77 83.0076 269.997 84.1136 269.997 85.5V97H267.315V94.6364H267.179C266.997 95.0152 266.694 95.4205 266.27 95.8523C265.846 96.2841 265.281 96.6515 264.577 96.9545C263.872 97.2576 263.012 97.4091 261.997 97.4091ZM262.406 95C263.467 95 264.361 94.7917 265.088 94.375C265.823 93.9583 266.376 93.4205 266.747 92.7614C267.126 92.1023 267.315 91.4091 267.315 90.6818V88.2273C267.202 88.3636 266.952 88.4886 266.565 88.6023C266.187 88.7083 265.747 88.803 265.247 88.8864C264.755 88.9621 264.274 89.0303 263.804 89.0909C263.342 89.1439 262.967 89.1894 262.679 89.2273C261.982 89.3182 261.33 89.4659 260.724 89.6705C260.126 89.8674 259.641 90.1667 259.27 90.5682C258.906 90.9621 258.724 91.5 258.724 92.1818C258.724 93.1136 259.069 93.8182 259.759 94.2955C260.455 94.7652 261.338 95 262.406 95ZM272.517 82.0455V79.5455H286.699V82.0455H280.972V97H278.29V82.0455H272.517ZM296.795 97.3636C295.22 97.3636 293.837 96.9886 292.648 96.2386C291.466 95.4886 290.542 94.4394 289.875 93.0909C289.216 91.7424 288.886 90.1667 288.886 88.3636C288.886 86.5455 289.216 84.9583 289.875 83.6023C290.542 82.2462 291.466 81.1932 292.648 80.4432C293.837 79.6932 295.22 79.3182 296.795 79.3182C298.371 79.3182 299.75 79.6932 300.932 80.4432C302.121 81.1932 303.045 82.2462 303.705 83.6023C304.371 84.9583 304.705 86.5455 304.705 88.3636C304.705 90.1667 304.371 91.7424 303.705 93.0909C303.045 94.4394 302.121 95.4886 300.932 96.2386C299.75 96.9886 298.371 97.3636 296.795 97.3636ZM296.795 94.9545C297.992 94.9545 298.977 94.6477 299.75 94.0341C300.523 93.4205 301.095 92.6136 301.466 91.6136C301.837 90.6136 302.023 89.5303 302.023 88.3636C302.023 87.197 301.837 86.1098 301.466 85.1023C301.095 84.0947 300.523 83.2803 299.75 82.6591C298.977 82.0379 297.992 81.7273 296.795 81.7273C295.598 81.7273 294.614 82.0379 293.841 82.6591C293.068 83.2803 292.496 84.0947 292.125 85.1023C291.754 86.1098 291.568 87.197 291.568 88.3636C291.568 89.5303 291.754 90.6136 292.125 91.6136C292.496 92.6136 293.068 93.4205 293.841 94.0341C294.614 94.6477 295.598 94.9545 296.795 94.9545ZM308.798 103.545V79.5455H311.389V82.3182H311.707C311.904 82.0152 312.177 81.6288 312.526 81.1591C312.882 80.6818 313.389 80.2576 314.048 79.8864C314.715 79.5076 315.616 79.3182 316.753 79.3182C318.223 79.3182 319.518 79.6856 320.639 80.4205C321.76 81.1553 322.635 82.197 323.264 83.5455C323.893 84.8939 324.207 86.4848 324.207 88.3182C324.207 90.1667 323.893 91.7689 323.264 93.125C322.635 94.4735 321.764 95.5189 320.651 96.2614C319.537 96.9962 318.253 97.3636 316.798 97.3636C315.677 97.3636 314.779 97.178 314.105 96.8068C313.431 96.428 312.912 96 312.548 95.5227C312.185 95.0379 311.904 94.6364 311.707 94.3182H311.48V103.545H308.798ZM311.435 88.2727C311.435 89.5909 311.628 90.7538 312.014 91.7614C312.401 92.7614 312.965 93.5455 313.707 94.1136C314.45 94.6742 315.359 94.9545 316.435 94.9545C317.556 94.9545 318.491 94.6591 319.241 94.0682C319.999 93.4697 320.567 92.6667 320.946 91.6591C321.332 90.6439 321.526 89.5152 321.526 88.2727C321.526 87.0455 321.336 85.9394 320.957 84.9545C320.586 83.9621 320.022 83.178 319.264 82.6023C318.514 82.0189 317.571 81.7273 316.435 81.7273C315.344 81.7273 314.427 82.0038 313.685 82.5568C312.942 83.1023 312.382 83.8674 312.003 84.8523C311.624 85.8295 311.435 86.9697 311.435 88.2727ZM333.435 97.4091C332.329 97.4091 331.325 97.2008 330.423 96.7841C329.522 96.3598 328.806 95.75 328.276 94.9545C327.745 94.1515 327.48 93.1818 327.48 92.0455C327.48 91.0455 327.677 90.2348 328.071 89.6136C328.465 88.9848 328.991 88.4924 329.651 88.1364C330.31 87.7803 331.037 87.5152 331.832 87.3409C332.635 87.1591 333.442 87.0152 334.253 86.9091C335.313 86.7727 336.173 86.6705 336.832 86.6023C337.499 86.5265 337.984 86.4015 338.287 86.2273C338.598 86.053 338.753 85.75 338.753 85.3182V85.2273C338.753 84.1061 338.446 83.2348 337.832 82.6136C337.226 81.9924 336.306 81.6818 335.071 81.6818C333.791 81.6818 332.787 81.9621 332.06 82.5227C331.332 83.0833 330.821 83.6818 330.526 84.3182L327.98 83.4091C328.435 82.3485 329.041 81.5227 329.798 80.9318C330.563 80.3333 331.397 79.9167 332.298 79.6818C333.207 79.4394 334.101 79.3182 334.98 79.3182C335.541 79.3182 336.185 79.3864 336.912 79.5227C337.647 79.6515 338.355 79.9205 339.037 80.3295C339.726 80.7386 340.298 81.3561 340.753 82.1818C341.207 83.0076 341.435 84.1136 341.435 85.5V97H338.753V94.6364H338.616C338.435 95.0152 338.132 95.4205 337.707 95.8523C337.283 96.2841 336.719 96.6515 336.014 96.9545C335.31 97.2576 334.45 97.4091 333.435 97.4091ZM333.844 95C334.904 95 335.798 94.7917 336.526 94.375C337.26 93.9583 337.813 93.4205 338.185 92.7614C338.563 92.1023 338.753 91.4091 338.753 90.6818V88.2273C338.639 88.3636 338.389 88.4886 338.003 88.6023C337.624 88.7083 337.185 88.803 336.685 88.8864C336.192 88.9621 335.711 89.0303 335.241 89.0909C334.779 89.1439 334.404 89.1894 334.116 89.2273C333.42 89.3182 332.768 89.4659 332.162 89.6705C331.563 89.8674 331.079 90.1667 330.707 90.5682C330.344 90.9621 330.162 91.5 330.162 92.1818C330.162 93.1136 330.507 93.8182 331.196 94.2955C331.893 94.7652 332.776 95 333.844 95Z" fill="black"/>
<path d="M616.568 58V34.7273H624.705C626.326 34.7273 627.663 35.0076 628.716 35.5682C629.769 36.1212 630.553 36.8674 631.068 37.8068C631.583 38.7386 631.841 39.7727 631.841 40.9091C631.841 41.9091 631.663 42.7348 631.307 43.3864C630.958 44.0379 630.496 44.553 629.92 44.9318C629.352 45.3106 628.735 45.5909 628.068 45.7727V46C628.78 46.0455 629.496 46.2955 630.216 46.75C630.936 47.2045 631.538 47.8561 632.023 48.7045C632.508 49.553 632.75 50.5909 632.75 51.8182C632.75 52.9848 632.485 54.0341 631.955 54.9659C631.424 55.8977 630.587 56.6364 629.443 57.1818C628.299 57.7273 626.811 58 624.977 58H616.568ZM619.386 55.5H624.977C626.818 55.5 628.125 55.1439 628.898 54.4318C629.678 53.7121 630.068 52.8409 630.068 51.8182C630.068 51.0303 629.867 50.303 629.466 49.6364C629.064 48.9621 628.492 48.4242 627.75 48.0227C627.008 47.6136 626.129 47.4091 625.114 47.4091H619.386V55.5ZM619.386 44.9545H624.614C625.462 44.9545 626.227 44.7879 626.909 44.4545C627.598 44.1212 628.144 43.6515 628.545 43.0455C628.955 42.4394 629.159 41.7273 629.159 40.9091C629.159 39.8864 628.803 39.0189 628.091 38.3068C627.379 37.5871 626.25 37.2273 624.705 37.2273H619.386V44.9545ZM644.335 58.3636C642.653 58.3636 641.203 57.9924 639.983 57.25C638.771 56.5 637.835 55.4545 637.176 54.1136C636.525 52.7652 636.199 51.197 636.199 49.4091C636.199 47.6212 636.525 46.0455 637.176 44.6818C637.835 43.3106 638.752 42.2424 639.926 41.4773C641.108 40.7045 642.487 40.3182 644.062 40.3182C644.972 40.3182 645.869 40.4697 646.756 40.7727C647.642 41.0758 648.449 41.5682 649.176 42.25C649.903 42.9242 650.483 43.8182 650.915 44.9318C651.347 46.0455 651.562 47.4167 651.562 49.0455V50.1818H638.108V47.8636H648.835C648.835 46.8788 648.638 46 648.244 45.2273C647.858 44.4545 647.305 43.8447 646.585 43.3977C645.873 42.9508 645.032 42.7273 644.062 42.7273C642.994 42.7273 642.07 42.9924 641.29 43.5227C640.517 44.0455 639.922 44.7273 639.506 45.5682C639.089 46.4091 638.881 47.3106 638.881 48.2727V49.8182C638.881 51.1364 639.108 52.2538 639.562 53.1705C640.025 54.0795 640.665 54.7727 641.483 55.25C642.301 55.7197 643.252 55.9545 644.335 55.9545C645.04 55.9545 645.676 55.8561 646.244 55.6591C646.82 55.4545 647.316 55.1515 647.733 54.75C648.15 54.3409 648.472 53.8333 648.699 53.2273L651.29 53.9545C651.017 54.8333 650.559 55.6061 649.915 56.2727C649.271 56.9318 648.475 57.447 647.528 57.8182C646.581 58.1818 645.517 58.3636 644.335 58.3636ZM654.097 58V55.5H654.733C655.256 55.5 655.691 55.3977 656.04 55.1932C656.388 54.9811 656.669 54.6136 656.881 54.0909C657.1 53.5606 657.267 52.8258 657.381 51.8864C657.502 50.9394 657.589 49.7348 657.642 48.2727L657.96 40.5455H669.597V58H666.915V43.0455H660.506L660.233 49.2727C660.172 50.7045 660.044 51.9659 659.847 53.0568C659.657 54.1402 659.366 55.0492 658.972 55.7841C658.585 56.5189 658.07 57.072 657.426 57.4432C656.782 57.8144 655.975 58 655.006 58H654.097ZM677.199 54.0455L685.608 40.5455H688.699V58H686.017V44.5L677.653 58H674.517V40.5455H677.199V54.0455ZM707.065 40.5455V58H704.384V40.5455H707.065ZM706.02 48.8636V51.3636C705.414 51.5909 704.812 51.7917 704.213 51.9659C703.615 52.1326 702.986 52.2652 702.327 52.3636C701.668 52.4545 700.944 52.5 700.156 52.5C698.179 52.5 696.592 51.9659 695.395 50.8977C694.205 49.8295 693.611 48.2273 693.611 46.0909V40.5H696.293V46.0909C696.293 46.9848 696.463 47.7197 696.804 48.2955C697.145 48.8712 697.607 49.2992 698.19 49.5795C698.774 49.8598 699.429 50 700.156 50C701.293 50 702.319 49.8977 703.236 49.6932C704.16 49.4811 705.088 49.2045 706.02 48.8636ZM714.668 54.0455L723.077 40.5455H726.168V58H723.486V44.5L715.122 58H711.986V40.5455H714.668V54.0455ZM742.761 48.0455V50.5455H733.125V48.0455H742.761ZM733.761 40.5455V58H731.08V40.5455H733.761ZM744.807 40.5455V58H742.125V40.5455H744.807ZM754.841 58.4091C753.735 58.4091 752.731 58.2008 751.83 57.7841C750.928 57.3598 750.212 56.75 749.682 55.9545C749.152 55.1515 748.886 54.1818 748.886 53.0455C748.886 52.0455 749.083 51.2348 749.477 50.6136C749.871 49.9848 750.398 49.4924 751.057 49.1364C751.716 48.7803 752.443 48.5152 753.239 48.3409C754.042 48.1591 754.848 48.0152 755.659 47.9091C756.72 47.7727 757.58 47.6705 758.239 47.6023C758.905 47.5265 759.39 47.4015 759.693 47.2273C760.004 47.053 760.159 46.75 760.159 46.3182V46.2273C760.159 45.1061 759.852 44.2348 759.239 43.6136C758.633 42.9924 757.712 42.6818 756.477 42.6818C755.197 42.6818 754.193 42.9621 753.466 43.5227C752.739 44.0833 752.227 44.6818 751.932 45.3182L749.386 44.4091C749.841 43.3485 750.447 42.5227 751.205 41.9318C751.97 41.3333 752.803 40.9167 753.705 40.6818C754.614 40.4394 755.508 40.3182 756.386 40.3182C756.947 40.3182 757.591 40.3864 758.318 40.5227C759.053 40.6515 759.761 40.9205 760.443 41.3295C761.133 41.7386 761.705 42.3561 762.159 43.1818C762.614 44.0076 762.841 45.1136 762.841 46.5V58H760.159V55.6364H760.023C759.841 56.0152 759.538 56.4205 759.114 56.8523C758.689 57.2841 758.125 57.6515 757.42 57.9545C756.716 58.2576 755.856 58.4091 754.841 58.4091ZM755.25 56C756.311 56 757.205 55.7917 757.932 55.375C758.667 54.9583 759.22 54.4205 759.591 53.7614C759.97 53.1023 760.159 52.4091 760.159 51.6818V49.2273C760.045 49.3636 759.795 49.4886 759.409 49.6023C759.03 49.7083 758.591 49.803 758.091 49.8864C757.598 49.9621 757.117 50.0303 756.648 50.0909C756.186 50.1439 755.811 50.1894 755.523 50.2273C754.826 50.3182 754.174 50.4659 753.568 50.6705C752.97 50.8674 752.485 51.1667 752.114 51.5682C751.75 51.9621 751.568 52.5 751.568 53.1818C751.568 54.1136 751.913 54.8182 752.602 55.2955C753.299 55.7652 754.182 56 755.25 56ZM775.645 53.5455H778.509C778.569 54.3333 778.925 54.9318 779.577 55.3409C780.236 55.75 781.092 55.9545 782.145 55.9545C783.221 55.9545 784.141 55.7348 784.906 55.2955C785.671 54.8485 786.054 54.1288 786.054 53.1364C786.054 52.553 785.91 52.0455 785.622 51.6136C785.334 51.1742 784.929 50.8333 784.406 50.5909C783.884 50.3485 783.266 50.2273 782.554 50.2273H779.554V47.8182H782.554C783.622 47.8182 784.41 47.5758 784.918 47.0909C785.433 46.6061 785.69 46 785.69 45.2727C785.69 44.4924 785.414 43.8674 784.861 43.3977C784.308 42.9205 783.524 42.6818 782.509 42.6818C781.486 42.6818 780.634 42.9129 779.952 43.375C779.27 43.8295 778.91 44.4167 778.872 45.1364H776.054C776.084 44.197 776.372 43.3674 776.918 42.6477C777.463 41.9205 778.205 41.3523 779.145 40.9432C780.084 40.5265 781.16 40.3182 782.372 40.3182C783.599 40.3182 784.664 40.5341 785.565 40.9659C786.474 41.3902 787.175 41.9697 787.668 42.7045C788.168 43.4318 788.418 44.2576 788.418 45.1818C788.418 46.1667 788.141 46.9621 787.588 47.5682C787.035 48.1742 786.342 48.6061 785.509 48.8636V49.0455C786.168 49.0909 786.74 49.303 787.224 49.6818C787.717 50.053 788.099 50.5417 788.372 51.1477C788.645 51.7462 788.781 52.4091 788.781 53.1364C788.781 54.197 788.497 55.1212 787.929 55.9091C787.361 56.6894 786.58 57.2955 785.588 57.7273C784.596 58.1515 783.463 58.3636 782.19 58.3636C780.955 58.3636 779.849 58.1629 778.872 57.7614C777.895 57.3523 777.118 56.7879 776.543 56.0682C775.974 55.3409 775.675 54.5 775.645 53.5455ZM797.685 58.4091C796.579 58.4091 795.575 58.2008 794.673 57.7841C793.772 57.3598 793.056 56.75 792.526 55.9545C791.995 55.1515 791.73 54.1818 791.73 53.0455C791.73 52.0455 791.927 51.2348 792.321 50.6136C792.715 49.9848 793.241 49.4924 793.901 49.1364C794.56 48.7803 795.287 48.5152 796.082 48.3409C796.885 48.1591 797.692 48.0152 798.503 47.9091C799.563 47.7727 800.423 47.6705 801.082 47.6023C801.749 47.5265 802.234 47.4015 802.537 47.2273C802.848 47.053 803.003 46.75 803.003 46.3182V46.2273C803.003 45.1061 802.696 44.2348 802.082 43.6136C801.476 42.9924 800.556 42.6818 799.321 42.6818C798.041 42.6818 797.037 42.9621 796.31 43.5227C795.582 44.0833 795.071 44.6818 794.776 45.3182L792.23 44.4091C792.685 43.3485 793.291 42.5227 794.048 41.9318C794.813 41.3333 795.647 40.9167 796.548 40.6818C797.457 40.4394 798.351 40.3182 799.23 40.3182C799.791 40.3182 800.435 40.3864 801.162 40.5227C801.897 40.6515 802.605 40.9205 803.287 41.3295C803.976 41.7386 804.548 42.3561 805.003 43.1818C805.457 44.0076 805.685 45.1136 805.685 46.5V58H803.003V55.6364H802.866C802.685 56.0152 802.382 56.4205 801.957 56.8523C801.533 57.2841 800.969 57.6515 800.264 57.9545C799.56 58.2576 798.7 58.4091 797.685 58.4091ZM798.094 56C799.154 56 800.048 55.7917 800.776 55.375C801.51 54.9583 802.063 54.4205 802.435 53.7614C802.813 53.1023 803.003 52.4091 803.003 51.6818V49.2273C802.889 49.3636 802.639 49.4886 802.253 49.6023C801.874 49.7083 801.435 49.803 800.935 49.8864C800.442 49.9621 799.961 50.0303 799.491 50.0909C799.029 50.1439 798.654 50.1894 798.366 50.2273C797.67 50.3182 797.018 50.4659 796.412 50.6705C795.813 50.8674 795.329 51.1667 794.957 51.5682C794.594 51.9621 794.412 52.5 794.412 53.1818C794.412 54.1136 794.757 54.8182 795.446 55.2955C796.143 55.7652 797.026 56 798.094 56ZM810.58 64.5455V40.5455H813.17V43.3182H813.489C813.686 43.0152 813.958 42.6288 814.307 42.1591C814.663 41.6818 815.17 41.2576 815.83 40.8864C816.496 40.5076 817.398 40.3182 818.534 40.3182C820.004 40.3182 821.299 40.6856 822.42 41.4205C823.542 42.1553 824.417 43.197 825.045 44.5455C825.674 45.8939 825.989 47.4848 825.989 49.3182C825.989 51.1667 825.674 52.7689 825.045 54.125C824.417 55.4735 823.545 56.5189 822.432 57.2614C821.318 57.9962 820.034 58.3636 818.58 58.3636C817.458 58.3636 816.561 58.178 815.886 57.8068C815.212 57.428 814.693 57 814.33 56.5227C813.966 56.0379 813.686 55.6364 813.489 55.3182H813.261V64.5455H810.58ZM813.216 49.2727C813.216 50.5909 813.409 51.7538 813.795 52.7614C814.182 53.7614 814.746 54.5455 815.489 55.1136C816.231 55.6742 817.14 55.9545 818.216 55.9545C819.337 55.9545 820.273 55.6591 821.023 55.0682C821.78 54.4697 822.348 53.6667 822.727 52.6591C823.114 51.6439 823.307 50.5152 823.307 49.2727C823.307 48.0455 823.117 46.9394 822.739 45.9545C822.367 44.9621 821.803 44.178 821.045 43.6023C820.295 43.0189 819.352 42.7273 818.216 42.7273C817.125 42.7273 816.208 43.0038 815.466 43.5568C814.723 44.1023 814.163 44.8674 813.784 45.8523C813.405 46.8295 813.216 47.9697 813.216 49.2727ZM840.58 58V43H835.943C834.898 43 834.076 43.2424 833.477 43.7273C832.879 44.2121 832.58 44.8788 832.58 45.7273C832.58 46.5606 832.848 47.2159 833.386 47.6932C833.932 48.1705 834.678 48.4091 835.625 48.4091H841.261V50.9091H835.625C834.443 50.9091 833.424 50.7008 832.568 50.2841C831.712 49.8674 831.053 49.2727 830.591 48.5C830.129 47.7197 829.898 46.7955 829.898 45.7273C829.898 44.6515 830.14 43.7273 830.625 42.9545C831.11 42.1818 831.803 41.5871 832.705 41.1705C833.614 40.7538 834.693 40.5455 835.943 40.5455H843.125V58H840.58ZM828.943 58L833.898 49.3182H836.807L831.852 58H828.943ZM846.185 63V55.5H847.639C847.995 55.1288 848.302 54.7273 848.56 54.2955C848.817 53.8636 849.041 53.3523 849.23 52.7614C849.427 52.1629 849.594 51.4356 849.73 50.5795C849.866 49.7159 849.988 48.6742 850.094 47.4545L850.685 40.5455H861.776V55.5H864.457V63H861.776V58H848.866V63H846.185ZM850.685 55.5H859.094V43.0455H853.185L852.73 47.4545C852.541 49.2803 852.306 50.875 852.026 52.2386C851.745 53.6023 851.298 54.6894 850.685 55.5ZM873.153 58.4091C872.047 58.4091 871.044 58.2008 870.142 57.7841C869.241 57.3598 868.525 56.75 867.994 55.9545C867.464 55.1515 867.199 54.1818 867.199 53.0455C867.199 52.0455 867.396 51.2348 867.79 50.6136C868.184 49.9848 868.71 49.4924 869.369 49.1364C870.028 48.7803 870.756 48.5152 871.551 48.3409C872.354 48.1591 873.161 48.0152 873.972 47.9091C875.032 47.7727 875.892 47.6705 876.551 47.6023C877.218 47.5265 877.703 47.4015 878.006 47.2273C878.316 47.053 878.472 46.75 878.472 46.3182V46.2273C878.472 45.1061 878.165 44.2348 877.551 43.6136C876.945 42.9924 876.025 42.6818 874.79 42.6818C873.509 42.6818 872.506 42.9621 871.778 43.5227C871.051 44.0833 870.54 44.6818 870.244 45.3182L867.699 44.4091C868.153 43.3485 868.759 42.5227 869.517 41.9318C870.282 41.3333 871.116 40.9167 872.017 40.6818C872.926 40.4394 873.82 40.3182 874.699 40.3182C875.259 40.3182 875.903 40.3864 876.631 40.5227C877.366 40.6515 878.074 40.9205 878.756 41.3295C879.445 41.7386 880.017 42.3561 880.472 43.1818C880.926 44.0076 881.153 45.1136 881.153 46.5V58H878.472V55.6364H878.335C878.153 56.0152 877.85 56.4205 877.426 56.8523C877.002 57.2841 876.438 57.6515 875.733 57.9545C875.028 58.2576 874.169 58.4091 873.153 58.4091ZM873.562 56C874.623 56 875.517 55.7917 876.244 55.375C876.979 54.9583 877.532 54.4205 877.903 53.7614C878.282 53.1023 878.472 52.4091 878.472 51.6818V49.2273C878.358 49.3636 878.108 49.4886 877.722 49.6023C877.343 49.7083 876.903 49.803 876.403 49.8864C875.911 49.9621 875.43 50.0303 874.96 50.0909C874.498 50.1439 874.123 50.1894 873.835 50.2273C873.138 50.3182 872.487 50.4659 871.881 50.6705C871.282 50.8674 870.797 51.1667 870.426 51.5682C870.063 51.9621 869.881 52.5 869.881 53.1818C869.881 54.1136 870.225 54.8182 870.915 55.2955C871.612 55.7652 872.494 56 873.562 56ZM906.73 48.0455V50.5455H897.094V48.0455H906.73ZM897.73 40.5455V58H895.048V40.5455H897.73ZM908.776 40.5455V58H906.094V40.5455H908.776ZM918.81 58.4091C917.704 58.4091 916.7 58.2008 915.798 57.7841C914.897 57.3598 914.181 56.75 913.651 55.9545C913.12 55.1515 912.855 54.1818 912.855 53.0455C912.855 52.0455 913.052 51.2348 913.446 50.6136C913.84 49.9848 914.366 49.4924 915.026 49.1364C915.685 48.7803 916.412 48.5152 917.207 48.3409C918.01 48.1591 918.817 48.0152 919.628 47.9091C920.688 47.7727 921.548 47.6705 922.207 47.6023C922.874 47.5265 923.359 47.4015 923.662 47.2273C923.973 47.053 924.128 46.75 924.128 46.3182V46.2273C924.128 45.1061 923.821 44.2348 923.207 43.6136C922.601 42.9924 921.681 42.6818 920.446 42.6818C919.166 42.6818 918.162 42.9621 917.435 43.5227C916.707 44.0833 916.196 44.6818 915.901 45.3182L913.355 44.4091C913.81 43.3485 914.416 42.5227 915.173 41.9318C915.938 41.3333 916.772 40.9167 917.673 40.6818C918.582 40.4394 919.476 40.3182 920.355 40.3182C920.916 40.3182 921.56 40.3864 922.287 40.5227C923.022 40.6515 923.73 40.9205 924.412 41.3295C925.101 41.7386 925.673 42.3561 926.128 43.1818C926.582 44.0076 926.81 45.1136 926.81 46.5V58H924.128V55.6364H923.991C923.81 56.0152 923.507 56.4205 923.082 56.8523C922.658 57.2841 922.094 57.6515 921.389 57.9545C920.685 58.2576 919.825 58.4091 918.81 58.4091ZM919.219 56C920.279 56 921.173 55.7917 921.901 55.375C922.635 54.9583 923.188 54.4205 923.56 53.7614C923.938 53.1023 924.128 52.4091 924.128 51.6818V49.2273C924.014 49.3636 923.764 49.4886 923.378 49.6023C922.999 49.7083 922.56 49.803 922.06 49.8864C921.567 49.9621 921.086 50.0303 920.616 50.0909C920.154 50.1439 919.779 50.1894 919.491 50.2273C918.795 50.3182 918.143 50.4659 917.537 50.6705C916.938 50.8674 916.454 51.1667 916.082 51.5682C915.719 51.9621 915.537 52.5 915.537 53.1818C915.537 54.1136 915.882 54.8182 916.571 55.2955C917.268 55.7652 918.151 56 919.219 56ZM584.905 97.3636C583.329 97.3636 581.946 96.9886 580.757 96.2386C579.575 95.4886 578.651 94.4394 577.984 93.0909C577.325 91.7424 576.996 90.1667 576.996 88.3636C576.996 86.5455 577.325 84.9583 577.984 83.6023C578.651 82.2462 579.575 81.1932 580.757 80.4432C581.946 79.6932 583.329 79.3182 584.905 79.3182C586.481 79.3182 587.859 79.6932 589.041 80.4432C590.231 81.1932 591.155 82.2462 591.814 83.6023C592.481 84.9583 592.814 86.5455 592.814 88.3636C592.814 90.1667 592.481 91.7424 591.814 93.0909C591.155 94.4394 590.231 95.4886 589.041 96.2386C587.859 96.9886 586.481 97.3636 584.905 97.3636ZM584.905 94.9545C586.102 94.9545 587.087 94.6477 587.859 94.0341C588.632 93.4205 589.204 92.6136 589.575 91.6136C589.946 90.6136 590.132 89.5303 590.132 88.3636C590.132 87.197 589.946 86.1098 589.575 85.1023C589.204 84.0947 588.632 83.2803 587.859 82.6591C587.087 82.0379 586.102 81.7273 584.905 81.7273C583.708 81.7273 582.723 82.0379 581.95 82.6591C581.178 83.2803 580.606 84.0947 580.234 85.1023C579.863 86.1098 579.678 87.197 579.678 88.3636C579.678 89.5303 579.863 90.6136 580.234 91.6136C580.606 92.6136 581.178 93.4205 581.95 94.0341C582.723 94.6477 583.708 94.9545 584.905 94.9545ZM609.862 73L611.226 74.6364C610.696 75.1515 610.082 75.5114 609.385 75.7159C608.688 75.9205 607.9 76.0455 607.021 76.0909C606.143 76.1364 605.165 76.1818 604.089 76.2273C602.877 76.2727 601.874 76.5682 601.078 77.1136C600.283 77.6591 599.669 78.447 599.237 79.4773C598.805 80.5076 598.529 81.7727 598.408 83.2727H598.635C599.226 82.1818 600.044 81.3788 601.089 80.8636C602.135 80.3485 603.256 80.0909 604.453 80.0909C605.817 80.0909 607.044 80.4091 608.135 81.0455C609.226 81.6818 610.089 82.625 610.726 83.875C611.362 85.125 611.68 86.6667 611.68 88.5C611.68 90.3258 611.355 91.9015 610.703 93.2273C610.059 94.553 609.154 95.5758 607.987 96.2955C606.828 97.0076 605.468 97.3636 603.908 97.3636C602.347 97.3636 600.98 96.9962 599.805 96.2614C598.631 95.5189 597.718 94.4205 597.067 92.9659C596.415 91.5038 596.089 89.697 596.089 87.5455V85.6818C596.089 81.7955 596.749 78.8485 598.067 76.8409C599.393 74.8333 601.385 73.7955 604.044 73.7273C604.983 73.697 605.821 73.6894 606.555 73.7045C607.29 73.7197 607.93 73.6856 608.476 73.6023C609.021 73.5189 609.483 73.3182 609.862 73ZM603.908 94.9545C604.961 94.9545 605.866 94.6894 606.624 94.1591C607.389 93.6288 607.976 92.8826 608.385 91.9205C608.794 90.9508 608.999 89.8106 608.999 88.5C608.999 87.2273 608.79 86.1439 608.374 85.25C607.964 84.3561 607.377 83.6742 606.612 83.2045C605.847 82.7348 604.93 82.5 603.862 82.5C603.082 82.5 602.381 82.6326 601.76 82.8977C601.139 83.1629 600.608 83.553 600.169 84.0682C599.73 84.5833 599.389 85.2121 599.146 85.9545C598.911 86.697 598.786 87.5455 598.771 88.5C598.771 90.4545 599.23 92.0189 600.146 93.1932C601.063 94.3674 602.317 94.9545 603.908 94.9545ZM615.783 97V79.5455H618.464V87.1364H620.237L626.51 79.5455H629.964L622.919 87.9545L630.055 97H626.601L620.874 89.6364H618.464V97H615.783ZM631.425 97V94.5H632.061C632.584 94.5 633.019 94.3977 633.368 94.1932C633.716 93.9811 633.997 93.6136 634.209 93.0909C634.429 92.5606 634.595 91.8258 634.709 90.8864C634.83 89.9394 634.917 88.7348 634.97 87.2727L635.288 79.5455H646.925V97H644.243V82.0455H637.834L637.561 88.2727C637.5 89.7045 637.372 90.9659 637.175 92.0568C636.985 93.1402 636.694 94.0492 636.3 94.7841C635.913 95.5189 635.398 96.072 634.754 96.4432C634.11 96.8144 633.304 97 632.334 97H631.425ZM656.982 97.4091C655.875 97.4091 654.872 97.2008 653.97 96.7841C653.069 96.3598 652.353 95.75 651.822 94.9545C651.292 94.1515 651.027 93.1818 651.027 92.0455C651.027 91.0455 651.224 90.2348 651.618 89.6136C652.012 88.9848 652.538 88.4924 653.197 88.1364C653.857 87.7803 654.584 87.5152 655.379 87.3409C656.182 87.1591 656.989 87.0152 657.8 86.9091C658.86 86.7727 659.72 86.6705 660.379 86.6023C661.046 86.5265 661.531 86.4015 661.834 86.2273C662.144 86.053 662.3 85.75 662.3 85.3182V85.2273C662.3 84.1061 661.993 83.2348 661.379 82.6136C660.773 81.9924 659.853 81.6818 658.618 81.6818C657.338 81.6818 656.334 81.9621 655.607 82.5227C654.879 83.0833 654.368 83.6818 654.072 84.3182L651.527 83.4091C651.982 82.3485 652.588 81.5227 653.345 80.9318C654.11 80.3333 654.944 79.9167 655.845 79.6818C656.754 79.4394 657.648 79.3182 658.527 79.3182C659.088 79.3182 659.732 79.3864 660.459 79.5227C661.194 79.6515 661.902 79.9205 662.584 80.3295C663.273 80.7386 663.845 81.3561 664.3 82.1818C664.754 83.0076 664.982 84.1136 664.982 85.5V97H662.3V94.6364H662.163C661.982 95.0152 661.679 95.4205 661.254 95.8523C660.83 96.2841 660.266 96.6515 659.561 96.9545C658.857 97.2576 657.997 97.4091 656.982 97.4091ZM657.391 95C658.451 95 659.345 94.7917 660.072 94.375C660.807 93.9583 661.36 93.4205 661.732 92.7614C662.11 92.1023 662.3 91.4091 662.3 90.6818V88.2273C662.186 88.3636 661.936 88.4886 661.55 88.6023C661.171 88.7083 660.732 88.803 660.232 88.8864C659.739 88.9621 659.258 89.0303 658.788 89.0909C658.326 89.1439 657.951 89.1894 657.663 89.2273C656.966 89.3182 656.315 89.4659 655.709 89.6705C655.11 89.8674 654.625 90.1667 654.254 90.5682C653.891 90.9621 653.709 91.5 653.709 92.1818C653.709 93.1136 654.054 93.8182 654.743 94.2955C655.44 94.7652 656.322 95 657.391 95ZM668.013 102V94.5H669.467C669.823 94.1288 670.13 93.7273 670.388 93.2955C670.645 92.8636 670.869 92.3523 671.058 91.7614C671.255 91.1629 671.422 90.4356 671.558 89.5795C671.695 88.7159 671.816 87.6742 671.922 86.4545L672.513 79.5455H683.604V94.5H686.286V102H683.604V97H670.695V102H668.013ZM672.513 94.5H680.922V82.0455H675.013L674.558 86.4545C674.369 88.2803 674.134 89.875 673.854 91.2386C673.573 92.6023 673.126 93.6894 672.513 94.5ZM689.845 97V79.5455H692.527V87.1364H694.3L700.572 79.5455H704.027L696.982 87.9545L704.118 97H700.663L694.936 89.6364H692.527V97H689.845ZM712.169 97.4091C711.063 97.4091 710.059 97.2008 709.158 96.7841C708.256 96.3598 707.54 95.75 707.01 94.9545C706.48 94.1515 706.214 93.1818 706.214 92.0455C706.214 91.0455 706.411 90.2348 706.805 89.6136C707.199 88.9848 707.726 88.4924 708.385 88.1364C709.044 87.7803 709.771 87.5152 710.567 87.3409C711.37 87.1591 712.177 87.0152 712.987 86.9091C714.048 86.7727 714.908 86.6705 715.567 86.6023C716.233 86.5265 716.718 86.4015 717.021 86.2273C717.332 86.053 717.487 85.75 717.487 85.3182V85.2273C717.487 84.1061 717.18 83.2348 716.567 82.6136C715.961 81.9924 715.04 81.6818 713.805 81.6818C712.525 81.6818 711.521 81.9621 710.794 82.5227C710.067 83.0833 709.555 83.6818 709.26 84.3182L706.714 83.4091C707.169 82.3485 707.775 81.5227 708.533 80.9318C709.298 80.3333 710.131 79.9167 711.033 79.6818C711.942 79.4394 712.836 79.3182 713.714 79.3182C714.275 79.3182 714.919 79.3864 715.646 79.5227C716.381 79.6515 717.089 79.9205 717.771 80.3295C718.461 80.7386 719.033 81.3561 719.487 82.1818C719.942 83.0076 720.169 84.1136 720.169 85.5V97H717.487V94.6364H717.351C717.169 95.0152 716.866 95.4205 716.442 95.8523C716.018 96.2841 715.453 96.6515 714.749 96.9545C714.044 97.2576 713.184 97.4091 712.169 97.4091ZM712.578 95C713.639 95 714.533 94.7917 715.26 94.375C715.995 93.9583 716.548 93.4205 716.919 92.7614C717.298 92.1023 717.487 91.4091 717.487 90.6818V88.2273C717.374 88.3636 717.124 88.4886 716.737 88.6023C716.358 88.7083 715.919 88.803 715.419 88.8864C714.927 88.9621 714.446 89.0303 713.976 89.0909C713.514 89.1439 713.139 89.1894 712.851 89.2273C712.154 89.3182 711.502 89.4659 710.896 89.6705C710.298 89.8674 709.813 90.1667 709.442 90.5682C709.078 90.9621 708.896 91.5 708.896 92.1818C708.896 93.1136 709.241 93.8182 709.93 94.2955C710.627 94.7652 711.51 95 712.578 95ZM727.064 79.5455L731.246 86.6818L735.428 79.5455H738.518L732.882 88.2727L738.518 97H735.428L731.246 90.2273L727.064 97H723.973L729.518 88.2727L723.973 79.5455H727.064ZM751.345 97V79.5455H754.027V87.1364H755.8L762.072 79.5455H765.527L758.482 87.9545L765.618 97H762.163L756.436 89.6364H754.027V97H751.345ZM774.905 97.3636C773.329 97.3636 771.946 96.9886 770.757 96.2386C769.575 95.4886 768.651 94.4394 767.984 93.0909C767.325 91.7424 766.996 90.1667 766.996 88.3636C766.996 86.5455 767.325 84.9583 767.984 83.6023C768.651 82.2462 769.575 81.1932 770.757 80.4432C771.946 79.6932 773.329 79.3182 774.905 79.3182C776.481 79.3182 777.859 79.6932 779.041 80.4432C780.231 81.1932 781.155 82.2462 781.814 83.6023C782.481 84.9583 782.814 86.5455 782.814 88.3636C782.814 90.1667 782.481 91.7424 781.814 93.0909C781.155 94.4394 780.231 95.4886 779.041 96.2386C777.859 96.9886 776.481 97.3636 774.905 97.3636ZM774.905 94.9545C776.102 94.9545 777.087 94.6477 777.859 94.0341C778.632 93.4205 779.204 92.6136 779.575 91.6136C779.946 90.6136 780.132 89.5303 780.132 88.3636C780.132 87.197 779.946 86.1098 779.575 85.1023C779.204 84.0947 778.632 83.2803 777.859 82.6591C777.087 82.0379 776.102 81.7273 774.905 81.7273C773.708 81.7273 772.723 82.0379 771.95 82.6591C771.178 83.2803 770.606 84.0947 770.234 85.1023C769.863 86.1098 769.678 87.197 769.678 88.3636C769.678 89.5303 769.863 90.6136 770.234 91.6136C770.606 92.6136 771.178 93.4205 771.95 94.0341C772.723 94.6477 773.708 94.9545 774.905 94.9545ZM798.589 87.0455V89.5455H788.953V87.0455H798.589ZM789.589 79.5455V97H786.908V79.5455H789.589ZM800.635 79.5455V97H797.953V79.5455H800.635ZM803.669 102V94.5H805.124C805.48 94.1288 805.786 93.7273 806.044 93.2955C806.302 92.8636 806.525 92.3523 806.714 91.7614C806.911 91.1629 807.078 90.4356 807.214 89.5795C807.351 88.7159 807.472 87.6742 807.578 86.4545L808.169 79.5455H819.26V94.5H821.942V102H819.26V97H806.351V102H803.669ZM808.169 94.5H816.578V82.0455H810.669L810.214 86.4545C810.025 88.2803 809.79 89.875 809.51 91.2386C809.23 92.6023 808.783 93.6894 808.169 94.5ZM832.82 97.3636C831.138 97.3636 829.687 96.9924 828.467 96.25C827.255 95.5 826.32 94.4545 825.661 93.1136C825.009 91.7652 824.683 90.197 824.683 88.4091C824.683 86.6212 825.009 85.0455 825.661 83.6818C826.32 82.3106 827.236 81.2424 828.411 80.4773C829.592 79.7045 830.971 79.3182 832.547 79.3182C833.456 79.3182 834.354 79.4697 835.24 79.7727C836.126 80.0758 836.933 80.5682 837.661 81.25C838.388 81.9242 838.967 82.8182 839.399 83.9318C839.831 85.0455 840.047 86.4167 840.047 88.0455V89.1818H826.592V86.8636H837.32C837.32 85.8788 837.123 85 836.729 84.2273C836.342 83.4545 835.789 82.8447 835.07 82.3977C834.357 81.9508 833.517 81.7273 832.547 81.7273C831.479 81.7273 830.554 81.9924 829.774 82.5227C829.001 83.0455 828.407 83.7273 827.99 84.5682C827.573 85.4091 827.365 86.3106 827.365 87.2727V88.8182C827.365 90.1364 827.592 91.2538 828.047 92.1705C828.509 93.0795 829.149 93.7727 829.967 94.25C830.786 94.7197 831.736 94.9545 832.82 94.9545C833.524 94.9545 834.161 94.8561 834.729 94.6591C835.304 94.4545 835.801 94.1515 836.217 93.75C836.634 93.3409 836.956 92.8333 837.183 92.2273L839.774 92.9545C839.501 93.8333 839.043 94.6061 838.399 95.2727C837.755 95.9318 836.96 96.447 836.013 96.8182C835.066 97.1818 834.001 97.3636 832.82 97.3636ZM855.808 87.0455V89.5455H846.172V87.0455H855.808ZM846.808 79.5455V97H844.126V79.5455H846.808ZM857.854 79.5455V97H855.172V79.5455H857.854ZM869.842 97.3636C868.206 97.3636 866.797 96.9773 865.615 96.2045C864.433 95.4318 863.524 94.3674 862.888 93.0114C862.251 91.6553 861.933 90.1061 861.933 88.3636C861.933 86.5909 862.259 85.0265 862.911 83.6705C863.57 82.3068 864.486 81.2424 865.661 80.4773C866.842 79.7045 868.221 79.3182 869.797 79.3182C871.024 79.3182 872.13 79.5455 873.115 80C874.1 80.4545 874.907 81.0909 875.536 81.9091C876.164 82.7273 876.554 83.6818 876.706 84.7727H874.024C873.82 83.9773 873.365 83.2727 872.661 82.6591C871.964 82.0379 871.024 81.7273 869.842 81.7273C868.797 81.7273 867.88 82 867.092 82.5455C866.312 83.0833 865.702 83.8447 865.263 84.8295C864.831 85.8068 864.615 86.9545 864.615 88.2727C864.615 89.6212 864.827 90.7955 865.251 91.7955C865.683 92.7955 866.289 93.572 867.07 94.125C867.857 94.678 868.782 94.9545 869.842 94.9545C870.539 94.9545 871.172 94.8333 871.74 94.5909C872.308 94.3485 872.789 94 873.183 93.5455C873.577 93.0909 873.857 92.5455 874.024 91.9091H876.706C876.554 92.9394 876.179 93.8674 875.581 94.6932C874.99 95.5114 874.206 96.1629 873.229 96.6477C872.259 97.125 871.13 97.3636 869.842 97.3636ZM885.763 97.4091C884.657 97.4091 883.653 97.2008 882.751 96.7841C881.85 96.3598 881.134 95.75 880.604 94.9545C880.073 94.1515 879.808 93.1818 879.808 92.0455C879.808 91.0455 880.005 90.2348 880.399 89.6136C880.793 88.9848 881.32 88.4924 881.979 88.1364C882.638 87.7803 883.365 87.5152 884.161 87.3409C884.964 87.1591 885.77 87.0152 886.581 86.9091C887.642 86.7727 888.501 86.6705 889.161 86.6023C889.827 86.5265 890.312 86.4015 890.615 86.2273C890.926 86.053 891.081 85.75 891.081 85.3182V85.2273C891.081 84.1061 890.774 83.2348 890.161 82.6136C889.554 81.9924 888.634 81.6818 887.399 81.6818C886.119 81.6818 885.115 81.9621 884.388 82.5227C883.661 83.0833 883.149 83.6818 882.854 84.3182L880.308 83.4091C880.763 82.3485 881.369 81.5227 882.126 80.9318C882.892 80.3333 883.725 79.9167 884.626 79.6818C885.536 79.4394 886.429 79.3182 887.308 79.3182C887.869 79.3182 888.513 79.3864 889.24 79.5227C889.975 79.6515 890.683 79.9205 891.365 80.3295C892.054 80.7386 892.626 81.3561 893.081 82.1818C893.536 83.0076 893.763 84.1136 893.763 85.5V97H891.081V94.6364H890.945C890.763 95.0152 890.46 95.4205 890.036 95.8523C889.611 96.2841 889.047 96.6515 888.342 96.9545C887.638 97.2576 886.778 97.4091 885.763 97.4091ZM886.172 95C887.232 95 888.126 94.7917 888.854 94.375C889.589 93.9583 890.142 93.4205 890.513 92.7614C890.892 92.1023 891.081 91.4091 891.081 90.6818V88.2273C890.967 88.3636 890.717 88.4886 890.331 88.6023C889.952 88.7083 889.513 88.803 889.013 88.8864C888.52 88.9621 888.039 89.0303 887.57 89.0909C887.107 89.1439 886.732 89.1894 886.445 89.2273C885.748 89.3182 885.096 89.4659 884.49 89.6705C883.892 89.8674 883.407 90.1667 883.036 90.5682C882.672 90.9621 882.49 91.5 882.49 92.1818C882.49 93.1136 882.835 93.8182 883.524 94.2955C884.221 94.7652 885.104 95 886.172 95ZM896.283 82.0455V79.5455H910.464V82.0455H904.737V97H902.055V82.0455H896.283ZM920.561 97.3636C918.985 97.3636 917.603 96.9886 916.413 96.2386C915.232 95.4886 914.307 94.4394 913.641 93.0909C912.982 91.7424 912.652 90.1667 912.652 88.3636C912.652 86.5455 912.982 84.9583 913.641 83.6023C914.307 82.2462 915.232 81.1932 916.413 80.4432C917.603 79.6932 918.985 79.3182 920.561 79.3182C922.137 79.3182 923.516 79.6932 924.697 80.4432C925.887 81.1932 926.811 82.2462 927.47 83.6023C928.137 84.9583 928.47 86.5455 928.47 88.3636C928.47 90.1667 928.137 91.7424 927.47 93.0909C926.811 94.4394 925.887 95.4886 924.697 96.2386C923.516 96.9886 922.137 97.3636 920.561 97.3636ZM920.561 94.9545C921.758 94.9545 922.743 94.6477 923.516 94.0341C924.288 93.4205 924.86 92.6136 925.232 91.6136C925.603 90.6136 925.788 89.5303 925.788 88.3636C925.788 87.197 925.603 86.1098 925.232 85.1023C924.86 84.0947 924.288 83.2803 923.516 82.6591C922.743 82.0379 921.758 81.7273 920.561 81.7273C919.364 81.7273 918.379 82.0379 917.607 82.6591C916.834 83.2803 916.262 84.0947 915.891 85.1023C915.519 86.1098 915.334 87.197 915.334 88.3636C915.334 89.5303 915.519 90.6136 915.891 91.6136C916.262 92.6136 916.834 93.4205 917.607 94.0341C918.379 94.6477 919.364 94.9545 920.561 94.9545ZM932.564 103.545V79.5455H935.155V82.3182H935.473C935.67 82.0152 935.943 81.6288 936.291 81.1591C936.647 80.6818 937.155 80.2576 937.814 79.8864C938.481 79.5076 939.382 79.3182 940.518 79.3182C941.988 79.3182 943.284 79.6856 944.405 80.4205C945.526 81.1553 946.401 82.197 947.03 83.5455C947.659 84.8939 947.973 86.4848 947.973 88.3182C947.973 90.1667 947.659 91.7689 947.03 93.125C946.401 94.4735 945.53 95.5189 944.416 96.2614C943.303 96.9962 942.018 97.3636 940.564 97.3636C939.443 97.3636 938.545 97.178 937.871 96.8068C937.196 96.428 936.678 96 936.314 95.5227C935.95 95.0379 935.67 94.6364 935.473 94.3182H935.246V103.545H932.564ZM935.2 88.2727C935.2 89.5909 935.393 90.7538 935.78 91.7614C936.166 92.7614 936.731 93.5455 937.473 94.1136C938.215 94.6742 939.125 94.9545 940.2 94.9545C941.321 94.9545 942.257 94.6591 943.007 94.0682C943.765 93.4697 944.333 92.6667 944.712 91.6591C945.098 90.6439 945.291 89.5152 945.291 88.2727C945.291 87.0455 945.102 85.9394 944.723 84.9545C944.352 83.9621 943.787 83.178 943.03 82.6023C942.28 82.0189 941.337 81.7273 940.2 81.7273C939.109 81.7273 938.193 82.0038 937.45 82.5568C936.708 83.1023 936.147 83.8674 935.768 84.8523C935.39 85.8295 935.2 86.9697 935.2 88.2727ZM957.2 97.4091C956.094 97.4091 955.09 97.2008 954.189 96.7841C953.287 96.3598 952.571 95.75 952.041 94.9545C951.511 94.1515 951.246 93.1818 951.246 92.0455C951.246 91.0455 951.443 90.2348 951.837 89.6136C952.231 88.9848 952.757 88.4924 953.416 88.1364C954.075 87.7803 954.803 87.5152 955.598 87.3409C956.401 87.1591 957.208 87.0152 958.018 86.9091C959.079 86.7727 959.939 86.6705 960.598 86.6023C961.265 86.5265 961.75 86.4015 962.053 86.2273C962.363 86.053 962.518 85.75 962.518 85.3182V85.2273C962.518 84.1061 962.212 83.2348 961.598 82.6136C960.992 81.9924 960.071 81.6818 958.837 81.6818C957.556 81.6818 956.553 81.9621 955.825 82.5227C955.098 83.0833 954.587 83.6818 954.291 84.3182L951.746 83.4091C952.2 82.3485 952.806 81.5227 953.564 80.9318C954.329 80.3333 955.162 79.9167 956.064 79.6818C956.973 79.4394 957.867 79.3182 958.746 79.3182C959.306 79.3182 959.95 79.3864 960.678 79.5227C961.412 79.6515 962.121 79.9205 962.803 80.3295C963.492 80.7386 964.064 81.3561 964.518 82.1818C964.973 83.0076 965.2 84.1136 965.2 85.5V97H962.518V94.6364H962.382C962.2 95.0152 961.897 95.4205 961.473 95.8523C961.049 96.2841 960.484 96.6515 959.78 96.9545C959.075 97.2576 958.215 97.4091 957.2 97.4091ZM957.609 95C958.67 95 959.564 94.7917 960.291 94.375C961.026 93.9583 961.579 93.4205 961.95 92.7614C962.329 92.1023 962.518 91.4091 962.518 90.6818V88.2273C962.405 88.3636 962.155 88.4886 961.768 88.6023C961.39 88.7083 960.95 88.803 960.45 88.8864C959.958 88.9621 959.477 89.0303 959.007 89.0909C958.545 89.1439 958.17 89.1894 957.882 89.2273C957.185 89.3182 956.534 89.4659 955.928 89.6705C955.329 89.8674 954.844 90.1667 954.473 90.5682C954.109 90.9621 953.928 91.5 953.928 92.1818C953.928 93.1136 954.272 93.8182 954.962 94.2955C955.659 94.7652 956.541 95 957.609 95Z" fill="black"/>
</g>
<defs>
<clipPath id="clip0_158_8">
<rect width="1045" height="231" fill="white"/>
</clipPath>
</defs>
</svg>
