<svg width="1045" height="231" viewBox="0 0 1045 231" fill="none" xmlns="http://www.w3.org/2000/svg">
<g clip-path="url(#clip0_158_8)">
<rect x="0.5" y="0.5" width="1044" height="230" stroke="black"/>
<line y1="114.5" x2="1045" y2="114.5" stroke="black"/>
<line x1="472.5" y1="-2.18557e-08" x2="472.5" y2="231" stroke="black"/>
<path d="M59.0526 58V34.7273H66.9162C68.742 34.7273 70.2344 35.0568 71.3935 35.7159C72.5601 36.3674 73.4238 37.25 73.9844 38.3636C74.545 39.4773 74.8253 40.7197 74.8253 42.0909C74.8253 43.4621 74.545 44.7083 73.9844 45.8295C73.4313 46.9508 72.5753 47.8447 71.4162 48.5114C70.2571 49.1705 68.7723 49.5 66.9616 49.5H61.3253V47H66.8707C68.1207 47 69.1245 46.7841 69.8821 46.3523C70.6397 45.9205 71.1889 45.3371 71.5298 44.6023C71.8783 43.8598 72.0526 43.0227 72.0526 42.0909C72.0526 41.1591 71.8783 40.3258 71.5298 39.5909C71.1889 38.8561 70.6359 38.2803 69.8707 37.8636C69.1056 37.4394 68.0904 37.2273 66.8253 37.2273H61.8707V58H59.0526ZM84.1378 58.4091C83.0317 58.4091 82.0279 58.2008 81.1264 57.7841C80.2249 57.3598 79.509 56.75 78.9787 55.9545C78.4484 55.1515 78.1832 54.1818 78.1832 53.0455C78.1832 52.0455 78.3802 51.2348 78.7741 50.6136C79.1681 49.9848 79.6946 49.4924 80.3537 49.1364C81.0128 48.7803 81.7401 48.5152 82.5355 48.3409C83.3385 48.1591 84.1454 48.0152 84.956 47.9091C86.0166 47.7727 86.8764 47.6705 87.5355 47.6023C88.2022 47.5265 88.687 47.4015 88.9901 47.2273C89.3007 47.053 89.456 46.75 89.456 46.3182V46.2273C89.456 45.1061 89.1491 44.2348 88.5355 43.6136C87.9295 42.9924 87.009 42.6818 85.7741 42.6818C84.4938 42.6818 83.4901 42.9621 82.7628 43.5227C82.0355 44.0833 81.5241 44.6818 81.2287 45.3182L78.6832 44.4091C79.1378 43.3485 79.7438 42.5227 80.5014 41.9318C81.2666 41.3333 82.0999 40.9167 83.0014 40.6818C83.9105 40.4394 84.8045 40.3182 85.6832 40.3182C86.2438 40.3182 86.8878 40.3864 87.6151 40.5227C88.3499 40.6515 89.0582 40.9205 89.7401 41.3295C90.4295 41.7386 91.0014 42.3561 91.456 43.1818C91.9105 44.0076 92.1378 45.1136 92.1378 46.5V58H89.456V55.6364H89.3196C89.1378 56.0152 88.8348 56.4205 88.4105 56.8523C87.9863 57.2841 87.4219 57.6515 86.7173 57.9545C86.0128 58.2576 85.1529 58.4091 84.1378 58.4091ZM84.5469 56C85.6075 56 86.5014 55.7917 87.2287 55.375C87.9635 54.9583 88.5166 54.4205 88.8878 53.7614C89.2666 53.1023 89.456 52.4091 89.456 51.6818V49.2273C89.3423 49.3636 89.0923 49.4886 88.706 49.6023C88.3272 49.7083 87.8878 49.803 87.3878 49.8864C86.8954 49.9621 86.4143 50.0303 85.9446 50.0909C85.4825 50.1439 85.1075 50.1894 84.8196 50.2273C84.1226 50.3182 83.4711 50.4659 82.8651 50.6705C82.2666 50.8674 81.7817 51.1667 81.4105 51.5682C81.0469 51.9621 80.8651 52.5 80.8651 53.1818C80.8651 54.1136 81.2098 54.8182 81.8991 55.2955C82.5961 55.7652 83.4787 56 84.5469 56ZM95.169 63V55.5H96.6236C96.9796 55.1288 97.2865 54.7273 97.544 54.2955C97.8016 53.8636 98.0251 53.3523 98.2145 52.7614C98.4115 52.1629 98.5781 51.4356 98.7145 50.5795C98.8509 49.7159 98.9721 48.6742 99.0781 47.4545L99.669 40.5455H110.76V55.5H113.442V63H110.76V58H97.8509V63H95.169ZM99.669 55.5H108.078V43.0455H102.169L101.714 47.4545C101.525 49.2803 101.29 50.875 101.01 52.2386C100.73 53.6023 100.283 54.6894 99.669 55.5ZM119.683 54.0455L128.092 40.5455H131.183V58H128.501V44.5L120.138 58H117.001V40.5455H119.683V54.0455ZM137.197 64.5455C136.743 64.5455 136.338 64.5076 135.982 64.4318C135.625 64.3636 135.379 64.2955 135.243 64.2273L135.925 61.8636C136.576 62.0303 137.152 62.0909 137.652 62.0455C138.152 62 138.595 61.7765 138.982 61.375C139.375 60.9811 139.735 60.3409 140.061 59.4545L140.561 58.0909L134.107 40.5455H137.016L141.834 54.4545H142.016L146.834 40.5455H149.743L142.334 60.5455C142 61.447 141.588 62.1932 141.095 62.7841C140.603 63.3826 140.031 63.8258 139.379 64.1136C138.735 64.4015 138.008 64.5455 137.197 64.5455ZM159.749 58.3636C158.112 58.3636 156.703 57.9773 155.521 57.2045C154.339 56.4318 153.43 55.3674 152.794 54.0114C152.158 52.6553 151.839 51.1061 151.839 49.3636C151.839 47.5909 152.165 46.0265 152.817 44.6705C153.476 43.3068 154.393 42.2424 155.567 41.4773C156.749 40.7045 158.127 40.3182 159.703 40.3182C160.93 40.3182 162.036 40.5455 163.021 41C164.006 41.4545 164.813 42.0909 165.442 42.9091C166.071 43.7273 166.461 44.6818 166.612 45.7727H163.93C163.726 44.9773 163.271 44.2727 162.567 43.6591C161.87 43.0379 160.93 42.7273 159.749 42.7273C158.703 42.7273 157.786 43 156.999 43.5455C156.218 44.0833 155.608 44.8447 155.169 45.8295C154.737 46.8068 154.521 47.9545 154.521 49.2727C154.521 50.6212 154.733 51.7955 155.158 52.7955C155.589 53.7955 156.196 54.572 156.976 55.125C157.764 55.678 158.688 55.9545 159.749 55.9545C160.446 55.9545 161.078 55.8333 161.646 55.5909C162.214 55.3485 162.696 55 163.089 54.5455C163.483 54.0909 163.764 53.5455 163.93 52.9091H166.612C166.461 53.9394 166.086 54.8674 165.487 55.6932C164.896 56.5114 164.112 57.1629 163.135 57.6477C162.165 58.125 161.036 58.3636 159.749 58.3636ZM186.624 58.3636C185.048 58.3636 183.665 57.9886 182.476 57.2386C181.294 56.4886 180.37 55.4394 179.703 54.0909C179.044 52.7424 178.714 51.1667 178.714 49.3636C178.714 47.5455 179.044 45.9583 179.703 44.6023C180.37 43.2462 181.294 42.1932 182.476 41.4432C183.665 40.6932 185.048 40.3182 186.624 40.3182C188.199 40.3182 189.578 40.6932 190.76 41.4432C191.949 42.1932 192.874 43.2462 193.533 44.6023C194.199 45.9583 194.533 47.5455 194.533 49.3636C194.533 51.1667 194.199 52.7424 193.533 54.0909C192.874 55.4394 191.949 56.4886 190.76 57.2386C189.578 57.9886 188.199 58.3636 186.624 58.3636ZM186.624 55.9545C187.821 55.9545 188.805 55.6477 189.578 55.0341C190.351 54.4205 190.923 53.6136 191.294 52.6136C191.665 51.6136 191.851 50.5303 191.851 49.3636C191.851 48.197 191.665 47.1098 191.294 46.1023C190.923 45.0947 190.351 44.2803 189.578 43.6591C188.805 43.0379 187.821 42.7273 186.624 42.7273C185.427 42.7273 184.442 43.0379 183.669 43.6591C182.896 44.2803 182.324 45.0947 181.953 46.1023C181.582 47.1098 181.396 48.197 181.396 49.3636C181.396 50.5303 181.582 51.6136 181.953 52.6136C182.324 53.6136 182.896 54.4205 183.669 55.0341C184.442 55.6477 185.427 55.9545 186.624 55.9545ZM198.626 64.5455V40.5455H201.217V43.3182H201.536C201.732 43.0152 202.005 42.6288 202.354 42.1591C202.71 41.6818 203.217 41.2576 203.876 40.8864C204.543 40.5076 205.445 40.3182 206.581 40.3182C208.051 40.3182 209.346 40.6856 210.467 41.4205C211.589 42.1553 212.464 43.197 213.092 44.5455C213.721 45.8939 214.036 47.4848 214.036 49.3182C214.036 51.1667 213.721 52.7689 213.092 54.125C212.464 55.4735 211.592 56.5189 210.479 57.2614C209.365 57.9962 208.081 58.3636 206.626 58.3636C205.505 58.3636 204.607 58.178 203.933 57.8068C203.259 57.428 202.74 57 202.376 56.5227C202.013 56.0379 201.732 55.6364 201.536 55.3182H201.308V64.5455H198.626ZM201.263 49.2727C201.263 50.5909 201.456 51.7538 201.842 52.7614C202.229 53.7614 202.793 54.5455 203.536 55.1136C204.278 55.6742 205.187 55.9545 206.263 55.9545C207.384 55.9545 208.32 55.6591 209.07 55.0682C209.827 54.4697 210.395 53.6667 210.774 52.6591C211.161 51.6439 211.354 50.5152 211.354 49.2727C211.354 48.0455 211.164 46.9394 210.786 45.9545C210.414 44.9621 209.85 44.178 209.092 43.6023C208.342 43.0189 207.399 42.7273 206.263 42.7273C205.172 42.7273 204.255 43.0038 203.513 43.5568C202.77 44.1023 202.21 44.8674 201.831 45.8523C201.452 46.8295 201.263 47.9697 201.263 49.2727ZM231.081 34L232.445 35.6364C231.914 36.1515 231.301 36.5114 230.604 36.7159C229.907 36.9205 229.119 37.0455 228.24 37.0909C227.361 37.1364 226.384 37.1818 225.308 37.2273C224.096 37.2727 223.092 37.5682 222.297 38.1136C221.501 38.6591 220.888 39.447 220.456 40.4773C220.024 41.5076 219.748 42.7727 219.626 44.2727H219.854C220.445 43.1818 221.263 42.3788 222.308 41.8636C223.354 41.3485 224.475 41.0909 225.672 41.0909C227.036 41.0909 228.263 41.4091 229.354 42.0455C230.445 42.6818 231.308 43.625 231.945 44.875C232.581 46.125 232.899 47.6667 232.899 49.5C232.899 51.3258 232.573 52.9015 231.922 54.2273C231.278 55.553 230.373 56.5758 229.206 57.2955C228.047 58.0076 226.687 58.3636 225.126 58.3636C223.566 58.3636 222.198 57.9962 221.024 57.2614C219.85 56.5189 218.937 55.4205 218.286 53.9659C217.634 52.5038 217.308 50.697 217.308 48.5455V46.6818C217.308 42.7955 217.967 39.8485 219.286 37.8409C220.611 35.8333 222.604 34.7955 225.263 34.7273C226.202 34.697 227.039 34.6894 227.774 34.7045C228.509 34.7197 229.149 34.6856 229.695 34.6023C230.24 34.5189 230.702 34.3182 231.081 34ZM225.126 55.9545C226.179 55.9545 227.085 55.6894 227.842 55.1591C228.607 54.6288 229.195 53.8826 229.604 52.9205C230.013 51.9508 230.217 50.8106 230.217 49.5C230.217 48.2273 230.009 47.1439 229.592 46.25C229.183 45.3561 228.596 44.6742 227.831 44.2045C227.066 43.7348 226.149 43.5 225.081 43.5C224.301 43.5 223.6 43.6326 222.979 43.8977C222.357 44.1629 221.827 44.553 221.388 45.0682C220.948 45.5833 220.607 46.2121 220.365 46.9545C220.13 47.697 220.005 48.5455 219.99 49.5C219.99 51.4545 220.448 53.0189 221.365 54.1932C222.282 55.3674 223.536 55.9545 225.126 55.9545ZM239.683 54.0455L248.092 40.5455H251.183V58H248.501V44.5L240.138 58H237.001V40.5455H239.683V54.0455ZM253.72 43.0455V40.5455H267.902V43.0455H262.175V58H259.493V43.0455H253.72ZM274.132 46.8636H279.132C281.178 46.8636 282.742 47.3826 283.825 48.4205C284.909 49.4583 285.45 50.7727 285.45 52.3636C285.45 53.4091 285.208 54.3598 284.723 55.2159C284.238 56.0644 283.526 56.7424 282.587 57.25C281.647 57.75 280.496 58 279.132 58H271.814V40.5455H274.496V55.5H279.132C280.193 55.5 281.064 55.2197 281.746 54.6591C282.428 54.0985 282.768 53.3788 282.768 52.5C282.768 51.5758 282.428 50.822 281.746 50.2386C281.064 49.6553 280.193 49.3636 279.132 49.3636H274.132V46.8636ZM288.223 58V40.5455H290.905V58H288.223ZM318.268 40.5455V58H315.587V40.5455H318.268ZM317.223 48.8636V51.3636C316.617 51.5909 316.015 51.7917 315.416 51.9659C314.818 52.1326 314.189 52.2652 313.53 52.3636C312.871 52.4545 312.147 52.5 311.359 52.5C309.382 52.5 307.795 51.9659 306.598 50.8977C305.409 49.8295 304.814 48.2273 304.814 46.0909V40.5H307.496V46.0909C307.496 46.9848 307.666 47.7197 308.007 48.2955C308.348 48.8712 308.81 49.2992 309.393 49.5795C309.977 49.8598 310.632 50 311.359 50C312.496 50 313.522 49.8977 314.439 49.6932C315.363 49.4811 316.291 49.2045 317.223 48.8636ZM328.325 58.4091C327.219 58.4091 326.215 58.2008 325.314 57.7841C324.412 57.3598 323.696 56.75 323.166 55.9545C322.636 55.1515 322.371 54.1818 322.371 53.0455C322.371 52.0455 322.568 51.2348 322.962 50.6136C323.356 49.9848 323.882 49.4924 324.541 49.1364C325.2 48.7803 325.928 48.5152 326.723 48.3409C327.526 48.1591 328.333 48.0152 329.143 47.9091C330.204 47.7727 331.064 47.6705 331.723 47.6023C332.39 47.5265 332.875 47.4015 333.178 47.2273C333.488 47.053 333.643 46.75 333.643 46.3182V46.2273C333.643 45.1061 333.337 44.2348 332.723 43.6136C332.117 42.9924 331.196 42.6818 329.962 42.6818C328.681 42.6818 327.678 42.9621 326.95 43.5227C326.223 44.0833 325.712 44.6818 325.416 45.3182L322.871 44.4091C323.325 43.3485 323.931 42.5227 324.689 41.9318C325.454 41.3333 326.287 40.9167 327.189 40.6818C328.098 40.4394 328.992 40.3182 329.871 40.3182C330.431 40.3182 331.075 40.3864 331.803 40.5227C332.537 40.6515 333.246 40.9205 333.928 41.3295C334.617 41.7386 335.189 42.3561 335.643 43.1818C336.098 44.0076 336.325 45.1136 336.325 46.5V58H333.643V55.6364H333.507C333.325 56.0152 333.022 56.4205 332.598 56.8523C332.174 57.2841 331.609 57.6515 330.905 57.9545C330.2 58.2576 329.34 58.4091 328.325 58.4091ZM328.734 56C329.795 56 330.689 55.7917 331.416 55.375C332.151 54.9583 332.704 54.4205 333.075 53.7614C333.454 53.1023 333.643 52.4091 333.643 51.6818V49.2273C333.53 49.3636 333.28 49.4886 332.893 49.6023C332.515 49.7083 332.075 49.803 331.575 49.8864C331.083 49.9621 330.602 50.0303 330.132 50.0909C329.67 50.1439 329.295 50.1894 329.007 50.2273C328.31 50.3182 327.659 50.4659 327.053 50.6705C326.454 50.8674 325.969 51.1667 325.598 51.5682C325.234 51.9621 325.053 52.5 325.053 53.1818C325.053 54.1136 325.397 54.8182 326.087 55.2955C326.784 55.7652 327.666 56 328.734 56ZM348.311 58.3636C346.675 58.3636 345.266 57.9773 344.084 57.2045C342.902 56.4318 341.993 55.3674 341.357 54.0114C340.72 52.6553 340.402 51.1061 340.402 49.3636C340.402 47.5909 340.728 46.0265 341.379 44.6705C342.038 43.3068 342.955 42.2424 344.129 41.4773C345.311 40.7045 346.69 40.3182 348.266 40.3182C349.493 40.3182 350.599 40.5455 351.584 41C352.569 41.4545 353.375 42.0909 354.004 42.9091C354.633 43.7273 355.023 44.6818 355.175 45.7727H352.493C352.288 44.9773 351.834 44.2727 351.129 43.6591C350.432 43.0379 349.493 42.7273 348.311 42.7273C347.266 42.7273 346.349 43 345.561 43.5455C344.781 44.0833 344.171 44.8447 343.732 45.8295C343.3 46.8068 343.084 47.9545 343.084 49.2727C343.084 50.6212 343.296 51.7955 343.72 52.7955C344.152 53.7955 344.758 54.572 345.538 55.125C346.326 55.678 347.25 55.9545 348.311 55.9545C349.008 55.9545 349.641 55.8333 350.209 55.5909C350.777 55.3485 351.258 55 351.652 54.5455C352.046 54.0909 352.326 53.5455 352.493 52.9091H355.175C355.023 53.9394 354.648 54.8674 354.05 55.6932C353.459 56.5114 352.675 57.1629 351.697 57.6477C350.728 58.125 349.599 58.3636 348.311 58.3636ZM357.72 43.0455V40.5455H371.902V43.0455H366.175V58H363.493V43.0455H357.72ZM378.496 54.0455L386.905 40.5455H389.996V58H387.314V44.5L378.95 58H375.814V40.5455H378.496V54.0455ZM408.635 40.5455V55.5H411.089V63.6364H408.408V58H394.908V40.5455H397.589V55.5H405.953V40.5455H408.635Z" fill="black"/>
<path d="M558.162 34.7273H561.526L569.435 54.0455H569.707L577.616 34.7273H580.98V58H578.344V40.3182H578.116L570.844 58H568.298L561.026 40.3182H560.798V58H558.162V34.7273ZM593.358 58.3636C591.782 58.3636 590.4 57.9886 589.21 57.2386C588.028 56.4886 587.104 55.4394 586.438 54.0909C585.778 52.7424 585.449 51.1667 585.449 49.3636C585.449 47.5455 585.778 45.9583 586.438 44.6023C587.104 43.2462 588.028 42.1932 589.21 41.4432C590.4 40.6932 591.782 40.3182 593.358 40.3182C594.934 40.3182 596.313 40.6932 597.494 41.4432C598.684 42.1932 599.608 43.2462 600.267 44.6023C600.934 45.9583 601.267 47.5455 601.267 49.3636C601.267 51.1667 600.934 52.7424 600.267 54.0909C599.608 55.4394 598.684 56.4886 597.494 57.2386C596.313 57.9886 594.934 58.3636 593.358 58.3636ZM593.358 55.9545C594.555 55.9545 595.54 55.6477 596.312 55.0341C597.085 54.4205 597.657 53.6136 598.028 52.6136C598.4 51.6136 598.585 50.5303 598.585 49.3636C598.585 48.197 598.4 47.1098 598.028 46.1023C597.657 45.0947 597.085 44.2803 596.312 43.6591C595.54 43.0379 594.555 42.7273 593.358 42.7273C592.161 42.7273 591.176 43.0379 590.403 43.6591C589.631 44.2803 589.059 45.0947 588.688 46.1023C588.316 47.1098 588.131 48.197 588.131 49.3636C588.131 50.5303 588.316 51.6136 588.688 52.6136C589.059 53.6136 589.631 54.4205 590.403 55.0341C591.176 55.6477 592.161 55.9545 593.358 55.9545ZM603.497 63V55.5H604.952C605.308 55.1288 605.615 54.7273 605.872 54.2955C606.13 53.8636 606.353 53.3523 606.543 52.7614C606.74 52.1629 606.906 51.4356 607.043 50.5795C607.179 49.7159 607.3 48.6742 607.406 47.4545L607.997 40.5455H619.088V55.5H621.77V63H619.088V58H606.179V63H603.497ZM607.997 55.5H616.406V43.0455H610.497L610.043 47.4545C609.853 49.2803 609.618 50.875 609.338 52.2386C609.058 53.6023 608.611 54.6894 607.997 55.5ZM627.057 64.5455C626.602 64.5455 626.197 64.5076 625.841 64.4318C625.485 64.3636 625.239 64.2955 625.102 64.2273L625.784 61.8636C626.436 62.0303 627.011 62.0909 627.511 62.0455C628.011 62 628.455 61.7765 628.841 61.375C629.235 60.9811 629.595 60.3409 629.92 59.4545L630.42 58.0909L623.966 40.5455H626.875L631.693 54.4545H631.875L636.693 40.5455H639.602L632.193 60.5455C631.86 61.447 631.447 62.1932 630.955 62.7841C630.462 63.3826 629.89 63.8258 629.239 64.1136C628.595 64.4015 627.867 64.5455 627.057 64.5455ZM640.128 58V55.5H640.764C641.287 55.5 641.723 55.3977 642.071 55.1932C642.42 54.9811 642.7 54.6136 642.912 54.0909C643.132 53.5606 643.298 52.8258 643.412 51.8864C643.533 50.9394 643.62 49.7348 643.673 48.2727L643.991 40.5455H655.628V58H652.946V43.0455H646.537L646.264 49.2727C646.204 50.7045 646.075 51.9659 645.878 53.0568C645.688 54.1402 645.397 55.0492 645.003 55.7841C644.616 56.5189 644.101 57.072 643.457 57.4432C642.813 57.8144 642.007 58 641.037 58H640.128ZM662.866 46.8636H667.866C669.912 46.8636 671.476 47.3826 672.56 48.4205C673.643 49.4583 674.185 50.7727 674.185 52.3636C674.185 53.4091 673.942 54.3598 673.457 55.2159C672.973 56.0644 672.26 56.7424 671.321 57.25C670.382 57.75 669.23 58 667.866 58H660.548V40.5455H663.23V55.5H667.866C668.927 55.5 669.798 55.2197 670.48 54.6591C671.162 54.0985 671.503 53.3788 671.503 52.5C671.503 51.5758 671.162 50.822 670.48 50.2386C669.798 49.6553 668.927 49.3636 667.866 49.3636H662.866V46.8636ZM688.994 64.5455C688.54 64.5455 688.134 64.5076 687.778 64.4318C687.422 64.3636 687.176 64.2955 687.04 64.2273L687.722 61.8636C688.373 62.0303 688.949 62.0909 689.449 62.0455C689.949 62 690.392 61.7765 690.778 61.375C691.172 60.9811 691.532 60.3409 691.858 59.4545L692.358 58.0909L685.903 40.5455H688.812L693.631 54.4545H693.812L698.631 40.5455H701.54L694.131 60.5455C693.797 61.447 693.384 62.1932 692.892 62.7841C692.4 63.3826 691.828 63.8258 691.176 64.1136C690.532 64.4015 689.805 64.5455 688.994 64.5455ZM711.545 58.3636C709.909 58.3636 708.5 57.9773 707.318 57.2045C706.136 56.4318 705.227 55.3674 704.591 54.0114C703.955 52.6553 703.636 51.1061 703.636 49.3636C703.636 47.5909 703.962 46.0265 704.614 44.6705C705.273 43.3068 706.189 42.2424 707.364 41.4773C708.545 40.7045 709.924 40.3182 711.5 40.3182C712.727 40.3182 713.833 40.5455 714.818 41C715.803 41.4545 716.61 42.0909 717.239 42.9091C717.867 43.7273 718.258 44.6818 718.409 45.7727H715.727C715.523 44.9773 715.068 44.2727 714.364 43.6591C713.667 43.0379 712.727 42.7273 711.545 42.7273C710.5 42.7273 709.583 43 708.795 43.5455C708.015 44.0833 707.405 44.8447 706.966 45.8295C706.534 46.8068 706.318 47.9545 706.318 49.2727C706.318 50.6212 706.53 51.7955 706.955 52.7955C707.386 53.7955 707.992 54.572 708.773 55.125C709.561 55.678 710.485 55.9545 711.545 55.9545C712.242 55.9545 712.875 55.8333 713.443 55.5909C714.011 55.3485 714.492 55 714.886 54.5455C715.28 54.0909 715.561 53.5455 715.727 52.9091H718.409C718.258 53.9394 717.883 54.8674 717.284 55.6932C716.693 56.5114 715.909 57.1629 714.932 57.6477C713.962 58.125 712.833 58.3636 711.545 58.3636ZM722.33 58V40.5455H725.011V48.1364H726.784L733.057 40.5455H736.511L729.466 48.9545L736.602 58H733.148L727.42 50.6364H725.011V58H722.33ZM745.889 58.3636C744.313 58.3636 742.931 57.9886 741.741 57.2386C740.56 56.4886 739.635 55.4394 738.969 54.0909C738.31 52.7424 737.98 51.1667 737.98 49.3636C737.98 47.5455 738.31 45.9583 738.969 44.6023C739.635 43.2462 740.56 42.1932 741.741 41.4432C742.931 40.6932 744.313 40.3182 745.889 40.3182C747.465 40.3182 748.844 40.6932 750.026 41.4432C751.215 42.1932 752.139 43.2462 752.798 44.6023C753.465 45.9583 753.798 47.5455 753.798 49.3636C753.798 51.1667 753.465 52.7424 752.798 54.0909C752.139 55.4394 751.215 56.4886 750.026 57.2386C748.844 57.9886 747.465 58.3636 745.889 58.3636ZM745.889 55.9545C747.086 55.9545 748.071 55.6477 748.844 55.0341C749.616 54.4205 750.188 53.6136 750.56 52.6136C750.931 51.6136 751.116 50.5303 751.116 49.3636C751.116 48.197 750.931 47.1098 750.56 46.1023C750.188 45.0947 749.616 44.2803 748.844 43.6591C748.071 43.0379 747.086 42.7273 745.889 42.7273C744.692 42.7273 743.707 43.0379 742.935 43.6591C742.162 44.2803 741.59 45.0947 741.219 46.1023C740.848 47.1098 740.662 48.197 740.662 49.3636C740.662 50.5303 740.848 51.6136 741.219 52.6136C741.59 53.6136 742.162 54.4205 742.935 55.0341C743.707 55.6477 744.692 55.9545 745.889 55.9545ZM757.892 64.5455V40.5455H760.483V43.3182H760.801C760.998 43.0152 761.271 42.6288 761.619 42.1591C761.975 41.6818 762.483 41.2576 763.142 40.8864C763.809 40.5076 764.71 40.3182 765.847 40.3182C767.316 40.3182 768.612 40.6856 769.733 41.4205C770.854 42.1553 771.729 43.197 772.358 44.5455C772.987 45.8939 773.301 47.4848 773.301 49.3182C773.301 51.1667 772.987 52.7689 772.358 54.125C771.729 55.4735 770.858 56.5189 769.744 57.2614C768.631 57.9962 767.347 58.3636 765.892 58.3636C764.771 58.3636 763.873 58.178 763.199 57.8068C762.525 57.428 762.006 57 761.642 56.5227C761.278 56.0379 760.998 55.6364 760.801 55.3182H760.574V64.5455H757.892ZM760.528 49.2727C760.528 50.5909 760.722 51.7538 761.108 52.7614C761.494 53.7614 762.059 54.5455 762.801 55.1136C763.544 55.6742 764.453 55.9545 765.528 55.9545C766.65 55.9545 767.585 55.6591 768.335 55.0682C769.093 54.4697 769.661 53.6667 770.04 52.6591C770.426 51.6439 770.619 50.5152 770.619 49.2727C770.619 48.0455 770.43 46.9394 770.051 45.9545C769.68 44.9621 769.116 44.178 768.358 43.6023C767.608 43.0189 766.665 42.7273 765.528 42.7273C764.438 42.7273 763.521 43.0038 762.778 43.5568C762.036 44.1023 761.475 44.8674 761.097 45.8523C760.718 46.8295 760.528 47.9697 760.528 49.2727ZM784.71 58.3636C783.028 58.3636 781.578 57.9924 780.358 57.25C779.146 56.5 778.21 55.4545 777.551 54.1136C776.9 52.7652 776.574 51.197 776.574 49.4091C776.574 47.6212 776.9 46.0455 777.551 44.6818C778.21 43.3106 779.127 42.2424 780.301 41.4773C781.483 40.7045 782.862 40.3182 784.438 40.3182C785.347 40.3182 786.244 40.4697 787.131 40.7727C788.017 41.0758 788.824 41.5682 789.551 42.25C790.278 42.9242 790.858 43.8182 791.29 44.9318C791.722 46.0455 791.938 47.4167 791.938 49.0455V50.1818H778.483V47.8636H789.21C789.21 46.8788 789.013 46 788.619 45.2273C788.233 44.4545 787.68 43.8447 786.96 43.3977C786.248 42.9508 785.407 42.7273 784.438 42.7273C783.369 42.7273 782.445 42.9924 781.665 43.5227C780.892 44.0455 780.297 44.7273 779.881 45.5682C779.464 46.4091 779.256 47.3106 779.256 48.2727V49.8182C779.256 51.1364 779.483 52.2538 779.938 53.1705C780.4 54.0795 781.04 54.7727 781.858 55.25C782.676 55.7197 783.627 55.9545 784.71 55.9545C785.415 55.9545 786.051 55.8561 786.619 55.6591C787.195 55.4545 787.691 55.1515 788.108 54.75C788.525 54.3409 788.847 53.8333 789.074 53.2273L791.665 53.9545C791.392 54.8333 790.934 55.6061 790.29 56.2727C789.646 56.9318 788.85 57.447 787.903 57.8182C786.956 58.1818 785.892 58.3636 784.71 58.3636ZM807.699 48.0455V50.5455H798.062V48.0455H807.699ZM798.699 40.5455V58H796.017V40.5455H798.699ZM809.744 40.5455V58H807.062V40.5455H809.744ZM817.324 54.0455L825.733 40.5455H828.824V58H826.142V44.5L817.778 58H814.642V40.5455H817.324V54.0455ZM844.236 58V43H839.599C838.554 43 837.732 43.2424 837.134 43.7273C836.535 44.2121 836.236 44.8788 836.236 45.7273C836.236 46.5606 836.505 47.2159 837.043 47.6932C837.588 48.1705 838.334 48.4091 839.281 48.4091H844.918V50.9091H839.281C838.099 50.9091 837.08 50.7008 836.224 50.2841C835.368 49.8674 834.709 49.2727 834.247 48.5C833.785 47.7197 833.554 46.7955 833.554 45.7273C833.554 44.6515 833.796 43.7273 834.281 42.9545C834.766 42.1818 835.459 41.5871 836.361 41.1705C837.27 40.7538 838.349 40.5455 839.599 40.5455H846.781V58H844.236ZM832.599 58L837.554 49.3182H840.463L835.509 58H832.599ZM874.159 40.5455V58H871.477V40.5455H874.159ZM873.114 48.8636V51.3636C872.508 51.5909 871.905 51.7917 871.307 51.9659C870.708 52.1326 870.08 52.2652 869.42 52.3636C868.761 52.4545 868.038 52.5 867.25 52.5C865.273 52.5 863.686 51.9659 862.489 50.8977C861.299 49.8295 860.705 48.2273 860.705 46.0909V40.5H863.386V46.0909C863.386 46.9848 863.557 47.7197 863.898 48.2955C864.239 48.8712 864.701 49.2992 865.284 49.5795C865.867 49.8598 866.523 50 867.25 50C868.386 50 869.413 49.8977 870.33 49.6932C871.254 49.4811 872.182 49.2045 873.114 48.8636ZM884.216 58.4091C883.11 58.4091 882.106 58.2008 881.205 57.7841C880.303 57.3598 879.587 56.75 879.057 55.9545C878.527 55.1515 878.261 54.1818 878.261 53.0455C878.261 52.0455 878.458 51.2348 878.852 50.6136C879.246 49.9848 879.773 49.4924 880.432 49.1364C881.091 48.7803 881.818 48.5152 882.614 48.3409C883.417 48.1591 884.223 48.0152 885.034 47.9091C886.095 47.7727 886.955 47.6705 887.614 47.6023C888.28 47.5265 888.765 47.4015 889.068 47.2273C889.379 47.053 889.534 46.75 889.534 46.3182V46.2273C889.534 45.1061 889.227 44.2348 888.614 43.6136C888.008 42.9924 887.087 42.6818 885.852 42.6818C884.572 42.6818 883.568 42.9621 882.841 43.5227C882.114 44.0833 881.602 44.6818 881.307 45.3182L878.761 44.4091C879.216 43.3485 879.822 42.5227 880.58 41.9318C881.345 41.3333 882.178 40.9167 883.08 40.6818C883.989 40.4394 884.883 40.3182 885.761 40.3182C886.322 40.3182 886.966 40.3864 887.693 40.5227C888.428 40.6515 889.136 40.9205 889.818 41.3295C890.508 41.7386 891.08 42.3561 891.534 43.1818C891.989 44.0076 892.216 45.1136 892.216 46.5V58H889.534V55.6364H889.398C889.216 56.0152 888.913 56.4205 888.489 56.8523C888.064 57.2841 887.5 57.6515 886.795 57.9545C886.091 58.2576 885.231 58.4091 884.216 58.4091ZM884.625 56C885.686 56 886.58 55.7917 887.307 55.375C888.042 54.9583 888.595 54.4205 888.966 53.7614C889.345 53.1023 889.534 52.4091 889.534 51.6818V49.2273C889.42 49.3636 889.17 49.4886 888.784 49.6023C888.405 49.7083 887.966 49.803 887.466 49.8864C886.973 49.9621 886.492 50.0303 886.023 50.0909C885.561 50.1439 885.186 50.1894 884.898 50.2273C884.201 50.3182 883.549 50.4659 882.943 50.6705C882.345 50.8674 881.86 51.1667 881.489 51.5682C881.125 51.9621 880.943 52.5 880.943 53.1818C880.943 54.1136 881.288 54.8182 881.977 55.2955C882.674 55.7652 883.557 56 884.625 56ZM904.202 58.3636C902.565 58.3636 901.156 57.9773 899.974 57.2045C898.793 56.4318 897.884 55.3674 897.247 54.0114C896.611 52.6553 896.293 51.1061 896.293 49.3636C896.293 47.5909 896.618 46.0265 897.27 44.6705C897.929 43.3068 898.846 42.2424 900.02 41.4773C901.202 40.7045 902.58 40.3182 904.156 40.3182C905.384 40.3182 906.49 40.5455 907.474 41C908.459 41.4545 909.266 42.0909 909.895 42.9091C910.524 43.7273 910.914 44.6818 911.065 45.7727H908.384C908.179 44.9773 907.724 44.2727 907.02 43.6591C906.323 43.0379 905.384 42.7273 904.202 42.7273C903.156 42.7273 902.24 43 901.452 43.5455C900.671 44.0833 900.062 44.8447 899.622 45.8295C899.19 46.8068 898.974 47.9545 898.974 49.2727C898.974 50.6212 899.187 51.7955 899.611 52.7955C900.043 53.7955 900.649 54.572 901.429 55.125C902.217 55.678 903.141 55.9545 904.202 55.9545C904.899 55.9545 905.531 55.8333 906.099 55.5909C906.668 55.3485 907.149 55 907.543 54.5455C907.937 54.0909 908.217 53.5455 908.384 52.9091H911.065C910.914 53.9394 910.539 54.8674 909.94 55.6932C909.349 56.5114 908.565 57.1629 907.588 57.6477C906.618 58.125 905.49 58.3636 904.202 58.3636ZM913.611 43.0455V40.5455H927.793V43.0455H922.065V58H919.384V43.0455H913.611ZM934.386 54.0455L942.795 40.5455H945.886V58H943.205V44.5L934.841 58H931.705V40.5455H934.386V54.0455ZM964.526 40.5455V55.5H966.98V63.6364H964.298V58H950.798V40.5455H953.48V55.5H961.844V40.5455H964.526ZM973.429 46.8636H978.429C980.474 46.8636 982.039 47.3826 983.122 48.4205C984.205 49.4583 984.747 50.7727 984.747 52.3636C984.747 53.4091 984.505 54.3598 984.02 55.2159C983.535 56.0644 982.823 56.7424 981.884 57.25C980.944 57.75 979.793 58 978.429 58H971.111V40.5455H973.793V55.5H978.429C979.49 55.5 980.361 55.2197 981.043 54.6591C981.724 54.0985 982.065 53.3788 982.065 52.5C982.065 51.5758 981.724 50.822 981.043 50.2386C980.361 49.6553 979.49 49.3636 978.429 49.3636H973.429V46.8636ZM987.52 58V40.5455H990.202V58H987.52Z" fill="black"/>
</g>
<defs>
<clipPath id="clip0_158_8">
<rect width="1045" height="231" fill="white"/>
</clipPath>
</defs>
</svg>
