<svg width="1045" height="231" viewBox="0 0 1045 231" fill="none" xmlns="http://www.w3.org/2000/svg">
<g clip-path="url(#clip0_158_8)">
<rect x="0.5" y="0.5" width="1044" height="230" stroke="black"/>
<line y1="114.5" x2="1045" y2="114.5" stroke="black"/>
<line x1="472.5" y1="-2.18557e-08" x2="472.5" y2="231" stroke="black"/>
<path d="M110.932 54H107.409C107.201 52.9867 106.836 52.0966 106.315 51.3295C105.804 50.5625 105.179 49.9186 104.44 49.3977C103.711 48.8674 102.902 48.4697 102.011 48.2045C101.121 47.9394 100.193 47.8068 99.2273 47.8068C97.4659 47.8068 95.8703 48.2519 94.4403 49.142C93.0199 50.0322 91.8883 51.3438 91.0455 53.0767C90.2121 54.8097 89.7955 56.9356 89.7955 59.4545C89.7955 61.9735 90.2121 64.0994 91.0455 65.8324C91.8883 67.5653 93.0199 68.8769 94.4403 69.767C95.8703 70.6572 97.4659 71.1023 99.2273 71.1023C100.193 71.1023 101.121 70.9697 102.011 70.7045C102.902 70.4394 103.711 70.0464 104.44 69.5256C105.179 68.9953 105.804 68.3466 106.315 67.5795C106.836 66.803 107.201 65.9129 107.409 64.9091H110.932C110.667 66.3958 110.184 67.7263 109.483 68.9006C108.782 70.0748 107.911 71.0739 106.869 71.8977C105.828 72.7121 104.658 73.3324 103.361 73.7585C102.073 74.1847 100.695 74.3977 99.2273 74.3977C96.7462 74.3977 94.5398 73.7917 92.608 72.5795C90.6761 71.3674 89.1563 69.6439 88.0483 67.4091C86.9403 65.1742 86.3864 62.5227 86.3864 59.4545C86.3864 56.3864 86.9403 53.7348 88.0483 51.5C89.1563 49.2652 90.6761 47.5417 92.608 46.3295C94.5398 45.1174 96.7462 44.5114 99.2273 44.5114C100.695 44.5114 102.073 44.7244 103.361 45.1506C104.658 45.5767 105.828 46.2017 106.869 47.0256C107.911 47.84 108.782 48.8343 109.483 50.0085C110.184 51.1733 110.667 52.5038 110.932 54ZM116.17 74V52.1818H119.522V61.6705H121.738L129.579 52.1818H133.897L125.09 62.6932L134.011 74H129.692L122.533 64.7955H119.522V74H116.17ZM145.619 74.4545C143.65 74.4545 141.921 73.9858 140.435 73.0483C138.957 72.1108 137.802 70.7992 136.969 69.1136C136.145 67.428 135.733 65.4583 135.733 63.2045C135.733 60.9318 136.145 58.9479 136.969 57.2528C137.802 55.5578 138.957 54.2415 140.435 53.304C141.921 52.3665 143.65 51.8977 145.619 51.8977C147.589 51.8977 149.313 52.3665 150.79 53.304C152.277 54.2415 153.432 55.5578 154.256 57.2528C155.089 58.9479 155.506 60.9318 155.506 63.2045C155.506 65.4583 155.089 67.428 154.256 69.1136C153.432 70.7992 152.277 72.1108 150.79 73.0483C149.313 73.9858 147.589 74.4545 145.619 74.4545ZM145.619 71.4432C147.116 71.4432 148.347 71.0597 149.312 70.2926C150.278 69.5256 150.993 68.517 151.457 67.267C151.921 66.017 152.153 64.6629 152.153 63.2045C152.153 61.7462 151.921 60.3873 151.457 59.1278C150.993 57.8684 150.278 56.8504 149.312 56.0739C148.347 55.2973 147.116 54.9091 145.619 54.9091C144.123 54.9091 142.892 55.2973 141.926 56.0739C140.96 56.8504 140.245 57.8684 139.781 59.1278C139.317 60.3873 139.085 61.7462 139.085 63.2045C139.085 64.6629 139.317 66.017 139.781 67.267C140.245 68.517 140.96 69.5256 141.926 70.2926C142.892 71.0597 144.123 71.4432 145.619 71.4432ZM160.623 82.1818V52.1818H163.862V55.6477H164.259C164.505 55.2689 164.846 54.786 165.282 54.1989C165.727 53.6023 166.362 53.072 167.185 52.608C168.019 52.1345 169.146 51.8977 170.566 51.8977C172.403 51.8977 174.022 52.357 175.424 53.2756C176.826 54.1941 177.919 55.4962 178.705 57.1818C179.491 58.8674 179.884 60.8561 179.884 63.1477C179.884 65.4583 179.491 67.4612 178.705 69.1562C177.919 70.8419 176.83 72.1487 175.438 73.0767C174.046 73.9953 172.441 74.4545 170.623 74.4545C169.221 74.4545 168.099 74.2225 167.256 73.7585C166.414 73.285 165.765 72.75 165.31 72.1534C164.856 71.5473 164.505 71.0455 164.259 70.6477H163.975V82.1818H160.623ZM163.918 63.0909C163.918 64.7386 164.16 66.1922 164.643 67.4517C165.126 68.7017 165.831 69.6818 166.759 70.392C167.687 71.0928 168.824 71.4432 170.168 71.4432C171.57 71.4432 172.739 71.0739 173.677 70.3352C174.624 69.5871 175.334 68.5833 175.808 67.3239C176.29 66.0549 176.532 64.6439 176.532 63.0909C176.532 61.5568 176.295 60.1742 175.822 58.9432C175.358 57.7027 174.652 56.7225 173.705 56.0028C172.768 55.2737 171.589 54.9091 170.168 54.9091C168.805 54.9091 167.659 55.2547 166.731 55.946C165.803 56.6278 165.102 57.5843 164.629 58.8153C164.155 60.0369 163.918 61.4621 163.918 63.0909ZM193.862 74.4545C191.892 74.4545 190.164 73.9858 188.677 73.0483C187.2 72.1108 186.044 70.7992 185.211 69.1136C184.387 67.428 183.975 65.4583 183.975 63.2045C183.975 60.9318 184.387 58.9479 185.211 57.2528C186.044 55.5578 187.2 54.2415 188.677 53.304C190.164 52.3665 191.892 51.8977 193.862 51.8977C195.831 51.8977 197.555 52.3665 199.032 53.304C200.519 54.2415 201.674 55.5578 202.498 57.2528C203.331 58.9479 203.748 60.9318 203.748 63.2045C203.748 65.4583 203.331 67.428 202.498 69.1136C201.674 70.7992 200.519 72.1108 199.032 73.0483C197.555 73.9858 195.831 74.4545 193.862 74.4545ZM193.862 71.4432C195.358 71.4432 196.589 71.0597 197.555 70.2926C198.521 69.5256 199.236 68.517 199.7 67.267C200.164 66.017 200.396 64.6629 200.396 63.2045C200.396 61.7462 200.164 60.3873 199.7 59.1278C199.236 57.8684 198.521 56.8504 197.555 56.0739C196.589 55.2973 195.358 54.9091 193.862 54.9091C192.365 54.9091 191.134 55.2973 190.168 56.0739C189.202 56.8504 188.487 57.8684 188.023 59.1278C187.559 60.3873 187.327 61.7462 187.327 63.2045C187.327 64.6629 187.559 66.017 188.023 67.267C188.487 68.517 189.202 69.5256 190.168 70.2926C191.134 71.0597 192.365 71.4432 193.862 71.4432ZM217.729 74.4545C215.683 74.4545 213.922 73.9716 212.445 73.0057C210.967 72.0398 209.831 70.7093 209.036 69.0142C208.24 67.3191 207.842 65.3826 207.842 63.2045C207.842 60.9886 208.25 59.0331 209.064 57.3381C209.888 55.6335 211.034 54.303 212.501 53.3466C213.979 52.3807 215.702 51.8977 217.672 51.8977C219.206 51.8977 220.589 52.1818 221.82 52.75C223.051 53.3182 224.059 54.1136 224.845 55.1364C225.631 56.1591 226.119 57.3523 226.308 58.7159H222.956C222.7 57.7216 222.132 56.8409 221.251 56.0739C220.38 55.2973 219.206 54.9091 217.729 54.9091C216.422 54.9091 215.276 55.25 214.291 55.9318C213.316 56.6042 212.554 57.5559 212.004 58.7869C211.464 60.0085 211.195 61.4432 211.195 63.0909C211.195 64.7765 211.46 66.2443 211.99 67.4943C212.53 68.7443 213.287 69.715 214.263 70.4062C215.248 71.0975 216.403 71.4432 217.729 71.4432C218.6 71.4432 219.391 71.2917 220.101 70.9886C220.811 70.6856 221.412 70.25 221.905 69.6818C222.397 69.1136 222.748 68.4318 222.956 67.6364H226.308C226.119 68.9242 225.65 70.0843 224.902 71.1165C224.163 72.1392 223.183 72.9536 221.962 73.5597C220.75 74.1562 219.339 74.4545 217.729 74.4545ZM229.49 55.3068V52.1818H247.217V55.3068H240.058V74H236.706V55.3068H229.49ZM255.005 60.0795H261.255C263.812 60.0795 265.767 60.7282 267.121 62.0256C268.476 63.3229 269.153 64.9659 269.153 66.9545C269.153 68.2614 268.85 69.4498 268.244 70.5199C267.638 71.5805 266.747 72.428 265.573 73.0625C264.399 73.6875 262.96 74 261.255 74H252.107V52.1818H255.46V70.875H261.255C262.581 70.875 263.67 70.5246 264.522 69.8239C265.374 69.1231 265.8 68.2235 265.8 67.125C265.8 65.9697 265.374 65.0275 264.522 64.2983C263.67 63.5691 262.581 63.2045 261.255 63.2045H255.005V60.0795ZM284.142 68.4318H287.722C287.797 69.4167 288.242 70.1648 289.057 70.6761C289.881 71.1875 290.951 71.4432 292.267 71.4432C293.612 71.4432 294.762 71.1686 295.719 70.6193C296.675 70.0606 297.153 69.161 297.153 67.9205C297.153 67.1913 296.973 66.5568 296.614 66.017C296.254 65.4678 295.747 65.0417 295.094 64.7386C294.44 64.4356 293.669 64.2841 292.778 64.2841H289.028V61.2727H292.778C294.114 61.2727 295.098 60.9697 295.733 60.3636C296.377 59.7576 296.699 59 296.699 58.0909C296.699 57.1155 296.353 56.3343 295.662 55.7472C294.971 55.1506 293.991 54.8523 292.722 54.8523C291.443 54.8523 290.378 55.1411 289.526 55.7188C288.673 56.2869 288.223 57.0208 288.176 57.9205H284.653C284.691 56.7462 285.051 55.7093 285.733 54.8097C286.415 53.9006 287.343 53.1903 288.517 52.679C289.691 52.1581 291.036 51.8977 292.551 51.8977C294.085 51.8977 295.416 52.1676 296.543 52.7074C297.679 53.2377 298.555 53.9621 299.17 54.8807C299.795 55.7898 300.108 56.822 300.108 57.9773C300.108 59.2083 299.762 60.2027 299.071 60.9602C298.38 61.7178 297.513 62.2576 296.472 62.5795V62.8068C297.295 62.8636 298.01 63.1288 298.616 63.6023C299.232 64.0663 299.71 64.6771 300.051 65.4347C300.392 66.1828 300.562 67.0114 300.562 67.9205C300.562 69.2462 300.207 70.4015 299.497 71.3864C298.787 72.3617 297.812 73.1193 296.571 73.6591C295.33 74.1894 293.915 74.4545 292.324 74.4545C290.78 74.4545 289.398 74.2036 288.176 73.7017C286.955 73.1903 285.984 72.4848 285.264 71.5852C284.554 70.6761 284.18 69.625 284.142 68.4318ZM314.135 74.4545C312.165 74.4545 310.437 73.9858 308.95 73.0483C307.473 72.1108 306.318 70.7992 305.484 69.1136C304.661 67.428 304.249 65.4583 304.249 63.2045C304.249 60.9318 304.661 58.9479 305.484 57.2528C306.318 55.5578 307.473 54.2415 308.95 53.304C310.437 52.3665 312.165 51.8977 314.135 51.8977C316.105 51.8977 317.828 52.3665 319.305 53.304C320.792 54.2415 321.947 55.5578 322.771 57.2528C323.605 58.9479 324.021 60.9318 324.021 63.2045C324.021 65.4583 323.605 67.428 322.771 69.1136C321.947 70.7992 320.792 72.1108 319.305 73.0483C317.828 73.9858 316.105 74.4545 314.135 74.4545ZM314.135 71.4432C315.631 71.4432 316.862 71.0597 317.828 70.2926C318.794 69.5256 319.509 68.517 319.973 67.267C320.437 66.017 320.669 64.6629 320.669 63.2045C320.669 61.7462 320.437 60.3873 319.973 59.1278C319.509 57.8684 318.794 56.8504 317.828 56.0739C316.862 55.2973 315.631 54.9091 314.135 54.9091C312.639 54.9091 311.408 55.2973 310.442 56.0739C309.476 56.8504 308.761 57.8684 308.297 59.1278C307.833 60.3873 307.601 61.7462 307.601 63.2045C307.601 64.6629 307.833 66.017 308.297 67.267C308.761 68.517 309.476 69.5256 310.442 70.2926C311.408 71.0597 312.639 71.4432 314.135 71.4432ZM343.741 61.5568V64.6818H331.695V61.5568H343.741ZM332.491 52.1818V74H329.138V52.1818H332.491ZM346.298 52.1818V74H342.945V52.1818H346.298ZM350.09 80.25V70.875H351.908C352.353 70.411 352.737 69.9091 353.059 69.3693C353.381 68.8295 353.66 68.1903 353.897 67.4517C354.143 66.7036 354.352 65.7945 354.522 64.7244C354.692 63.6449 354.844 62.3428 354.977 60.8182L355.715 52.1818H369.579V70.875H372.931V80.25H369.579V74H353.442V80.25H350.09ZM355.715 70.875H366.227V55.3068H358.84L358.272 60.8182C358.035 63.1004 357.742 65.0937 357.391 66.7983C357.041 68.5028 356.482 69.8617 355.715 70.875ZM383.801 74.5114C382.419 74.5114 381.164 74.2509 380.037 73.7301C378.91 73.1998 378.015 72.4375 377.352 71.4432C376.689 70.4394 376.358 69.2273 376.358 67.8068C376.358 66.5568 376.604 65.5436 377.097 64.767C377.589 63.9811 378.247 63.3655 379.071 62.9205C379.895 62.4754 380.804 62.1439 381.798 61.9261C382.802 61.6989 383.811 61.5189 384.824 61.3864C386.15 61.2159 387.224 61.0881 388.048 61.0028C388.882 60.9081 389.488 60.7519 389.866 60.5341C390.255 60.3163 390.449 59.9375 390.449 59.3977V59.2841C390.449 57.8826 390.065 56.7936 389.298 56.017C388.541 55.2405 387.39 54.8523 385.847 54.8523C384.246 54.8523 382.991 55.2027 382.082 55.9034C381.173 56.6042 380.534 57.3523 380.165 58.1477L376.983 57.0114C377.551 55.6856 378.309 54.6534 379.256 53.9148C380.212 53.1667 381.254 52.6458 382.381 52.3523C383.517 52.0492 384.634 51.8977 385.733 51.8977C386.434 51.8977 387.239 51.983 388.148 52.1534C389.066 52.3144 389.952 52.6506 390.804 53.1619C391.666 53.6733 392.381 54.4451 392.949 55.4773C393.517 56.5095 393.801 57.892 393.801 59.625V74H390.449V71.0455H390.278C390.051 71.5189 389.672 72.0256 389.142 72.5653C388.612 73.1051 387.906 73.5644 387.026 73.9432C386.145 74.322 385.07 74.5114 383.801 74.5114ZM384.312 71.5C385.638 71.5 386.756 71.2396 387.665 70.7188C388.583 70.1979 389.275 69.5256 389.739 68.7017C390.212 67.8778 390.449 67.0114 390.449 66.1023V63.0341C390.307 63.2045 389.994 63.3608 389.511 63.5028C389.038 63.6354 388.489 63.7538 387.864 63.858C387.248 63.9527 386.647 64.0379 386.06 64.1136C385.482 64.1799 385.013 64.2367 384.653 64.2841C383.782 64.3977 382.968 64.5824 382.21 64.8381C381.462 65.0843 380.856 65.4583 380.392 65.9602C379.938 66.4527 379.71 67.125 379.71 67.9773C379.71 69.142 380.141 70.0227 381.003 70.6193C381.874 71.2064 382.977 71.5 384.312 71.5Z" fill="black"/>
<path d="M528.284 44.9091V74H524.761V48.0341H510.102V74H506.58V44.9091H528.284ZM544.083 74.4545C541.981 74.4545 540.167 73.9905 538.643 73.0625C537.128 72.125 535.958 70.8182 535.134 69.142C534.32 67.4564 533.913 65.4962 533.913 63.2614C533.913 61.0265 534.32 59.0568 535.134 57.3523C535.958 55.6383 537.104 54.303 538.572 53.3466C540.049 52.3807 541.772 51.8977 543.742 51.8977C544.879 51.8977 546.001 52.0871 547.109 52.4659C548.217 52.8447 549.225 53.4602 550.134 54.3125C551.043 55.1553 551.768 56.2727 552.308 57.6648C552.847 59.0568 553.117 60.7708 553.117 62.8068V64.2273H536.299V61.3295H549.708C549.708 60.0985 549.462 59 548.969 58.0341C548.487 57.0682 547.795 56.3059 546.896 55.7472C546.005 55.1884 544.954 54.9091 543.742 54.9091C542.407 54.9091 541.252 55.2405 540.276 55.9034C539.31 56.5568 538.567 57.4091 538.046 58.4602C537.525 59.5114 537.265 60.6383 537.265 61.8409V63.7727C537.265 65.4205 537.549 66.8172 538.117 67.9631C538.695 69.0994 539.495 69.9659 540.518 70.5625C541.54 71.1496 542.729 71.4432 544.083 71.4432C544.964 71.4432 545.759 71.3201 546.469 71.0739C547.189 70.8182 547.809 70.4394 548.33 69.9375C548.851 69.4261 549.254 68.7917 549.538 68.0341L552.776 68.9432C552.435 70.0417 551.862 71.0076 551.058 71.8409C550.253 72.6648 549.258 73.3087 548.075 73.7727C546.891 74.2273 545.56 74.4545 544.083 74.4545ZM558.217 82.1818V52.1818H561.455V55.6477H561.853C562.099 55.2689 562.44 54.786 562.876 54.1989C563.321 53.6023 563.955 53.072 564.779 52.608C565.612 52.1345 566.739 51.8977 568.16 51.8977C569.997 51.8977 571.616 52.357 573.018 53.2756C574.419 54.1941 575.513 55.4962 576.299 57.1818C577.085 58.8674 577.478 60.8561 577.478 63.1477C577.478 65.4583 577.085 67.4612 576.299 69.1562C575.513 70.8419 574.424 72.1487 573.032 73.0767C571.64 73.9953 570.035 74.4545 568.217 74.4545C566.815 74.4545 565.693 74.2225 564.85 73.7585C564.007 73.285 563.359 72.75 562.904 72.1534C562.45 71.5473 562.099 71.0455 561.853 70.6477H561.569V82.1818H558.217ZM561.512 63.0909C561.512 64.7386 561.754 66.1922 562.237 67.4517C562.719 68.7017 563.425 69.6818 564.353 70.392C565.281 71.0928 566.417 71.4432 567.762 71.4432C569.164 71.4432 570.333 71.0739 571.271 70.3352C572.218 69.5871 572.928 68.5833 573.401 67.3239C573.884 66.0549 574.126 64.6439 574.126 63.0909C574.126 61.5568 573.889 60.1742 573.415 58.9432C572.951 57.7027 572.246 56.7225 571.299 56.0028C570.362 55.2737 569.183 54.9091 567.762 54.9091C566.398 54.9091 565.253 55.2547 564.325 55.946C563.397 56.6278 562.696 57.5843 562.222 58.8153C561.749 60.0369 561.512 61.4621 561.512 63.0909ZM585.944 69.0568L596.455 52.1818H600.319V74H596.967V57.125L586.512 74H582.592V52.1818H585.944V69.0568ZM615.322 74.4545C613.353 74.4545 611.625 73.9858 610.138 73.0483C608.661 72.1108 607.505 70.7992 606.672 69.1136C605.848 67.428 605.436 65.4583 605.436 63.2045C605.436 60.9318 605.848 58.9479 606.672 57.2528C607.505 55.5578 608.661 54.2415 610.138 53.304C611.625 52.3665 613.353 51.8977 615.322 51.8977C617.292 51.8977 619.016 52.3665 620.493 53.304C621.98 54.2415 623.135 55.5578 623.959 57.2528C624.792 58.9479 625.209 60.9318 625.209 63.2045C625.209 65.4583 624.792 67.428 623.959 69.1136C623.135 70.7992 621.98 72.1108 620.493 73.0483C619.016 73.9858 617.292 74.4545 615.322 74.4545ZM615.322 71.4432C616.819 71.4432 618.05 71.0597 619.016 70.2926C619.982 69.5256 620.696 68.517 621.161 67.267C621.625 66.017 621.857 64.6629 621.857 63.2045C621.857 61.7462 621.625 60.3873 621.161 59.1278C620.696 57.8684 619.982 56.8504 619.016 56.0739C618.05 55.2973 616.819 54.9091 615.322 54.9091C613.826 54.9091 612.595 55.2973 611.629 56.0739C610.663 56.8504 609.948 57.8684 609.484 59.1278C609.02 60.3873 608.788 61.7462 608.788 63.2045C608.788 64.6629 609.02 66.017 609.484 67.267C609.948 68.517 610.663 69.5256 611.629 70.2926C612.595 71.0597 613.826 71.4432 615.322 71.4432ZM627.996 80.25V70.875H629.815C630.26 70.411 630.643 69.9091 630.965 69.3693C631.287 68.8295 631.567 68.1903 631.803 67.4517C632.049 66.7036 632.258 65.7945 632.428 64.7244C632.599 63.6449 632.75 62.3428 632.883 60.8182L633.621 52.1818H647.485V70.875H650.837V80.25H647.485V74H631.349V80.25H627.996ZM633.621 70.875H644.133V55.3068H636.746L636.178 60.8182C635.942 63.1004 635.648 65.0937 635.298 66.7983C634.947 68.5028 634.388 69.8617 633.621 70.875ZM675.401 74.4545C673.431 74.4545 671.703 73.9858 670.216 73.0483C668.739 72.1108 667.583 70.7992 666.75 69.1136C665.926 67.428 665.514 65.4583 665.514 63.2045C665.514 60.9318 665.926 58.9479 666.75 57.2528C667.583 55.5578 668.739 54.2415 670.216 53.304C671.703 52.3665 673.431 51.8977 675.401 51.8977C677.37 51.8977 679.094 52.3665 680.571 53.304C682.058 54.2415 683.213 55.5578 684.037 57.2528C684.87 58.9479 685.287 60.9318 685.287 63.2045C685.287 65.4583 684.87 67.428 684.037 69.1136C683.213 70.7992 682.058 72.1108 680.571 73.0483C679.094 73.9858 677.37 74.4545 675.401 74.4545ZM675.401 71.4432C676.897 71.4432 678.128 71.0597 679.094 70.2926C680.06 69.5256 680.775 68.517 681.239 67.267C681.703 66.017 681.935 64.6629 681.935 63.2045C681.935 61.7462 681.703 60.3873 681.239 59.1278C680.775 57.8684 680.06 56.8504 679.094 56.0739C678.128 55.2973 676.897 54.9091 675.401 54.9091C673.904 54.9091 672.673 55.2973 671.707 56.0739C670.741 56.8504 670.027 57.8684 669.562 59.1278C669.098 60.3873 668.866 61.7462 668.866 63.2045C668.866 64.6629 669.098 66.017 669.562 67.267C670.027 68.517 670.741 69.5256 671.707 70.2926C672.673 71.0597 673.904 71.4432 675.401 71.4432ZM706.597 44L708.302 46.0455C707.639 46.6894 706.872 47.1392 706.001 47.3949C705.129 47.6506 704.145 47.8068 703.046 47.8636C701.948 47.9205 700.726 47.9773 699.381 48.0341C697.866 48.0909 696.612 48.4602 695.617 49.142C694.623 49.8239 693.856 50.8087 693.316 52.0966C692.776 53.3845 692.431 54.9659 692.279 56.8409H692.563C693.302 55.4773 694.325 54.4735 695.631 53.8295C696.938 53.1856 698.34 52.8636 699.836 52.8636C701.54 52.8636 703.075 53.2614 704.438 54.0568C705.802 54.8523 706.881 56.0312 707.677 57.5938C708.472 59.1562 708.87 61.0833 708.87 63.375C708.87 65.6572 708.463 67.6269 707.648 69.2841C706.844 70.9413 705.712 72.2197 704.254 73.1193C702.805 74.0095 701.105 74.4545 699.154 74.4545C697.203 74.4545 695.494 73.9953 694.026 73.0767C692.558 72.1487 691.417 70.7756 690.603 68.9574C689.789 67.1297 689.381 64.8712 689.381 62.1818V59.8523C689.381 54.9943 690.205 51.3106 691.853 48.8011C693.51 46.2917 696.001 44.9943 699.325 44.9091C700.499 44.8712 701.545 44.8617 702.464 44.8807C703.382 44.8996 704.183 44.857 704.864 44.7528C705.546 44.6487 706.124 44.3977 706.597 44ZM699.154 71.4432C700.47 71.4432 701.602 71.1117 702.549 70.4489C703.505 69.786 704.239 68.8532 704.751 67.6506C705.262 66.4384 705.518 65.0133 705.518 63.375C705.518 61.7841 705.257 60.4299 704.737 59.3125C704.225 58.1951 703.491 57.3428 702.535 56.7557C701.578 56.1686 700.433 55.875 699.097 55.875C698.122 55.875 697.246 56.0407 696.469 56.3722C695.693 56.7036 695.03 57.1913 694.481 57.8352C693.932 58.4792 693.505 59.2652 693.202 60.1932C692.909 61.1212 692.753 62.1818 692.734 63.375C692.734 65.8182 693.307 67.7737 694.452 69.2415C695.598 70.7093 697.165 71.4432 699.154 71.4432ZM713.998 82.1818V52.1818H717.237V55.6477H717.634C717.88 55.2689 718.221 54.786 718.657 54.1989C719.102 53.6023 719.737 53.072 720.56 52.608C721.394 52.1345 722.521 51.8977 723.941 51.8977C725.778 51.8977 727.397 52.357 728.799 53.2756C730.201 54.1941 731.294 55.4962 732.08 57.1818C732.866 58.8674 733.259 60.8561 733.259 63.1477C733.259 65.4583 732.866 67.4612 732.08 69.1562C731.294 70.8419 730.205 72.1487 728.813 73.0767C727.421 73.9953 725.816 74.4545 723.998 74.4545C722.596 74.4545 721.474 74.2225 720.631 73.7585C719.789 73.285 719.14 72.75 718.685 72.1534C718.231 71.5473 717.88 71.0455 717.634 70.6477H717.35V82.1818H713.998ZM717.293 63.0909C717.293 64.7386 717.535 66.1922 718.018 67.4517C718.501 68.7017 719.206 69.6818 720.134 70.392C721.062 71.0928 722.199 71.4432 723.543 71.4432C724.945 71.4432 726.114 71.0739 727.052 70.3352C727.999 69.5871 728.709 68.5833 729.183 67.3239C729.665 66.0549 729.907 64.6439 729.907 63.0909C729.907 61.5568 729.67 60.1742 729.197 58.9432C728.733 57.7027 728.027 56.7225 727.08 56.0028C726.143 55.2737 724.964 54.9091 723.543 54.9091C722.18 54.9091 721.034 55.2547 720.106 55.946C719.178 56.6278 718.477 57.5843 718.004 58.8153C717.53 60.0369 717.293 61.4621 717.293 63.0909ZM744.793 74.5114C743.411 74.5114 742.156 74.2509 741.029 73.7301C739.902 73.1998 739.007 72.4375 738.344 71.4432C737.682 70.4394 737.35 69.2273 737.35 67.8068C737.35 66.5568 737.596 65.5436 738.089 64.767C738.581 63.9811 739.239 63.3655 740.063 62.9205C740.887 62.4754 741.796 62.1439 742.79 61.9261C743.794 61.6989 744.803 61.5189 745.816 61.3864C747.142 61.2159 748.217 61.0881 749.04 61.0028C749.874 60.9081 750.48 60.7519 750.859 60.5341C751.247 60.3163 751.441 59.9375 751.441 59.3977V59.2841C751.441 57.8826 751.058 56.7936 750.29 56.017C749.533 55.2405 748.382 54.8523 746.839 54.8523C745.238 54.8523 743.984 55.2027 743.075 55.9034C742.165 56.6042 741.526 57.3523 741.157 58.1477L737.975 57.0114C738.543 55.6856 739.301 54.6534 740.248 53.9148C741.204 53.1667 742.246 52.6458 743.373 52.3523C744.509 52.0492 745.627 51.8977 746.725 51.8977C747.426 51.8977 748.231 51.983 749.14 52.1534C750.058 52.3144 750.944 52.6506 751.796 53.1619C752.658 53.6733 753.373 54.4451 753.941 55.4773C754.509 56.5095 754.793 57.892 754.793 59.625V74H751.441V71.0455H751.271C751.043 71.5189 750.665 72.0256 750.134 72.5653C749.604 73.1051 748.898 73.5644 748.018 73.9432C747.137 74.322 746.062 74.5114 744.793 74.5114ZM745.305 71.5C746.63 71.5 747.748 71.2396 748.657 70.7188C749.576 70.1979 750.267 69.5256 750.731 68.7017C751.204 67.8778 751.441 67.0114 751.441 66.1023V63.0341C751.299 63.2045 750.987 63.3608 750.504 63.5028C750.03 63.6354 749.481 63.7538 748.856 63.858C748.24 63.9527 747.639 64.0379 747.052 64.1136C746.474 64.1799 746.005 64.2367 745.646 64.2841C744.774 64.3977 743.96 64.5824 743.202 64.8381C742.454 65.0843 741.848 65.4583 741.384 65.9602C740.93 66.4527 740.702 67.125 740.702 67.9773C740.702 69.142 741.133 70.0227 741.995 70.6193C742.866 71.2064 743.969 71.5 745.305 71.5ZM790.685 70.875L790.287 80.25H786.821V74H783.98V70.875H790.685ZM760.912 52.1818H764.264V70.875H772.503V52.1818H775.855V70.875H784.094V52.1818H787.446V74H760.912V52.1818ZM804.474 74.4545C802.371 74.4545 800.558 73.9905 799.033 73.0625C797.518 72.125 796.349 70.8182 795.525 69.142C794.71 67.4564 794.303 65.4962 794.303 63.2614C794.303 61.0265 794.71 59.0568 795.525 57.3523C796.349 55.6383 797.495 54.303 798.962 53.3466C800.44 52.3807 802.163 51.8977 804.133 51.8977C805.269 51.8977 806.391 52.0871 807.499 52.4659C808.607 52.8447 809.616 53.4602 810.525 54.3125C811.434 55.1553 812.158 56.2727 812.698 57.6648C813.238 59.0568 813.508 60.7708 813.508 62.8068V64.2273H796.69V61.3295H810.099C810.099 60.0985 809.853 59 809.36 58.0341C808.877 57.0682 808.186 56.3059 807.286 55.7472C806.396 55.1884 805.345 54.9091 804.133 54.9091C802.798 54.9091 801.642 55.2405 800.667 55.9034C799.701 56.5568 798.958 57.4091 798.437 58.4602C797.916 59.5114 797.656 60.6383 797.656 61.8409V63.7727C797.656 65.4205 797.94 66.8172 798.508 67.9631C799.085 69.0994 799.886 69.9659 800.908 70.5625C801.931 71.1496 803.12 71.4432 804.474 71.4432C805.354 71.4432 806.15 71.3201 806.86 71.0739C807.58 70.8182 808.2 70.4394 808.721 69.9375C809.242 69.4261 809.644 68.7917 809.928 68.0341L813.167 68.9432C812.826 70.0417 812.253 71.0076 811.448 71.8409C810.643 72.6648 809.649 73.3087 808.465 73.7727C807.281 74.2273 805.951 74.4545 804.474 74.4545ZM833.21 61.5568V64.6818H821.164V61.5568H833.21ZM821.96 52.1818V74H818.607V52.1818H821.96ZM835.766 52.1818V74H832.414V52.1818H835.766ZM845.241 69.0568L855.752 52.1818H859.616V74H856.263V57.125L845.809 74H841.888V52.1818H845.241V69.0568ZM878.881 74V55.25H873.085C871.778 55.25 870.751 55.553 870.003 56.1591C869.255 56.7652 868.881 57.5985 868.881 58.6591C868.881 59.7008 869.217 60.5199 869.889 61.1165C870.571 61.7131 871.504 62.0114 872.688 62.0114H879.733V65.1364H872.688C871.21 65.1364 869.937 64.8759 868.866 64.3551C867.796 63.8343 866.973 63.0909 866.395 62.125C865.817 61.1496 865.528 59.9943 865.528 58.6591C865.528 57.3144 865.831 56.1591 866.438 55.1932C867.044 54.2273 867.91 53.4839 869.037 52.9631C870.173 52.4422 871.523 52.1818 873.085 52.1818H882.062V74H878.881ZM864.335 74L870.528 63.1477H874.165L867.972 74H864.335ZM898.103 68.4318H901.683C901.758 69.4167 902.203 70.1648 903.018 70.6761C903.842 71.1875 904.912 71.4432 906.228 71.4432C907.573 71.4432 908.723 71.1686 909.68 70.6193C910.636 70.0606 911.114 69.161 911.114 67.9205C911.114 67.1913 910.934 66.5568 910.575 66.017C910.215 65.4678 909.708 65.0417 909.055 64.7386C908.401 64.4356 907.629 64.2841 906.739 64.2841H902.989V61.2727H906.739C908.075 61.2727 909.059 60.9697 909.694 60.3636C910.338 59.7576 910.66 59 910.66 58.0909C910.66 57.1155 910.314 56.3343 909.623 55.7472C908.932 55.1506 907.951 54.8523 906.683 54.8523C905.404 54.8523 904.339 55.1411 903.487 55.7188C902.634 56.2869 902.184 57.0208 902.137 57.9205H898.614C898.652 56.7462 899.012 55.7093 899.694 54.8097C900.376 53.9006 901.304 53.1903 902.478 52.679C903.652 52.1581 904.997 51.8977 906.512 51.8977C908.046 51.8977 909.377 52.1676 910.504 52.7074C911.64 53.2377 912.516 53.9621 913.131 54.8807C913.756 55.7898 914.069 56.822 914.069 57.9773C914.069 59.2083 913.723 60.2027 913.032 60.9602C912.341 61.7178 911.474 62.2576 910.433 62.5795V62.8068C911.256 62.8636 911.971 63.1288 912.577 63.6023C913.193 64.0663 913.671 64.6771 914.012 65.4347C914.353 66.1828 914.523 67.0114 914.523 67.9205C914.523 69.2462 914.168 70.4015 913.458 71.3864C912.748 72.3617 911.772 73.1193 910.532 73.6591C909.291 74.1894 907.876 74.4545 906.285 74.4545C904.741 74.4545 903.359 74.2036 902.137 73.7017C900.915 73.1903 899.945 72.4848 899.225 71.5852C898.515 70.6761 898.141 69.625 898.103 68.4318ZM928.096 74.4545C926.126 74.4545 924.398 73.9858 922.911 73.0483C921.434 72.1108 920.279 70.7992 919.445 69.1136C918.621 67.428 918.21 65.4583 918.21 63.2045C918.21 60.9318 918.621 58.9479 919.445 57.2528C920.279 55.5578 921.434 54.2415 922.911 53.304C924.398 52.3665 926.126 51.8977 928.096 51.8977C930.066 51.8977 931.789 52.3665 933.266 53.304C934.753 54.2415 935.908 55.5578 936.732 57.2528C937.566 58.9479 937.982 60.9318 937.982 63.2045C937.982 65.4583 937.566 67.428 936.732 69.1136C935.908 70.7992 934.753 72.1108 933.266 73.0483C931.789 73.9858 930.066 74.4545 928.096 74.4545ZM928.096 71.4432C929.592 71.4432 930.823 71.0597 931.789 70.2926C932.755 69.5256 933.47 68.517 933.934 67.267C934.398 66.017 934.63 64.6629 934.63 63.2045C934.63 61.7462 934.398 60.3873 933.934 59.1278C933.47 57.8684 932.755 56.8504 931.789 56.0739C930.823 55.2973 929.592 54.9091 928.096 54.9091C926.6 54.9091 925.369 55.2973 924.403 56.0739C923.437 56.8504 922.722 57.8684 922.258 59.1278C921.794 60.3873 921.562 61.7462 921.562 63.2045C921.562 64.6629 921.794 66.017 922.258 67.267C922.722 68.517 923.437 69.5256 924.403 70.2926C925.369 71.0597 926.6 71.4432 928.096 71.4432ZM957.702 61.5568V64.6818H945.656V61.5568H957.702ZM946.452 52.1818V74H943.099V52.1818H946.452ZM960.259 52.1818V74H956.906V52.1818H960.259ZM964.051 80.25V70.875H965.869C966.314 70.411 966.698 69.9091 967.02 69.3693C967.342 68.8295 967.621 68.1903 967.858 67.4517C968.104 66.7036 968.313 65.7945 968.483 64.7244C968.653 63.6449 968.805 62.3428 968.938 60.8182L969.676 52.1818H983.54V70.875H986.892V80.25H983.54V74H967.403V80.25H964.051ZM969.676 70.875H980.188V55.3068H972.801L972.233 60.8182C971.996 63.1004 971.703 65.0937 971.352 66.7983C971.002 68.5028 970.443 69.8617 969.676 70.875ZM997.762 74.5114C996.379 74.5114 995.125 74.2509 993.998 73.7301C992.871 73.1998 991.976 72.4375 991.313 71.4432C990.65 70.4394 990.319 69.2273 990.319 67.8068C990.319 66.5568 990.565 65.5436 991.058 64.767C991.55 63.9811 992.208 63.3655 993.032 62.9205C993.856 62.4754 994.765 62.1439 995.759 61.9261C996.763 61.6989 997.772 61.5189 998.785 61.3864C1000.11 61.2159 1001.19 61.0881 1002.01 61.0028C1002.84 60.9081 1003.45 60.7519 1003.83 60.5341C1004.22 60.3163 1004.41 59.9375 1004.41 59.3977V59.2841C1004.41 57.8826 1004.03 56.7936 1003.26 56.017C1002.5 55.2405 1001.35 54.8523 999.808 54.8523C998.207 54.8523 996.952 55.2027 996.043 55.9034C995.134 56.6042 994.495 57.3523 994.126 58.1477L990.944 57.0114C991.512 55.6856 992.27 54.6534 993.217 53.9148C994.173 53.1667 995.215 52.6458 996.342 52.3523C997.478 52.0492 998.595 51.8977 999.694 51.8977C1000.39 51.8977 1001.2 51.983 1002.11 52.1534C1003.03 52.3144 1003.91 52.6506 1004.76 53.1619C1005.63 53.6733 1006.34 54.4451 1006.91 55.4773C1007.48 56.5095 1007.76 57.892 1007.76 59.625V74H1004.41V71.0455H1004.24C1004.01 71.5189 1003.63 72.0256 1003.1 72.5653C1002.57 73.1051 1001.87 73.5644 1000.99 73.9432C1000.11 74.322 999.031 74.5114 997.762 74.5114ZM998.273 71.5C999.599 71.5 1000.72 71.2396 1001.63 70.7188C1002.54 70.1979 1003.24 69.5256 1003.7 68.7017C1004.17 67.8778 1004.41 67.0114 1004.41 66.1023V63.0341C1004.27 63.2045 1003.96 63.3608 1003.47 63.5028C1003 63.6354 1002.45 63.7538 1001.82 63.858C1001.21 63.9527 1000.61 64.0379 1000.02 64.1136C999.443 64.1799 998.974 64.2367 998.614 64.2841C997.743 64.3977 996.929 64.5824 996.171 64.8381C995.423 65.0843 994.817 65.4583 994.353 65.9602C993.898 66.4527 993.671 67.125 993.671 67.9773C993.671 69.142 994.102 70.0227 994.964 70.6193C995.835 71.2064 996.938 71.5 998.273 71.5Z" fill="black"/>
</g>
<defs>
<clipPath id="clip0_158_8">
<rect width="1045" height="231" fill="white"/>
</clipPath>
</defs>
</svg>
