<?xml version="1.0" encoding="UTF-8"?> <svg xmlns="http://www.w3.org/2000/svg" xmlns:xlink="http://www.w3.org/1999/xlink" height="100px" width="100px" fill="#000000" x="0px" y="0px" viewBox="0 0 100 100" style="enable-background:new 0 0 100 100;" xml:space="preserve"> <g> <g> <path d="M86,65.1H14c-4.1,0-7.4-3.3-7.4-7.4V7.4C6.5,3.3,9.9,0,14,0H86c4.1,0,7.4,3.3,7.4,7.4v50.3 C93.5,61.8,90.1,65.1,86,65.1z M14,2.3c-2.9,0-5.2,2.3-5.2,5.2v50.3c0,2.9,2.3,5.2,5.2,5.2H86c2.9,0,5.2-2.3,5.2-5.2V7.4 c0-2.9-2.3-5.2-5.2-5.2H14z"></path> </g> <g> <path d="M75.5,74.9H24.5c-0.4,0-0.7-0.2-0.9-0.5c-0.2-0.3-0.3-0.7-0.1-1l3.9-9.7c0.2-0.6,0.9-0.9,1.5-0.6 c0.6,0.2,0.9,0.9,0.6,1.5l-3.2,8.2h47.6l-3.2-8.2c-0.2-0.6,0.1-1.2,0.6-1.5c0.6-0.2,1.2,0.1,1.5,0.6l3.8,9.7 c0.1,0.3,0.1,0.7-0.1,1C76.2,74.7,75.8,74.9,75.5,74.9z"></path> </g> <g> <path d="M90.4,100H9.6c-1.5,0-2.8-0.8-3.6-2c-0.7-1.3-0.8-2.8-0.1-4.1l7.4-13.3c0.2-0.4,0.6-0.6,1-0.6h71.2 c0.4,0,0.8,0.2,1,0.6L94,93.9c0.7,1.3,0.7,2.8-0.1,4.1C93.2,99.2,91.8,100,90.4,100z M15.1,82.2L8,95c-0.3,0.6-0.3,1.3,0,1.9 c0.3,0.6,0.9,0.9,1.6,0.9h80.7c0.7,0,1.3-0.3,1.6-0.9c0.3-0.6,0.3-1.3,0-1.9l-7-12.7H15.1z"></path> </g> <g> <g> <path d="M18.1,91.1c-0.3,0-0.6-0.1-0.8-0.3c-0.2-0.2-0.3-0.5-0.3-0.8c0-0.3,0.1-0.6,0.3-0.8 c0.4-0.4,1.2-0.4,1.6,0c0.2,0.2,0.3,0.5,0.3,0.8c0,0.3-0.1,0.6-0.3,0.8C18.6,91,18.4,91.1,18.1,91.1z"></path> </g> <g> <path d="M73.7,90c0-0.6,0.5-1.1,1.1-1.1l0,0c0.6,0,1.1,0.5,1.1,1.1l0,0c0,0.6-0.5,1.1-1.1,1.1l0,0 C74.2,91.1,73.7,90.6,73.7,90z M66.6,90c0-0.6,0.5-1.1,1.1-1.1l0,0c0.6,0,1.1,0.5,1.1,1.1l0,0c0,0.6-0.5,1.1-1.1,1.1l0,0 C67.1,91.1,66.6,90.6,66.6,90z M59.5,90c0-0.6,0.5-1.1,1.1-1.1l0,0c0.6,0,1.1,0.5,1.1,1.1l0,0c0,0.6-0.5,1.1-1.1,1.1l0,0 C60,91.1,59.5,90.6,59.5,90z M52.4,90c0-0.6,0.5-1.1,1.1-1.1l0,0c0.6,0,1.1,0.5,1.1,1.1l0,0c0,0.6-0.5,1.1-1.1,1.1l0,0 C52.9,91.1,52.4,90.6,52.4,90z M45.3,90c0-0.6,0.5-1.1,1.1-1.1l0,0c0.6,0,1.1,0.5,1.1,1.1l0,0c0,0.6-0.5,1.1-1.1,1.1l0,0 C45.8,91.1,45.3,90.6,45.3,90z M38.2,90c0-0.6,0.5-1.1,1.1-1.1l0,0c0.6,0,1.1,0.5,1.1,1.1l0,0c0,0.6-0.5,1.1-1.1,1.1l0,0 C38.7,91.1,38.2,90.6,38.2,90z M31.1,90c0-0.6,0.5-1.1,1.1-1.1l0,0c0.6,0,1.1,0.5,1.1,1.1l0,0c0,0.6-0.5,1.1-1.1,1.1l0,0 C31.6,91.1,31.1,90.6,31.1,90z M24,90c0-0.6,0.5-1.1,1.1-1.1l0,0c0.6,0,1.1,0.5,1.1,1.1l0,0c0,0.6-0.5,1.1-1.1,1.1l0,0 C24.5,91.1,24,90.6,24,90z"></path> </g> <g> <path d="M81.9,91.1c-0.3,0-0.6-0.1-0.8-0.3c-0.2-0.2-0.3-0.5-0.3-0.8c0-0.3,0.1-0.6,0.3-0.8 c0.4-0.4,1.2-0.4,1.6,0c0.2,0.2,0.3,0.5,0.3,0.8c0,0.3-0.1,0.6-0.3,0.8C82.5,91,82.2,91.1,81.9,91.1z"></path> </g> </g> <g> <path d="M70.7,31.3c-4.8,0-8.7-4.6-8.7-10.2c0-5.6,3.9-10.2,8.7-10.2s8.7,4.6,8.7,10.2 C79.5,26.7,75.6,31.3,70.7,31.3z M70.7,13.2c-3.6,0-6.5,3.5-6.5,7.9c0,4.4,2.9,7.9,6.5,7.9s6.5-3.5,6.5-7.9 C77.2,16.8,74.3,13.2,70.7,13.2z"></path> </g> <g> <path d="M87.7,43.5c-0.3,0-0.5-0.1-0.8-0.3l-5.5-5L78,35c-0.5-0.4-0.5-1.1-0.1-1.6c0.4-0.5,1.1-0.5,1.6-0.1 l3.5,3.2l5.5,5.1c0.5,0.4,0.5,1.1,0.1,1.6C88.4,43.3,88.1,43.5,87.7,43.5z"></path> </g> <g> <path d="M79.8,57.5c-0.6,0-1.1-0.5-1.1-1.1l0-15.8l9.4,8.3c0.5,0.4,0.5,1.1,0.1,1.6c-0.4,0.5-1.1,0.5-1.6,0.1 l-5.6-5l0,0.4v10.4C80.9,57,80.4,57.5,79.8,57.5z"></path> </g> <g> <path d="M61.5,57.5c-0.6,0-1.1-0.5-1.1-1.1V43.4c0-1.7-0.8-3.3-2.1-4.4l-9.1-7.3c-0.9-0.7-1.5-1.8-1.5-2.9 c-0.1-1.2,0.3-2.3,1-3.1c1.5-1.7,4.1-1.8,5.9-0.4l9.9,7.9c0.5,0.4,0.6,1.1,0.2,1.6c-0.4,0.5-1.1,0.6-1.6,0.2l-9.9-7.9 c-0.9-0.7-2.1-0.6-2.8,0.1c-0.4,0.4-0.5,0.9-0.5,1.4c0,0.5,0.3,1,0.7,1.3l9.1,7.3c1.9,1.5,2.9,3.7,2.9,6.1v12.9 C62.6,57,62.1,57.5,61.5,57.5z"></path> </g> <g> <path d="M52.5,50.7H15V9.4h37.5V21c0,0.6-0.5,1.1-1.1,1.1c-0.6,0-1.1-0.5-1.1-1.1v-9.4h-33v36.8h33V37.3 c0-0.6,0.5-1.1,1.1-1.1c0.6,0,1.1,0.5,1.1,1.1V50.7z"></path> </g> <g> <g> <path d="M40.3,22H27.2c-0.6,0-1.1-0.5-1.1-1.1c0-0.6,0.5-1.1,1.1-1.1h13.1c0.6,0,1.1,0.5,1.1,1.1 C41.4,21.5,40.9,22,40.3,22z"></path> </g> <g> <path d="M40.3,31.2H27.2c-0.6,0-1.1-0.5-1.1-1.1c0-0.6,0.5-1.1,1.1-1.1h13.1c0.6,0,1.1,0.5,1.1,1.1 C41.4,30.7,40.9,31.2,40.3,31.2z"></path> </g> </g> </g> </svg> 