<?xml version="1.0" encoding="UTF-8"?> <svg xmlns="http://www.w3.org/2000/svg" xmlns:xlink="http://www.w3.org/1999/xlink" height="100px" width="100px" fill="#000000" x="0px" y="0px" viewBox="0 0 100 100" style="enable-background:new 0 0 100 100;" xml:space="preserve"> <g> <g> <path d="M42.9,74.6H4.5c-2.5,0-4.5-2-4.5-4.5V25.6c0-0.5,0.4-0.9,0.9-0.9s0.9,0.4,0.9,0.9v44.6 c0,1.5,1.2,2.7,2.7,2.7h38.5c0.5,0,0.9,0.4,0.9,0.9S43.4,74.6,42.9,74.6z"></path> </g> <g> <g> <path d="M16.5,19.7c-2.4,0-4.3-1.9-4.3-4.3c0-0.6,0.1-1.1,0.3-1.6c0.2-0.5,0.7-0.7,1.2-0.5 c0.5,0.2,0.7,0.7,0.5,1.2c-0.1,0.3-0.2,0.6-0.2,0.9c0,1.4,1.1,2.5,2.5,2.5c1.4,0,2.5-1.1,2.5-2.5c0-0.3-0.1-0.6-0.2-0.9 c-0.2-0.5,0-1,0.5-1.2c0.5-0.2,1,0,1.2,0.5c0.2,0.5,0.3,1.1,0.3,1.6C20.8,17.8,18.9,19.7,16.5,19.7z"></path> </g> </g> <g> <path d="M16.5,16.3c-0.5,0-0.9-0.4-0.9-0.9V7.4c0-0.5,0.4-0.9,0.9-0.9s0.9,0.4,0.9,0.9v7.9 C17.4,15.9,17,16.3,16.5,16.3z"></path> </g> <g> <path d="M58.3,19.7c-2.4,0-4.3-1.9-4.3-4.3c0-0.6,0.1-1.1,0.3-1.6c0.2-0.5,0.7-0.7,1.2-0.5 c0.5,0.2,0.7,0.7,0.5,1.2c-0.1,0.3-0.2,0.6-0.2,0.9c0,1.4,1.1,2.5,2.5,2.5s2.5-1.1,2.5-2.5c0-0.3-0.1-0.6-0.2-0.9 c-0.2-0.5,0-1,0.5-1.2c0.5-0.2,1,0,1.2,0.5c0.2,0.5,0.3,1.1,0.3,1.6C62.6,17.8,60.7,19.7,58.3,19.7z"></path> </g> <g> <path d="M58.3,16.3c-0.5,0-0.9-0.4-0.9-0.9V7.4c0-0.5,0.4-0.9,0.9-0.9c0.5,0,0.9,0.4,0.9,0.9v7.9 C59.2,15.9,58.8,16.3,58.3,16.3z"></path> </g> <g> <path d="M54.6,10.5H20.3c-0.5,0-0.9-0.4-0.9-0.9s0.4-0.9,0.9-0.9h34.3c0.5,0,0.9,0.4,0.9,0.9 S55.1,10.5,54.6,10.5z"></path> </g> <g> <path d="M74,26.5c-0.5,0-0.9-0.4-0.9-0.9V13.2c0-1.5-1.2-2.7-2.7-2.7h-8.3c-0.5,0-0.9-0.4-0.9-0.9 s0.4-0.9,0.9-0.9h8.3c2.5,0,4.5,2,4.5,4.5v12.3C74.9,26.1,74.5,26.5,74,26.5z"></path> </g> <g> <path d="M74,37.9c-0.5,0-0.9-0.4-0.9-0.9V26.5H0.9c-0.5,0-0.9-0.4-0.9-0.9V13.2c0-2.5,2-4.5,4.5-4.5h8.3 c0.5,0,0.9,0.4,0.9,0.9s-0.4,0.9-0.9,0.9H4.5c-1.5,0-2.7,1.2-2.7,2.7v11.5H74c0.5,0,0.9,0.4,0.9,0.9V37 C74.9,37.5,74.5,37.9,74,37.9z"></path> </g> <g> <g> <path d="M16.5,45.9c-0.5,0-0.9-0.4-0.9-0.9v-6.4c0-0.5,0.4-0.9,0.9-0.9c0.5,0,0.9,0.4,0.9,0.9V45 C17.4,45.5,17,45.9,16.5,45.9z"></path> </g> <g> <path d="M27.1,45.9c-0.5,0-0.9-0.4-0.9-0.9v-6.4c0-0.5,0.4-0.9,0.9-0.9c0.5,0,0.9,0.4,0.9,0.9V45 C27.9,45.5,27.5,45.9,27.1,45.9z"></path> </g> <g> <path d="M16.5,61.6c-0.5,0-0.9-0.4-0.9-0.9v-6.4c0-0.5,0.4-0.9,0.9-0.9c0.5,0,0.9,0.4,0.9,0.9v6.4 C17.4,61.2,17,61.6,16.5,61.6z"></path> </g> <g> <path d="M27.1,61.6c-0.5,0-0.9-0.4-0.9-0.9v-6.4c0-0.5,0.4-0.9,0.9-0.9c0.5,0,0.9,0.4,0.9,0.9v6.4 C27.9,61.2,27.5,61.6,27.1,61.6z"></path> </g> <g> <path d="M37.6,45.9c-0.5,0-0.9-0.4-0.9-0.9v-6.4c0-0.5,0.4-0.9,0.9-0.9s0.9,0.4,0.9,0.9V45 C38.5,45.5,38.1,45.9,37.6,45.9z"></path> </g> </g> <g> <path d="M37.4,61.6c-0.5,0-0.9-0.4-0.9-0.9v-6.4c0-0.5,0.4-0.9,0.9-0.9c0.5,0,0.9,0.4,0.9,0.9v6.4 C38.3,61.2,37.9,61.6,37.4,61.6z"></path> </g> <g> <path d="M42.9,50.5H11.2c-0.5,0-0.9-0.4-0.9-0.9s0.4-0.9,0.9-0.9h31.8c0.5,0,0.9,0.4,0.9,0.9 S43.4,50.5,42.9,50.5z"></path> </g> <g> <g> <g> <g> <path d="M75,78c-0.5,0-1-0.1-1.5-0.4c-1.1-0.6-1.7-1.9-1.7-3.3c0-2.2,1-3.7,3.4-5.1l21.7-12.5 c0.2-0.1,0.2-0.2,0.2-0.3c0-0.1,0-0.2-0.2-0.3L73.4,42.5c-0.4-0.2-0.6-0.8-0.3-1.2c0.2-0.4,0.8-0.6,1.2-0.3l23.3,13.5 c0.7,0.4,1.1,1.1,1.1,1.9c0,0.8-0.4,1.5-1.1,1.9L76,70.7c-1.8,1-2.5,2-2.5,3.6c0,0.7,0.3,1.4,0.9,1.7c0.5,0.3,1.1,0.1,1.5-0.1 l21.6-12.4L96,62.5c-0.4-0.3-0.5-0.8-0.3-1.2c0.3-0.4,0.8-0.5,1.2-0.3l2.6,1.7c0.3,0.2,0.4,0.5,0.4,0.8c0,0.3-0.2,0.6-0.4,0.7 L76.7,77.4C76.2,77.8,75.6,78,75,78z"></path> </g> <g> <path d="M73.7,77.5c-0.2,0-0.3,0-0.4-0.1L48.5,63.1c-0.9-0.5-1.6-1.4-1.9-2.4c-0.1-0.5-0.2-0.9-0.1-1.1 c0-2.2,1-3.7,3.4-5L73.4,41c0.4-0.2,1-0.1,1.2,0.3c0.2,0.4,0.1,1-0.3,1.2L50.7,56.2c-1.8,1-2.5,2-2.5,3.6c0,0,0,0.1,0,0.1 c0,0.1,0,0.2,0.1,0.5c0.1,0.5,0.5,1,1.1,1.3l24.7,14.3c0.4,0.2,0.6,0.8,0.3,1.2C74.3,77.4,74,77.5,73.7,77.5z"></path> </g> </g> <g> <g> <path d="M85.6,86c-0.3,0-0.6-0.2-0.8-0.4c-0.2-0.4-0.1-1,0.3-1.2l12.2-7.1L96,76.3c-0.4-0.3-0.5-0.8-0.3-1.2 c0.3-0.4,0.8-0.5,1.2-0.3l2.6,1.7c0.3,0.2,0.4,0.5,0.4,0.8c0,0.3-0.2,0.6-0.4,0.7l-13.5,7.8C85.9,86,85.8,86,85.6,86z"></path> </g> <g> <path d="M73.7,91.4c-0.2,0-0.3,0-0.4-0.1L48.5,76.9c-0.9-0.5-1.6-1.4-1.9-2.4c-0.1-0.5-0.2-0.9-0.1-1.1 c0-2.2,1-3.7,3.4-5l1-0.7c0.4-0.3,1-0.2,1.2,0.3c0.3,0.4,0.2,1-0.3,1.2l-1.1,0.7c-1.8,1.1-2.5,2-2.5,3.6c0,0,0,0.1,0,0.1 c0,0.1,0,0.2,0.1,0.5c0.1,0.5,0.5,1,1.1,1.3l24.7,14.3c0.4,0.2,0.6,0.8,0.3,1.2C74.3,91.2,74,91.4,73.7,91.4z"></path> </g> </g> <g> <path d="M81.3,93.4c-0.2,0-0.3,0-0.4-0.1c-0.3-0.2-0.5-0.5-0.5-0.8v-3.4l-3.6,2.1c-1.1,0.6-2.3,0.7-3.3,0.1 c-1.1-0.6-1.7-1.9-1.7-3.3c0-2.2,1-3.7,3.4-5.1l21.7-12.5c0.2-0.1,0.2-0.2,0.2-0.3c0-0.1,0-0.2-0.2-0.3 c-0.4-0.2-0.6-0.8-0.3-1.2c0.2-0.4,0.8-0.6,1.2-0.3c0.7,0.4,1.1,1.1,1.1,1.9c0,0.8-0.4,1.5-1.1,1.9L76,84.5 c-1.8,1-2.5,2-2.5,3.6c0,0.7,0.3,1.4,0.9,1.7c0.5,0.3,1.1,0.1,1.5-0.1l5-2.8c0.3-0.2,0.6-0.2,0.9,0c0.3,0.2,0.4,0.5,0.4,0.8V91 l2.6-1.5v-4.3c0-0.8-0.4-1.5-1.1-1.9c-0.4-0.2-0.6-0.8-0.3-1.2c0.2-0.4,0.8-0.6,1.2-0.3c1.2,0.7,2,2,2,3.5v4.8 c0,0.3-0.2,0.6-0.4,0.8l-4.4,2.6C81.6,93.4,81.4,93.4,81.3,93.4z"></path> </g> </g> <g> <path d="M69.9,67.1c-0.1,0-0.3,0-0.4-0.1L49.9,56.2c-0.4-0.2-0.6-0.8-0.3-1.2c0.2-0.4,0.8-0.6,1.2-0.3 l19.6,10.9c0.4,0.2,0.6,0.8,0.3,1.2C70.5,67,70.2,67.1,69.9,67.1z"></path> </g> </g> </g> </svg> 