<?xml version="1.0" encoding="UTF-8"?> <svg xmlns="http://www.w3.org/2000/svg" xmlns:xlink="http://www.w3.org/1999/xlink" height="100px" width="100px" fill="#000000" x="0px" y="0px" viewBox="0 0 100 100" style="enable-background:new 0 0 100 100;" xml:space="preserve"> <g> <g> <path d="M42.7,92.1c-1.2,0-2.3-0.3-3.4-0.9L14.6,76.9c-2-1.1-3.2-3.3-3.2-5.5V37.6c0-2.6,1.4-5.1,3.7-6.4 l42-24.4c0.5-0.3,1.2-0.1,1.5,0.4c0.3,0.5,0.1,1.2-0.4,1.5L16.2,33c-1.6,0.9-2.6,2.7-2.6,4.6v33.8c0,1.5,0.8,2.9,2.1,3.7 l24.7,14.3c1.4,0.8,3.2,0.8,4.7,0L85.2,66c0.5-0.3,1.2-0.1,1.5,0.4c0.3,0.5,0.1,1.2-0.4,1.5L46.1,91.2 C45.1,91.8,43.9,92.1,42.7,92.1z"></path> </g> <g> <path d="M42.7,100c-1.2,0-2.3-0.3-3.4-0.9L8.2,81.4c-2-1.1-3.2-3.3-3.2-5.6V34c0-2.6,1.4-5.1,3.7-6.4L55,0.6 c1.4-0.8,3.2-0.8,4.6,0l2.2,1.2c1.9,1,3,3,3,5.1V44l27.5,15.9c1.7,1,2.7,2.8,2.7,4.7v2.9c0,1.9-1,3.7-2.7,4.7L46.1,99.1 C45,99.7,43.9,100,42.7,100z M57.3,2.1c-0.4,0-0.9,0.1-1.3,0.3L9.8,29.4c-1.6,0.9-2.6,2.7-2.6,4.6v41.8c0,1.5,0.8,2.9,2.1,3.7 l31.1,17.7c1.4,0.8,3.2,0.8,4.6,0l46.2-26.9c1-0.6,1.6-1.7,1.6-2.9v-2.9c0-1.2-0.6-2.3-1.7-2.9L63.7,45.9L22.2,70 c-0.5,0.3-1.2,0.1-1.5-0.4c-0.3-0.5-0.1-1.2,0.4-1.5L62.6,44V6.9c0-1.3-0.7-2.6-1.9-3.3l-2.2-1.2C58.2,2.2,57.7,2.1,57.3,2.1z"></path> </g> <g> <g> <path d="M36,47.4c-0.1,0-0.2,0-0.4-0.1c-0.4-0.2-0.7-0.6-0.7-1V35.1c0-0.3,0.1-0.6,0.3-0.8 c0.2-0.2,0.5-0.3,0.8-0.3l9.2,0.3c0.4,0,0.8,0.3,0.9,0.6c0.2,0.4,0.1,0.8-0.2,1.1L36.8,47C36.6,47.2,36.3,47.4,36,47.4z M37,36.2 v7.2l5.9-7L37,36.2z"></path> </g> <g> <path d="M33.2,53.9c-1.4,0-2.6-0.3-3.7-0.9c-2.3-1.3-3.5-3.9-3.5-7.2c0-7.1,5.7-16.1,12.7-20.2 c3.9-2.2,7.6-2.6,10.3-1.1c2.3,1.3,3.5,3.9,3.5,7.2c0,7.1-5.7,16.1-12.7,20.2C37.6,53.2,35.3,53.9,33.2,53.9z M45.4,25.7 c-1.6,0-3.6,0.6-5.6,1.7c-6.4,3.7-11.7,11.9-11.7,18.3c0,2.5,0.9,4.4,2.4,5.3c2,1.1,5,0.7,8.2-1.1c6.4-3.7,11.7-11.9,11.7-18.3 c0-2.5-0.9-4.4-2.4-5.3C47.3,25.9,46.4,25.7,45.4,25.7z"></path> </g> </g> </g> </svg> 