<?xml version="1.0" encoding="UTF-8"?> <svg xmlns="http://www.w3.org/2000/svg" xmlns:xlink="http://www.w3.org/1999/xlink" height="100px" width="100px" fill="#000000" x="0px" y="0px" viewBox="0 0 100 100" style="enable-background:new 0 0 100 100;" xml:space="preserve"> <g> <g> <g> <path d="M46.5,100H5.8c-1.5,0-2.8-0.8-3.6-2c-0.8-1.3-0.8-2.8-0.1-4.1l7.4-13.4c0.2-0.4,0.6-0.6,1-0.6h48.9 c0.6,0,1.1,0.5,1.1,1.1c0,0.6-0.5,1.1-1.1,1.1H11.3L4.2,94.9c-0.3,0.6-0.3,1.3,0,1.9c0.3,0.6,1,0.9,1.6,0.9h40.7 c0.6,0,1.1,0.5,1.1,1.1C47.7,99.5,47.1,100,46.5,100z"></path> </g> <g> <g> <path d="M14.3,91.1c-0.3,0-0.6-0.1-0.8-0.3c-0.2-0.2-0.3-0.5-0.3-0.8c0-0.3,0.1-0.6,0.3-0.8 c0.4-0.4,1.2-0.4,1.6,0c0.2,0.2,0.3,0.5,0.3,0.8c0,0.3-0.1,0.6-0.3,0.8C14.9,90.9,14.6,91.1,14.3,91.1z"></path> </g> <g> <path d="M43.4,89.9c0-0.6,0.5-1.1,1.1-1.1l0,0c0.6,0,1.1,0.5,1.1,1.1l0,0c0,0.6-0.5,1.1-1.1,1.1l0,0 C43.9,91.1,43.4,90.5,43.4,89.9z M35.9,89.9c0-0.6,0.5-1.1,1.1-1.1l0,0c0.6,0,1.1,0.5,1.1,1.1l0,0c0,0.6-0.5,1.1-1.1,1.1l0,0 C36.4,91.1,35.9,90.5,35.9,89.9z M28.3,89.9c0-0.6,0.5-1.1,1.1-1.1l0,0c0.6,0,1.1,0.5,1.1,1.1l0,0c0,0.6-0.5,1.1-1.1,1.1l0,0 C28.8,91.1,28.3,90.5,28.3,89.9z M20.7,89.9c0-0.6,0.5-1.1,1.1-1.1l0,0c0.6,0,1.1,0.5,1.1,1.1l0,0c0,0.6-0.5,1.1-1.1,1.1l0,0 C21.2,91.1,20.7,90.5,20.7,89.9z"></path> </g> <g> <path d="M52.2,91.1c-0.3,0-0.6-0.1-0.8-0.3c-0.2-0.2-0.3-0.5-0.3-0.8c0-0.3,0.1-0.6,0.3-0.8 c0.4-0.4,1.2-0.4,1.6,0c0.2,0.2,0.3,0.5,0.3,0.8c0,0.3-0.1,0.6-0.3,0.8C52.7,90.9,52.5,91.1,52.2,91.1z"></path> </g> </g> </g> <g> <g> <path d="M54.9,63.7H7.3c-4,0-7.3-3.3-7.3-7.3V7.3C0,3.3,3.3,0,7.3,0h70.4c4,0,7.3,3.3,7.3,7.3V27 c0,0.6-0.5,1.1-1.1,1.1c-0.6,0-1.1-0.5-1.1-1.1V7.3c0-2.8-2.3-5-5-5H7.3c-2.8,0-5,2.3-5,5v49.1c0,2.8,2.3,5,5,5h47.6 c0.6,0,1.1,0.5,1.1,1.1C56.1,63.2,55.6,63.7,54.9,63.7z"></path> </g> <g> <path d="M62.2,73.2H17.6c-0.4,0-0.7-0.2-0.9-0.5c-0.2-0.3-0.3-0.7-0.1-1.1l3.8-9.5c0.2-0.6,0.9-0.9,1.5-0.6 c0.6,0.2,0.9,0.9,0.6,1.5l-3.1,7.9h42.9c0.6,0,1.1,0.5,1.1,1.1C63.4,72.7,62.8,73.2,62.2,73.2z"></path> </g> </g> <g> <g> <path d="M42.1,38.7c-5.1,0-9.3-4.9-9.3-10.9c0-6,4.2-10.9,9.3-10.9s9.3,4.9,9.3,10.9 C51.4,33.8,47.2,38.7,42.1,38.7z M42.1,19.2c-3.9,0-7,3.9-7,8.6c0,4.7,3.2,8.6,7,8.6s7-3.9,7-8.6C49.2,23.1,46,19.2,42.1,19.2z"></path> </g> <g> <path d="M28.2,54.5c-0.6,0-1.1-0.5-1.1-1.1v-9c0-0.3,0.1-0.6,0.4-0.8l6.7-6c0.5-0.4,1.2-0.4,1.6,0.1 c0.4,0.5,0.4,1.2-0.1,1.6L29.3,45v8.5C29.3,54,28.8,54.5,28.2,54.5z"></path> </g> <g> <path d="M54.8,44.4c-0.3,0-0.5-0.1-0.8-0.3l-5.3-4.8c-0.5-0.4-0.5-1.1-0.1-1.6c0.4-0.5,1.1-0.5,1.6-0.1l5.3,4.8 c0.5,0.4,0.5,1.1,0.1,1.6C55.4,44.2,55.1,44.4,54.8,44.4z"></path> </g> </g> <g> <g> <g> <path d="M96.1,62.2H60.5c-1.2,0-2.1-1-2.1-2.1V36.8c0-1.2,1-2.1,2.1-2.1h35.7c1.2,0,2.1,1,2.1,2.1v23.2 C98.3,61.3,97.3,62.2,96.1,62.2z M60.6,59.9H96V37H60.6V59.9z"></path> </g> </g> <g> <path d="M90.2,80.9H66.4c-0.6,0-1.1-0.5-1.1-1.1v-3c0-3.1,2.5-5.5,5.5-5.5h15c3.1,0,5.5,2.5,5.5,5.5v3 C91.4,80.3,90.9,80.9,90.2,80.9z M67.5,78.6h21.6v-1.9c0-1.8-1.5-3.3-3.3-3.3h-15c-1.8,0-3.3,1.5-3.3,3.3V78.6z"></path> </g> <g> <path d="M78.3,94.1c-0.6,0-1.1-0.5-1.1-1.1V79.7c0-0.6,0.5-1.1,1.1-1.1c0.6,0,1.1,0.5,1.1,1.1v13.2 C79.4,93.5,78.9,94.1,78.3,94.1z"></path> </g> <g> <path d="M82.3,73.4c-0.6,0-1.1-0.5-1.1-1.1V61.1c0-0.6,0.5-1.1,1.1-1.1c0.6,0,1.1,0.5,1.1,1.1v11.2 C83.4,72.9,82.9,73.4,82.3,73.4z"></path> </g> <g> <path d="M74.3,73.4c-0.6,0-1.1-0.5-1.1-1.1V61.1c0-0.6,0.5-1.1,1.1-1.1c0.6,0,1.1,0.5,1.1,1.1v11.2 C75.4,72.9,74.9,73.4,74.3,73.4z"></path> </g> <g> <path d="M84.4,37c-0.6,0-1.1-0.5-1.1-1.1v-2.7c0-0.3-0.3-0.6-0.6-0.6h-8.8c-0.3,0-0.6,0.3-0.6,0.6v2.7 c0,0.6-0.5,1.1-1.1,1.1c-0.6,0-1.1-0.5-1.1-1.1v-2.7c0-1.6,1.3-2.9,2.9-2.9h8.8c1.6,0,2.9,1.3,2.9,2.9v2.7 C85.5,36.5,85,37,84.4,37z"></path> </g> <g> <path d="M78.3,57.8c-5.1,0-9.3-4.2-9.3-9.3c0-5.1,4.2-9.3,9.3-9.3c5.1,0,9.3,4.2,9.3,9.3 C87.6,53.6,83.4,57.8,78.3,57.8z M78.3,41.4c-3.9,0-7,3.2-7,7c0,3.9,3.2,7,7,7c3.9,0,7-3.2,7-7C85.3,44.6,82.2,41.4,78.3,41.4z"></path> </g> <g> <path d="M98.9,100c-0.6,0-1.1-0.5-1.1-1.1v-5.6l-8.5-12.9c-0.3-0.5-0.2-1.2,0.3-1.6c0.5-0.3,1.2-0.2,1.6,0.3 l8.8,13.5v6.3C100,99.5,99.5,100,98.9,100z"></path> </g> <g> <path d="M57.9,100c-0.6,0-1.1-0.5-1.1-1.1v-6.3l8.8-13.5c0.3-0.5,1.1-0.7,1.6-0.3c0.5,0.3,0.7,1,0.3,1.6L59,93.3 v5.6C59,99.5,58.5,100,57.9,100z"></path> </g> </g> <g> <path d="M54.8,54.5H14.1c-0.6,0-1.1-0.5-1.1-1.1V10c0-0.6,0.5-1.1,1.1-1.1h56.5c0.6,0,1.1,0.5,1.1,1.1v16.9 c0,0.6-0.5,1.1-1.1,1.1c-0.6,0-1.1-0.5-1.1-1.1V11.1H15.3v41.1h39.5c0.6,0,1.1,0.5,1.1,1.1C56,54,55.4,54.5,54.8,54.5z"></path> </g> </g> </svg> 