<?xml version="1.0" encoding="UTF-8"?> <svg xmlns="http://www.w3.org/2000/svg" xmlns:xlink="http://www.w3.org/1999/xlink" height="100px" width="100px" fill="#000000" x="0px" y="0px" viewBox="0 0 100 100" style="enable-background:new 0 0 100 100;" xml:space="preserve"> <g> <g> <g> <g> <path d="M29.2,81.9c-3.2,0-5.8-2.6-5.8-5.8c0-0.6,0.5-1.1,1.1-1.1c0.6,0,1.1,0.5,1.1,1.1c0,2,1.6,3.6,3.6,3.6 s3.6-1.6,3.6-3.6c0-1.7-1.1-2.7-3.9-3.6c-1.3-0.4-5.4-1.8-5.4-5.7c0-3.2,2.6-5.8,5.8-5.8c3.2,0,5.8,2.6,5.8,5.8 c0,0.6-0.5,1.1-1.1,1.1c-0.6,0-1.1-0.5-1.1-1.1c0-2-1.6-3.6-3.6-3.6s-3.6,1.6-3.6,3.6c0,1.1,0.4,2.5,3.9,3.6 c2.5,0.8,5.4,2.2,5.4,5.7C34.9,79.3,32.3,81.9,29.2,81.9z"></path> </g> <g> <path d="M29.2,63.2c-0.6,0-1.1-0.5-1.1-1.1v-2.6c0-0.6,0.5-1.1,1.1-1.1c0.6,0,1.1,0.5,1.1,1.1v2.6 C30.3,62.7,29.8,63.2,29.2,63.2z"></path> </g> <g> <path d="M29.2,84.5c-0.6,0-1.1-0.5-1.1-1.1v-2.6c0-0.6,0.5-1.1,1.1-1.1c0.6,0,1.1,0.5,1.1,1.1v2.6 C30.3,84,29.8,84.5,29.2,84.5z"></path> </g> </g> </g> <g> <g> <path d="M64.1,56.7c-0.2,0-0.4,0-0.5-0.1c-0.3-0.2-0.6-0.6-0.6-1V35.8c0-0.4,0.2-0.8,0.6-1 c0.3-0.2,0.8-0.2,1.1,0l16.7,9.9c0.3,0.2,0.5,0.6,0.5,1c0,0.4-0.2,0.8-0.5,1l-16.7,9.9C64.5,56.7,64.3,56.7,64.1,56.7z M65.2,37.8v15.9l13.4-8L65.2,37.8z"></path> </g> </g> <g> <g> <path d="M99,74.1l-8.9-8.9c-0.2-0.2-0.5-0.3-0.8-0.3H46.5c-3,0-5.5-2.4-5.5-5.5V30.3c0-2.4,2-4.4,4.4-4.4h50.2 c1.8,0,3.4,1.5,3.4,3.4V74.1z M45.4,28.1c-1.2,0-2.2,1-2.2,2.2v29.1c0,1.8,1.5,3.2,3.2,3.2h42.8c0.9,0,1.7,0.4,2.4,1l5.1,5.1 V29.2c0-0.6-0.5-1.1-1.1-1.1H45.4z"></path> </g> <g> <path d="M1,46.9V3.3C1,1.5,2.5,0,4.3,0h48.5c2.4,0,4.3,1.9,4.3,4.3v18.3c0,0.6-0.5,1.1-1.1,1.1 c-0.6,0-1.1-0.5-1.1-1.1V4.3c0-1.2-0.9-2.1-2.1-2.1H4.3c-0.6,0-1.1,0.5-1.1,1.1v38.2l4.9-4.9c0.6-0.6,1.4-1,2.3-1h27.3 c0.6,0,1.1,0.5,1.1,1.1s-0.5,1.1-1.1,1.1H10.4c-0.3,0-0.6,0.1-0.8,0.3L1,46.9z"></path> </g> <g> <path d="M1,100V56.4c0-1.8,1.5-3.3,3.3-3.3h33.4c0.6,0,1.1,0.5,1.1,1.1c0,0.6-0.5,1.1-1.1,1.1H4.3 c-0.6,0-1.1,0.5-1.1,1.1v38.2l4.9-4.9c0.6-0.6,1.4-1,2.3-1h41.4c1.7,0,3.1-1.4,3.1-3.1V68.2c0-0.6,0.5-1.1,1.1-1.1 c0.6,0,1.1,0.5,1.1,1.1v17.5c0,2.9-2.4,5.3-5.3,5.3H10.4c-0.3,0-0.6,0.1-0.8,0.3L1,100z"></path> </g> <g> <path d="M40.9,14.5H17.4c-0.6,0-1.1-0.5-1.1-1.1c0-0.6,0.5-1.1,1.1-1.1h23.4c0.6,0,1.1,0.5,1.1,1.1 C42,14,41.5,14.5,40.9,14.5z"></path> </g> <g> <path d="M40.9,24.7H17.4c-0.6,0-1.1-0.5-1.1-1.1c0-0.6,0.5-1.1,1.1-1.1h23.4c0.6,0,1.1,0.5,1.1,1.1 C42,24.2,41.5,24.7,40.9,24.7z"></path> </g> </g> </g> </svg> 