<?xml version="1.0" encoding="UTF-8"?> <svg xmlns="http://www.w3.org/2000/svg" xmlns:xlink="http://www.w3.org/1999/xlink" height="100px" width="100px" fill="#000000" x="0px" y="0px" viewBox="0 0 100 100" style="enable-background:new 0 0 100 100;" xml:space="preserve"> <g> <g> <path d="M90,58.1H43.6c-0.6,0-1.1-0.5-1.1-1.1c0-0.6,0.5-1.1,1.1-1.1H90c1.8,0,3.3-1.5,3.3-3.3V13.9 c0-1.8-1.5-3.3-3.3-3.3H21.9c-1.8,0-3.3,1.5-3.3,3.3v19.4c0,0.6-0.5,1.1-1.1,1.1c-0.6,0-1.1-0.5-1.1-1.1V13.9c0-3,2.5-5.5,5.5-5.5 H90c3,0,5.5,2.5,5.5,5.5v38.8C95.5,55.7,93,58.1,90,58.1z"></path> </g> <g> <path d="M11.3,44.6c-0.3,0-0.5-0.1-0.8-0.3c-0.4-0.4-0.4-1.1,0-1.5c3.6-3.6,8.3-5.5,13.3-5.5s9.8,2,13.3,5.5 c0.4,0.4,0.4,1.1,0,1.5c-0.4,0.4-1.1,0.4-1.5,0c-3.2-3.2-7.4-4.9-11.8-4.9c-4.5,0-8.7,1.7-11.8,4.9C11.9,44.5,11.6,44.6,11.3,44.6 z"></path> </g> <g> <g> <path d="M23.9,70.6c-7.5,0-13.6-6.1-13.6-13.6c0-7.5,6.1-13.6,13.6-13.6c7.5,0,13.6,6.1,13.6,13.6 C37.5,64.5,31.4,70.6,23.9,70.6z M23.9,45.5c-6.3,0-11.5,5.2-11.5,11.5c0,6.3,5.2,11.5,11.5,11.5c6.3,0,11.5-5.2,11.5-11.5 C35.4,50.6,30.2,45.5,23.9,45.5z"></path> </g> <g> <path d="M37.9,80.9c-0.3,0-0.5-0.1-0.8-0.3L26.7,70.1c-0.4-0.4-0.4-1.1,0-1.5c0.4-0.4,1.1-0.4,1.5,0l8.7,8.7V71 c0-0.6,0.5-1.1,1.1-1.1h6.2l-8.7-8.7c-0.4-0.4-0.4-1.1,0-1.5c0.4-0.4,1.1-0.4,1.5,0l10.5,10.5c0.3,0.3,0.4,0.8,0.2,1.2 c-0.2,0.4-0.6,0.7-1,0.7H39v7.7c0,0.4-0.3,0.8-0.7,1C38.2,80.8,38.1,80.9,37.9,80.9z"></path> </g> <g> <path d="M9.9,80.9c-0.1,0-0.3,0-0.4-0.1c-0.4-0.2-0.7-0.6-0.7-1v-7.7H1.1c-0.4,0-0.8-0.3-1-0.7 C-0.1,71,0,70.6,0.3,70.3l10.5-10.5c0.4-0.4,1.1-0.4,1.5,0c0.4,0.4,0.4,1.1,0,1.5L3.6,70h6.2c0.6,0,1.1,0.5,1.1,1.1v6.2l8.7-8.7 c0.4-0.4,1.1-0.4,1.5,0c0.4,0.4,0.4,1.1,0,1.5L10.6,80.6C10.4,80.8,10.2,80.9,9.9,80.9z"></path> </g> </g> <g> <path d="M72.5,30.4H39.7c-0.6,0-1.1-0.5-1.1-1.1c0-0.6,0.5-1.1,1.1-1.1h32.8c0.6,0,1.1,0.5,1.1,1.1 C73.6,29.9,73.1,30.4,72.5,30.4z"></path> </g> <g> <path d="M78.3,22.7H33.9c-0.6,0-1.1-0.5-1.1-1.1c0-0.6,0.5-1.1,1.1-1.1h44.3c0.6,0,1.1,0.5,1.1,1.1 C79.3,22.3,78.8,22.7,78.3,22.7z"></path> </g> <g> <g> <path d="M80.4,91.6c-0.1,0-0.2,0-0.3,0c-0.4-0.1-0.7-0.4-0.8-0.8l-6.8-25.3c-0.1-0.4,0-0.8,0.3-1 c0.3-0.3,0.7-0.4,1-0.3l25.3,6.8c0.4,0.1,0.7,0.4,0.8,0.8c0.1,0.4,0,0.8-0.3,1l-5.9,5.9c-0.4,0.4-1.1,0.4-1.5,0 c-0.4-0.4-0.4-1.1,0-1.5l4.6-4.6l-21.8-5.8l5.8,21.8l4.6-4.6c0.4-0.4,1.1-0.4,1.5,0c0.4,0.4,0.4,1.1,0,1.5l-5.9,5.9 C80.9,91.5,80.7,91.6,80.4,91.6z"></path> </g> <g> <g> <path d="M98.6,91.3c-0.3,0-0.5-0.1-0.8-0.3l-7.4-7.4c-0.4-0.4-0.4-1.1,0-1.5c0.4-0.4,1.1-0.4,1.5,0l7.4,7.4 c0.4,0.4,0.4,1.1,0,1.5C99.2,91.2,98.9,91.3,98.6,91.3z"></path> </g> </g> </g> </g> </svg> 